<?plantuml 1.2026.2?><svg xmlns="http://www.w3.org/2000/svg" xmlns:xlink="http://www.w3.org/1999/xlink" contentStyleType="text/css" data-diagram-type="DESCRIPTION" height="791px" preserveAspectRatio="none" style="width:972px;height:791px;" version="1.1" viewBox="0 0 972 791" width="972px" zoomAndPan="magnify"><title>Quantum Video Chat &#8212; System Architecture</title><defs/><g><g class="title" data-source-line="28"><text fill="#000000" font-family="'Segoe UI, Helvetica, Arial, sans-serif'" font-size="22" font-weight="bold" lengthAdjust="spacing" textLength="499.1787" x="231.9106" y="44.2695">Quantum Video Chat &#8212; System Architecture</text></g><!--cluster browser--><g class="cluster" data-qualified-name="browser" data-source-line="30" id="ent0002"><rect fill="#E8F4FD" height="163.24" rx="5" ry="5" style="stroke:#DEE2E6;stroke-width:1;" width="371" x="135" y="74.9102"/><text fill="#212529" font-family="'Segoe UI, Helvetica, Arial, sans-serif'" font-size="13" font-weight="bold" lengthAdjust="spacing" textLength="155.2827" x="242.8586" y="97.4785">Browser App (Desktop)</text></g><!--cluster mw--><g class="cluster" data-qualified-name="mw" data-source-line="36" id="ent0006"><rect fill="#F0FFF0" height="304.9" rx="5" ry="5" style="stroke:#DEE2E6;stroke-width:1;" width="470" x="12" y="270.1502"/><text fill="#212529" font-family="'Segoe UI, Helvetica, Arial, sans-serif'" font-size="13" font-weight="bold" lengthAdjust="spacing" textLength="127.9688" x="183.0156" y="292.7185">Python Middleware</text></g><!--cluster backend--><g class="cluster" data-qualified-name="backend" data-source-line="46" id="ent0014"><rect fill="#FFF0F0" height="351.86" rx="5" ry="5" style="stroke:#DEE2E6;stroke-width:1;" width="418" x="548" y="418.7702"/><text fill="#212529" font-family="'Segoe UI, Helvetica, Arial, sans-serif'" font-size="13" font-weight="bold" lengthAdjust="spacing" textLength="152.7056" x="680.6472" y="441.3385">Python Backend Server</text></g><!--cluster shared--><g class="cluster" data-qualified-name="shared" data-source-line="54" id="ent0020"><rect fill="#F5F0FF" height="178.55" rx="5" ry="5" style="stroke:#DEE2E6;stroke-width:1;" width="166" x="350" y="607.0502"/><text fill="#212529" font-family="'Segoe UI, Helvetica, Arial, sans-serif'" font-size="13" font-weight="bold" lengthAdjust="spacing" textLength="53.022" x="406.489" y="629.6185">shared/</text></g><!--entity main--><g class="entity" data-qualified-name="browser.main" data-source-line="31" id="ent0003"><rect fill="#FFFFFF" height="97.2422" rx="5" ry="5" style="stroke:#ADB5BD;stroke-width:1;" width="138.0068" x="151" y="124.9102"/><text fill="#212529" font-family="'Segoe UI, Helvetica, Arial, sans-serif'" font-size="13" lengthAdjust="spacing" textLength="81.9609" x="169" y="155.4785">Main Process</text><text fill="#212529" font-family="'Segoe UI, Helvetica, Arial, sans-serif'" font-size="13" lengthAdjust="spacing" textLength="46.7441" x="169" y="170.7891">main.ts</text><text fill="#212529" font-family="'Segoe UI, Helvetica, Arial, sans-serif'" font-size="13" lengthAdjust="spacing" textLength="100.4136" x="169" y="186.0996">Socket.IO :5001</text><text fill="#212529" font-family="'Segoe UI, Helvetica, Arial, sans-serif'" font-size="13" lengthAdjust="spacing" textLength="102.0068" x="169" y="201.4102">Settings INI R/W</text></g><!--entity renderer--><g class="entity" data-qualified-name="browser.renderer" data-source-line="32" id="ent0004"><rect fill="#FFFFFF" height="81.9316" rx="5" ry="5" style="stroke:#ADB5BD;stroke-width:1;" width="166.4761" x="323.76" y="132.5602"/><text fill="#212529" font-family="'Segoe UI, Helvetica, Arial, sans-serif'" font-size="13" lengthAdjust="spacing" textLength="103.5684" x="341.76" y="163.1285">Renderer (React)</text><text fill="#212529" font-family="'Segoe UI, Helvetica, Arial, sans-serif'" font-size="13" lengthAdjust="spacing" textLength="130.4761" x="341.76" y="178.4391">Start / Join / Session</text><text fill="#212529" font-family="'Segoe UI, Helvetica, Arial, sans-serif'" font-size="13" lengthAdjust="spacing" textLength="50.5273" x="341.76" y="193.7496">Settings</text></g><!--entity client--><g class="entity" data-qualified-name="mw.client" data-source-line="37" id="ent0007"><rect fill="#FFFFFF" height="66.6211" rx="5" ry="5" style="stroke:#ADB5BD;stroke-width:1;" width="121.8838" x="159.06" y="328.1502"/><text fill="#212529" font-family="'Segoe UI, Helvetica, Arial, sans-serif'" font-size="13" lengthAdjust="spacing" textLength="36.6831" x="177.06" y="358.7185">Client</text><text fill="#212529" font-family="'Segoe UI, Helvetica, Arial, sans-serif'" font-size="13" lengthAdjust="spacing" textLength="85.8838" x="177.06" y="374.0291">(orchestrator)</text></g><!--entity clientapi--><g class="entity" data-qualified-name="mw.clientapi" data-source-line="38" id="ent0008"><rect fill="#FFFFFF" height="66.6211" rx="5" ry="5" style="stroke:#ADB5BD;stroke-width:1;" width="92.583" x="35.71" y="484.4302"/><text fill="#212529" font-family="'Segoe UI, Helvetica, Arial, sans-serif'" font-size="13" lengthAdjust="spacing" textLength="56.583" x="53.71" y="514.9985">ClientAPI</text><text fill="#212529" font-family="'Segoe UI, Helvetica, Arial, sans-serif'" font-size="13" lengthAdjust="spacing" textLength="36.9941" x="53.71" y="530.3091">:4000</text></g><!--entity socketclient--><g class="entity" data-qualified-name="mw.socketclient" data-source-line="39" id="ent0009"><rect fill="#FFFFFF" height="66.6211" rx="5" ry="5" style="stroke:#ADB5BD;stroke-width:1;" width="114.0317" x="162.98" y="484.4302"/><text fill="#212529" font-family="'Segoe UI, Helvetica, Arial, sans-serif'" font-size="13" lengthAdjust="spacing" textLength="78.0317" x="180.98" y="514.9985">SocketClient</text><text fill="#212529" font-family="'Segoe UI, Helvetica, Arial, sans-serif'" font-size="13" lengthAdjust="spacing" textLength="76.3496" x="180.98" y="530.3091">(WebSocket)</text></g><!--entity av--><g class="entity" data-qualified-name="mw.av" data-source-line="40" id="ent0010"><rect fill="#FFFFFF" height="66.6211" rx="5" ry="5" style="stroke:#ADB5BD;stroke-width:1;" width="138.7686" x="311.62" y="484.4302"/><text fill="#212529" font-family="'Segoe UI, Helvetica, Arial, sans-serif'" font-size="13" lengthAdjust="spacing" textLength="102.7686" x="329.62" y="514.9985">AV + Encryption</text><text fill="#212529" font-family="'Segoe UI, Helvetica, Arial, sans-serif'" font-size="13" lengthAdjust="spacing" textLength="79.5552" x="329.62" y="530.3091">Key Rotation</text></g><!--entity restapi--><g class="entity" data-qualified-name="backend.restapi" data-source-line="47" id="ent0015"><rect fill="#FFFFFF" height="66.6211" rx="5" ry="5" style="stroke:#ADB5BD;stroke-width:1;" width="137.8101" x="804.09" y="484.4302"/><text fill="#212529" font-family="'Segoe UI, Helvetica, Arial, sans-serif'" font-size="13" lengthAdjust="spacing" textLength="101.8101" x="822.09" y="514.9985">ServerAPI (REST)</text><text fill="#212529" font-family="'Segoe UI, Helvetica, Arial, sans-serif'" font-size="13" lengthAdjust="spacing" textLength="36.9941" x="822.09" y="530.3091">:5050</text></g><!--entity socketapi--><g class="entity" data-qualified-name="backend.socketapi" data-source-line="48" id="ent0016"><rect fill="#FFFFFF" height="81.9316" rx="5" ry="5" style="stroke:#ADB5BD;stroke-width:1;" width="177.7114" x="591.14" y="476.7702"/><text fill="#212529" font-family="'Segoe UI, Helvetica, Arial, sans-serif'" font-size="13" lengthAdjust="spacing" textLength="141.7114" x="609.14" y="507.3385">SocketAPI (WebSocket)</text><text fill="#212529" font-family="'Segoe UI, Helvetica, Arial, sans-serif'" font-size="13" lengthAdjust="spacing" textLength="36.9941" x="609.14" y="522.6491">:3000</text><text fill="#212529" font-family="'Segoe UI, Helvetica, Arial, sans-serif'" font-size="13" lengthAdjust="spacing" textLength="90.9302" x="609.14" y="537.9596">/video  /audio</text></g><!--entity usermgr--><g class="entity" data-qualified-name="backend.usermgr" data-source-line="49" id="ent0017"><rect fill="#FFFFFF" height="66.6211" rx="5" ry="5" style="stroke:#ADB5BD;stroke-width:1;" width="118.4878" x="716.76" y="680.0102"/><text fill="#212529" font-family="'Segoe UI, Helvetica, Arial, sans-serif'" font-size="13" lengthAdjust="spacing" textLength="82.4878" x="734.76" y="710.5785">UserManager</text><text fill="#212529" font-family="'Segoe UI, Helvetica, Arial, sans-serif'" font-size="13" lengthAdjust="spacing" textLength="36.6514" x="734.76" y="725.8891">User[]</text></g><!--entity sharedlib--><g class="entity" data-qualified-name="shared.sharedlib" data-source-line="55" id="ent0021"><rect fill="#FFFFFF" height="112.5527" rx="5" ry="5" style="stroke:#ADB5BD;stroke-width:1;" width="134.7251" x="365.64" y="657.0502"/><text fill="#212529" font-family="'Segoe UI, Helvetica, Arial, sans-serif'" font-size="13" lengthAdjust="spacing" textLength="66.936" x="383.64" y="687.6185">encryption</text><text fill="#212529" font-family="'Segoe UI, Helvetica, Arial, sans-serif'" font-size="13" lengthAdjust="spacing" textLength="56.3481" x="383.64" y="702.9291">endpoint</text><text fill="#212529" font-family="'Segoe UI, Helvetica, Arial, sans-serif'" font-size="13" lengthAdjust="spacing" textLength="39.3555" x="383.64" y="718.2396">config</text><text fill="#212529" font-family="'Segoe UI, Helvetica, Arial, sans-serif'" font-size="13" lengthAdjust="spacing" textLength="30.7734" x="383.64" y="733.5502">state</text><text fill="#212529" font-family="'Segoe UI, Helvetica, Arial, sans-serif'" font-size="13" lengthAdjust="spacing" textLength="98.7251" x="383.64" y="748.8607">AV namespaces</text></g><!--link main to renderer--><g class="link" data-entity-1="ent0003" data-entity-2="ent0004" data-link-type="dependency" data-source-line="33" id="lnk5"><path d="M295.37,173.6002 C306.49,173.6002 306.1,173.6002 317.51,173.6002" fill="none" id="main-renderer" style="stroke:#000000;stroke-width:1;"/><polygon fill="#000000" points="289.37,173.6002,298.37,177.6002,294.37,173.6002,298.37,169.6002,289.37,173.6002" style="stroke:#000000;stroke-width:1;"/><polygon fill="#000000" points="323.51,173.6002,314.51,169.6002,318.51,173.6002,314.51,177.6002,323.51,173.6002" style="stroke:#000000;stroke-width:1;"/><text fill="#000000" font-family="'Segoe UI, Helvetica, Arial, sans-serif'" font-size="13" lengthAdjust="spacing" textLength="19.9253" x="296.94" y="195.1685">IPC</text></g><!--link client to clientapi--><g class="link" data-entity-1="ent0007" data-entity-2="ent0008" data-link-type="dependency" data-source-line="41" id="lnk11"><path d="M158.67,361.6002 C121.81,361.6002 82,361.6002 82,361.6002 C82,361.6002 82,432.3602 82,478.2402" fill="none" id="client-to-clientapi" style="stroke:#000000;stroke-width:1;"/><polygon fill="#000000" points="82,484.2402,86,475.2402,82,479.2402,78,475.2402,82,484.2402" style="stroke:#000000;stroke-width:1;"/></g><!--link client to socketclient--><g class="link" data-entity-1="ent0007" data-entity-2="ent0009" data-link-type="dependency" data-source-line="42" id="lnk12"><path d="M220,394.9902 C220,421.2602 220,451.6702 220,478.0002" fill="none" id="client-to-socketclient" style="stroke:#000000;stroke-width:1;"/><polygon fill="#000000" points="220,484.0002,224,475.0002,220,479.0002,216,475.0002,220,484.0002" style="stroke:#000000;stroke-width:1;"/></g><!--link client to av--><g class="link" data-entity-1="ent0007" data-entity-2="ent0010" data-link-type="dependency" data-source-line="43" id="lnk13"><path d="M281.31,379.6002 C300.94,379.6002 317.69,379.6002 317.69,379.6002 C317.69,379.6002 317.69,437.0502 317.69,477.9402" fill="none" id="client-to-av" style="stroke:#000000;stroke-width:1;"/><polygon fill="#000000" points="317.69,483.9402,321.69,474.9402,317.69,478.9402,313.69,474.9402,317.69,483.9402" style="stroke:#000000;stroke-width:1;"/></g><!--link restapi to usermgr--><g class="link" data-entity-1="ent0015" data-entity-2="ent0017" data-link-type="dependency" data-source-line="50" id="lnk18"><path d="M824.86,551.3602 C824.86,587.2902 824.86,637.9202 824.86,673.8102" fill="none" id="restapi-to-usermgr" style="stroke:#000000;stroke-width:1;"/><polygon fill="#000000" points="824.86,679.8102,828.86,670.8102,824.86,674.8102,820.86,670.8102,824.86,679.8102" style="stroke:#000000;stroke-width:1;"/></g><!--link socketapi to usermgr--><g class="link" data-entity-1="ent0016" data-entity-2="ent0017" data-link-type="dependency" data-source-line="51" id="lnk19"><path d="M742.81,558.7402 C742.81,594.5802 742.81,640.0102 742.81,673.5302" fill="none" id="socketapi-to-usermgr" style="stroke:#000000;stroke-width:1;"/><polygon fill="#000000" points="742.81,679.5302,746.81,670.5302,742.81,674.5302,738.81,670.5302,742.81,679.5302" style="stroke:#000000;stroke-width:1;"/></g><!--link main to client--><g class="link" data-entity-1="ent0003" data-entity-2="ent0007" data-link-type="dependency" data-source-line="58" id="lnk22"><path d="M220,222.4102 C220,255.5902 220,292.5802 220,321.9202" fill="none" id="main-to-client" style="stroke:#000000;stroke-width:1;"/><polygon fill="#000000" points="220,327.9202,224,318.9202,220,322.9202,216,318.9202,220,327.9202" style="stroke:#000000;stroke-width:1;"/><text fill="#000000" font-family="'Segoe UI, Helvetica, Arial, sans-serif'" font-size="13" lengthAdjust="spacing" textLength="59.3062" x="152" y="263.7385">Socket.IO</text></g><!--link clientapi to restapi--><g class="link" data-entity-1="ent0008" data-entity-2="ent0015" data-link-type="dependency" data-source-line="59" id="lnk23"><path d="M82,551.3102 C82,577.2002 82,608.6002 82,608.6002 C82,608.6002 814.48,608.6002 814.48,608.6002 C814.48,608.6002 814.48,583.2002 814.48,557.3102" fill="none" id="clientapi-to-restapi" style="stroke:#000000;stroke-width:1;"/><polygon fill="#000000" points="814.48,551.3102,810.48,560.3102,814.48,556.3102,818.48,560.3102,814.48,551.3102" style="stroke:#000000;stroke-width:1;"/><text fill="#000000" font-family="'Segoe UI, Helvetica, Arial, sans-serif'" font-size="13" lengthAdjust="spacing" textLength="30.4878" x="409.24" y="597.1685">REST</text></g><!--link socketclient to socketapi--><g class="link" data-entity-1="ent0009" data-entity-2="ent0016" data-link-type="dependency" data-source-line="60" id="lnk24"><path d="M220,557.2602 C220,557.2602 450.99,555.6002 584.76,555.6002" fill="none" id="socketclient-socketapi" style="stroke:#000000;stroke-width:1;"/><polygon fill="#000000" points="220,551.2602,216,560.2602,220,556.2602,224,560.2602,220,551.2602" style="stroke:#000000;stroke-width:1;"/><polygon fill="#000000" points="590.76,555.6002,581.76,551.6002,585.76,555.6002,581.76,559.6002,590.76,555.6002" style="stroke:#000000;stroke-width:1;"/><text fill="#000000" font-family="'Segoe UI, Helvetica, Arial, sans-serif'" font-size="13" font-weight="bold" lengthAdjust="spacing" textLength="71.7412" x="312.6329" y="577.1685">WebSocket</text><text fill="#000000" font-family="'Segoe UI, Helvetica, Arial, sans-serif'" font-size="13" lengthAdjust="spacing" textLength="92.5869" x="302.21" y="592.4791">(encrypted AV)</text></g><!--link mw to sharedlib--><g class="link" data-entity-1="ent0006" data-entity-2="ent0021" data-link-type="dependency" data-source-line="61" id="lnk25"><path d="M474,576.1997 C474,576.6856 474,577.1711 474,577.6561 C474,579.5963 474,581.5296 474,583.4549 C474,587.3056 474,591.1246 474,594.9038 C474,602.4622 474,609.8615 474,617.0367 C474,631.3872 474,638.8414 474,650.8802" fill="none" id="mw-to-sharedlib" style="stroke:#000000;stroke-width:1;stroke-dasharray:7,7;"/><polygon fill="#000000" points="474,656.8802,478,647.8802,474,651.8802,470,647.8802,474,656.8802" style="stroke:#000000;stroke-width:1;"/></g><!--link backend to sharedlib--><g class="link" data-entity-1="ent0014" data-entity-2="ent0021" data-link-type="dependency" data-source-line="62" id="lnk26"><path d="M547.7849,518.6002 C547.1215,518.6002 546.4273,518.6002 545.7056,518.6002 C539.9325,518.6002 532.4075,518.6002 524.94,518.6002 C510.005,518.6002 495.3,518.6002 495.3,518.6002 C495.3,518.6002 495.3,593.2502 495.3,650.7402" fill="none" id="backend-to-sharedlib" style="stroke:#000000;stroke-width:1;stroke-dasharray:7,7;"/><polygon fill="#000000" points="495.3,656.7402,499.3,647.7402,495.3,651.7402,491.3,647.7402,495.3,656.7402" style="stroke:#000000;stroke-width:1;"/></g><?plantuml-src ZLJRRjf047ttLqp9Iq8361Ag15MHkDWAhP9IQ9A7qeV57imAiskj5o9QLUf7z0lx9Hsl7LWkgUeNxyxbpCoPcNsZPxX0I6B6XPFEkKYOOWkOi60UARaKOLV6Ke5MJAIaGg4jgn2dR1bhNmfzpmYbDC988Zpqp-4MunLg7h1pQ2lEudD82Q6IekBJqd684V-EKB-mb85S959Gp95UnmWA0yr45ADbah0mv2A2AqjMvAq4AgYxbYATiL0-P-PJ5gSsJCm5wdM289MUISS6UmaAFnoWhxF7p8b_vL_xxLmdLOYgaFSyh-6zC_AikaBQg3UQZMldftEip5T3cEymHBlNQNPw_nD2I8t_GB_ezWxHVT_hTfePZkQQwl-yP48l5_38GvJGdJ4DVtxzXj4wrRYWBWSphecifKB7sR9Myc8wAocWdIHmsiDqhcLoLWAM0hweJhmh_zBl5Hbk-IZTqLZ2GCa0qtGi5dIhQZgCP317NUr_WbRJTUiaGAsfhodqx_imh3qP-Cny7t28WYgamJWT8Wlq6RbgfZJKu8EaK3KOKIGknHRIGAd2pS1bkF2-edWqqvMRZGvQq1zqCxwiwWThcYS1TpmCOtoc1SepUoPwNIBUFIov6tFwZyMf94OnfStJKkLy1KPrtA4zw8z5wz9rNSkK9NpVEgTk4-G99xaaZv2Qy_4uxKTu2vu8r3hHXg6Fk8QXr2ox6M-sodsCErHermJnivVAhl8muAwU88yIcaqnyKxjKYjK9lga46K3xHvZDhSbegZvtkWBzPwcf-aM3KvVPykuR9aYlmlYUIngAxCAK6FBa4kBm2D83_JqtJ718bHZaLs-VZCEIpekedomYYGsnTkw3V21TfSVUkCKXhKy6NCcGfhPi1qIWbOpYRc4De1c8f1YogEne5mqZWMrNT3ZJgy_BQ456_D95jeimswhQH4s2-fikW_MmkHbjY1hWsEFWBLMsu9RK2vls2-NQMgBnAcszkEPGzjKhTvOQRrCmgxqBm00?></g></svg>