<?plantuml 1.2026.2?><svg xmlns="http://www.w3.org/2000/svg" xmlns:xlink="http://www.w3.org/1999/xlink" contentStyleType="text/css" data-diagram-type="DESCRIPTION" height="715px" preserveAspectRatio="none" style="width:919px;height:715px;" version="1.1" viewBox="0 0 919 715" width="919px" zoomAndPan="magnify"><title>Quantum Video Chat &#8212; System Architecture</title><defs/><g><g class="title" data-source-line="5"><text fill="#000000" font-family="'Segoe UI, Helvetica, Arial, sans-serif'" font-size="22" font-weight="bold" lengthAdjust="spacing" textLength="547.9805" x="181.0098" y="41.4209">Quantum Video Chat &#8212; System Architecture</text></g><!--cluster frontend--><g class="cluster" data-qualified-name="frontend" data-source-line="7" id="ent0002"><rect fill="#E8F4FD" height="134" rx="4" ry="4" style="stroke:#ADB5BD;stroke-width:1;" width="203" x="559" y="70.6094"/><text fill="#212529" font-family="'Segoe UI, Helvetica, Arial, sans-serif'" font-size="12" font-weight="bold" lengthAdjust="spacing" textLength="175.1543" x="572.9229" y="89.748">Browser Frontend (React)</text></g><!--cluster mw--><g class="cluster" data-qualified-name="mw" data-source-line="11" id="ent0004"><rect fill="#ECFDF5" height="279" rx="4" ry="4" style="stroke:#ADB5BD;stroke-width:1;" width="453" x="460" y="236.6094"/><text fill="#212529" font-family="'Segoe UI, Helvetica, Arial, sans-serif'" font-size="12" font-weight="bold" lengthAdjust="spacing" textLength="130.5879" x="621.2061" y="255.748">Python Middleware</text></g><!--cluster backend--><g class="cluster" data-qualified-name="backend" data-source-line="21" id="ent0012"><rect fill="#FEF2F2" height="324" rx="4" ry="4" style="stroke:#ADB5BD;stroke-width:1;" width="408" x="12" y="372.6094"/><text fill="#212529" font-family="'Segoe UI, Helvetica, Arial, sans-serif'" font-size="12" font-weight="bold" lengthAdjust="spacing" textLength="158.2266" x="136.8867" y="391.748">Python Backend Server</text></g><!--cluster shared--><g class="cluster" data-qualified-name="shared" data-source-line="29" id="ent0018"><rect fill="#F5F0FF" height="162" rx="4" ry="4" style="stroke:#ADB5BD;stroke-width:1;" width="160" x="606" y="547.6094"/><text fill="#212529" font-family="'Segoe UI, Helvetica, Arial, sans-serif'" font-size="12" font-weight="bold" lengthAdjust="spacing" textLength="50.8125" x="660.5938" y="566.748">shared/</text></g><!--entity renderer--><g class="entity" data-qualified-name="frontend.renderer" data-source-line="8" id="ent0003"><rect fill="#FFFFFF" height="73.9063" rx="4" ry="4" style="stroke:#ADB5BD;stroke-width:1;" width="152.2637" x="584" y="114.6094"/><text fill="#212529" font-family="'Segoe UI, Helvetica, Arial, sans-serif'" font-size="12" lengthAdjust="spacing" textLength="55.5762" x="600" y="141.748">Renderer</text><text fill="#212529" font-family="'Segoe UI, Helvetica, Arial, sans-serif'" font-size="12" lengthAdjust="spacing" textLength="120.2637" x="600" y="155.7168">Start / Join / Session</text><text fill="#212529" font-family="'Segoe UI, Helvetica, Arial, sans-serif'" font-size="12" lengthAdjust="spacing" textLength="49.2188" x="600" y="169.6855">Settings</text></g><!--entity client--><g class="entity" data-qualified-name="mw.client" data-source-line="12" id="ent0005"><rect fill="#FFFFFF" height="59.9375" rx="4" ry="4" style="stroke:#ADB5BD;stroke-width:1;" width="115.4492" x="602.5" y="288.6094"/><text fill="#212529" font-family="'Segoe UI, Helvetica, Arial, sans-serif'" font-size="12" lengthAdjust="spacing" textLength="34.7402" x="618.5" y="315.748">Client</text><text fill="#212529" font-family="'Segoe UI, Helvetica, Arial, sans-serif'" font-size="12" lengthAdjust="spacing" textLength="83.4492" x="618.5" y="329.7168">(orchestrator)</text></g><!--entity clientapi--><g class="entity" data-qualified-name="mw.clientapi" data-source-line="13" id="ent0006"><rect fill="#FFFFFF" height="59.9375" rx="4" ry="4" style="stroke:#ADB5BD;stroke-width:1;" width="85.7246" x="484" y="431.6094"/><text fill="#212529" font-family="'Segoe UI, Helvetica, Arial, sans-serif'" font-size="12" lengthAdjust="spacing" textLength="53.7246" x="500" y="458.748">ClientAPI</text><text fill="#212529" font-family="'Segoe UI, Helvetica, Arial, sans-serif'" font-size="12" lengthAdjust="spacing" textLength="34.582" x="500" y="472.7168">:4000</text></g><!--entity socketclient--><g class="entity" data-qualified-name="mw.socketclient" data-source-line="14" id="ent0007"><rect fill="#FFFFFF" height="59.9375" rx="4" ry="4" style="stroke:#ADB5BD;stroke-width:1;" width="108.8223" x="605.5" y="431.6094"/><text fill="#212529" font-family="'Segoe UI, Helvetica, Arial, sans-serif'" font-size="12" lengthAdjust="spacing" textLength="75.334" x="621.5" y="458.748">SocketClient</text><text fill="#212529" font-family="'Segoe UI, Helvetica, Arial, sans-serif'" font-size="12" lengthAdjust="spacing" textLength="76.8223" x="621.5" y="472.7168">(WebSocket)</text></g><!--entity av--><g class="entity" data-qualified-name="mw.av" data-source-line="15" id="ent0008"><rect fill="#FFFFFF" height="59.9375" rx="4" ry="4" style="stroke:#ADB5BD;stroke-width:1;" width="130.5254" x="749.5" y="431.6094"/><text fill="#212529" font-family="'Segoe UI, Helvetica, Arial, sans-serif'" font-size="12" lengthAdjust="spacing" textLength="98.5254" x="765.5" y="458.748">AV + Encryption</text><text fill="#212529" font-family="'Segoe UI, Helvetica, Arial, sans-serif'" font-size="12" lengthAdjust="spacing" textLength="76.8926" x="765.5" y="472.7168">Key Rotation</text></g><!--entity restapi--><g class="entity" data-qualified-name="backend.restapi" data-source-line="22" id="ent0013"><rect fill="#FFFFFF" height="59.9375" rx="4" ry="4" style="stroke:#ADB5BD;stroke-width:1;" width="134.3809" x="243" y="431.6094"/><text fill="#212529" font-family="'Segoe UI, Helvetica, Arial, sans-serif'" font-size="12" lengthAdjust="spacing" textLength="102.3809" x="259" y="458.748">ServerAPI (REST)</text><text fill="#212529" font-family="'Segoe UI, Helvetica, Arial, sans-serif'" font-size="12" lengthAdjust="spacing" textLength="34.582" x="259" y="472.7168">:5050</text></g><!--entity socketapi--><g class="entity" data-qualified-name="backend.socketapi" data-source-line="23" id="ent0014"><rect fill="#FFFFFF" height="73.9063" rx="4" ry="4" style="stroke:#ADB5BD;stroke-width:1;" width="172.2148" x="36" y="424.6094"/><text fill="#212529" font-family="'Segoe UI, Helvetica, Arial, sans-serif'" font-size="12" lengthAdjust="spacing" textLength="140.2148" x="52" y="451.748">SocketAPI (WebSocket)</text><text fill="#212529" font-family="'Segoe UI, Helvetica, Arial, sans-serif'" font-size="12" lengthAdjust="spacing" textLength="34.582" x="52" y="465.7168">:3000</text><text fill="#212529" font-family="'Segoe UI, Helvetica, Arial, sans-serif'" font-size="12" lengthAdjust="spacing" textLength="81.7441" x="52" y="479.6855">/video  /audio</text></g><!--entity usermgr--><g class="entity" data-qualified-name="backend.usermgr" data-source-line="24" id="ent0015"><rect fill="#FFFFFF" height="59.9375" rx="4" ry="4" style="stroke:#ADB5BD;stroke-width:1;" width="111.9512" x="160" y="612.6094"/><text fill="#212529" font-family="'Segoe UI, Helvetica, Arial, sans-serif'" font-size="12" lengthAdjust="spacing" textLength="79.9512" x="176" y="639.748">UserManager</text><text fill="#212529" font-family="'Segoe UI, Helvetica, Arial, sans-serif'" font-size="12" lengthAdjust="spacing" textLength="36.7148" x="176" y="653.7168">User[]</text></g><!--entity sharedlib--><g class="entity" data-qualified-name="shared.sharedlib" data-source-line="30" id="ent0019"><rect fill="#FFFFFF" height="101.8438" rx="4" ry="4" style="stroke:#ADB5BD;stroke-width:1;" width="127.7188" x="622" y="591.6094"/><text fill="#212529" font-family="'Segoe UI, Helvetica, Arial, sans-serif'" font-size="12" lengthAdjust="spacing" textLength="64.2246" x="638" y="618.748">encryption</text><text fill="#212529" font-family="'Segoe UI, Helvetica, Arial, sans-serif'" font-size="12" lengthAdjust="spacing" textLength="53.209" x="638" y="632.7168">endpoint</text><text fill="#212529" font-family="'Segoe UI, Helvetica, Arial, sans-serif'" font-size="12" lengthAdjust="spacing" textLength="36.7207" x="638" y="646.6855">config</text><text fill="#212529" font-family="'Segoe UI, Helvetica, Arial, sans-serif'" font-size="12" lengthAdjust="spacing" textLength="30.3984" x="638" y="660.6543">state</text><text fill="#212529" font-family="'Segoe UI, Helvetica, Arial, sans-serif'" font-size="12" lengthAdjust="spacing" textLength="95.7188" x="638" y="674.623">AV namespaces</text></g><!--link client to clientapi--><g class="link" data-entity-1="ent0005" data-entity-2="ent0006" data-link-type="dependency" data-source-line="16" id="lnk9"><path d="M602.44,318.6094 C566.49,318.6094 527,318.6094 527,318.6094 C527,318.6094 527,383.3094 527,425.2794" fill="none" id="client-to-clientapi" style="stroke:#495057;stroke-width:1;"/><polygon fill="#495057" points="527,431.2794,531,422.2794,527,426.2794,523,422.2794,527,431.2794" style="stroke:#495057;stroke-width:1;"/></g><!--link client to socketclient--><g class="link" data-entity-1="ent0005" data-entity-2="ent0007" data-link-type="dependency" data-source-line="17" id="lnk10"><path d="M660,348.9394 C660,373.1994 660,401.0694 660,425.3294" fill="none" id="client-to-socketclient" style="stroke:#495057;stroke-width:1;"/><polygon fill="#495057" points="660,431.3294,664,422.3294,660,426.3294,656,422.3294,660,431.3294" style="stroke:#495057;stroke-width:1;"/></g><!--link client to av--><g class="link" data-entity-1="ent0005" data-entity-2="ent0008" data-link-type="dependency" data-source-line="18" id="lnk11"><path d="M717.72,334.6094 C761.78,334.6094 815,334.6094 815,334.6094 C815,334.6094 815,387.9594 815,425.5094" fill="none" id="client-to-av" style="stroke:#495057;stroke-width:1;"/><polygon fill="#495057" points="815,431.5094,819,422.5094,815,426.5094,811,422.5094,815,431.5094" style="stroke:#495057;stroke-width:1;"/></g><!--link restapi to usermgr--><g class="link" data-entity-1="ent0013" data-entity-2="ent0015" data-link-type="dependency" data-source-line="25" id="lnk16"><path d="M257.5,491.9094 C257.5,525.4194 257.5,573.0894 257.5,606.5194" fill="none" id="restapi-to-usermgr" style="stroke:#495057;stroke-width:1;"/><polygon fill="#495057" points="257.5,612.5194,261.5,603.5194,257.5,607.5194,253.5,603.5194,257.5,612.5194" style="stroke:#495057;stroke-width:1;"/></g><!--link socketapi to usermgr--><g class="link" data-entity-1="ent0014" data-entity-2="ent0015" data-link-type="dependency" data-source-line="26" id="lnk17"><path d="M184,498.6694 C184,532.2894 184,575.2194 184,606.4894" fill="none" id="socketapi-to-usermgr" style="stroke:#495057;stroke-width:1;"/><polygon fill="#495057" points="184,612.4894,188,603.4894,184,607.4894,180,603.4894,184,612.4894" style="stroke:#495057;stroke-width:1;"/></g><!--link renderer to client--><g class="link" data-entity-1="ent0003" data-entity-2="ent0005" data-link-type="dependency" data-source-line="33" id="lnk20"><path d="M660,188.6694 C660,218.6494 660,254.3494 660,282.3394" fill="none" id="renderer-to-client" style="stroke:#495057;stroke-width:1;"/><polygon fill="#495057" points="660,288.3394,664,279.3394,660,283.3394,656,279.3394,660,288.3394" style="stroke:#495057;stroke-width:1;"/><text fill="#000000" font-family="'Segoe UI, Helvetica, Arial, sans-serif'" font-size="12" lengthAdjust="spacing" textLength="57.3926" x="596" y="229.648">Socket.IO</text></g><!--link clientapi to restapi--><g class="link" data-entity-1="ent0006" data-entity-2="ent0013" data-link-type="dependency" data-source-line="34" id="lnk21"><path d="M483.87,477.6094 C453.46,477.6094 418.14,477.6094 383.4,477.6094" fill="none" id="clientapi-to-restapi" style="stroke:#495057;stroke-width:1;"/><polygon fill="#495057" points="377.4,477.6094,386.4,481.6094,382.4,477.6094,386.4,473.6094,377.4,477.6094" style="stroke:#495057;stroke-width:1;"/><text fill="#000000" font-family="'Segoe UI, Helvetica, Arial, sans-serif'" font-size="12" lengthAdjust="spacing" textLength="30.8672" x="437.64" y="468.748">REST</text></g><!--link socketclient to socketapi--><g class="link" data-entity-1="ent0007" data-entity-2="ent0014" data-link-type="dependency" data-source-line="35" id="lnk22"><path d="M613.75,497.7094 C613.75,497.7094 355.25,495.6094 214.22,495.6094" fill="none" id="socketclient-socketapi" style="stroke:#495057;stroke-width:1;"/><polygon fill="#495057" points="613.75,491.7094,609.75,500.7094,613.75,496.7094,617.75,500.7094,613.75,491.7094" style="stroke:#495057;stroke-width:1;"/><polygon fill="#495057" points="208.22,495.6094,217.22,499.6094,213.22,495.6094,217.22,491.6094,208.22,495.6094" style="stroke:#495057;stroke-width:1;"/><text fill="#000000" font-family="'Segoe UI, Helvetica, Arial, sans-serif'" font-size="12" font-weight="bold" lengthAdjust="spacing" textLength="75.8203" x="323.2894" y="513.748">WebSocket</text><text fill="#000000" font-family="'Segoe UI, Helvetica, Arial, sans-serif'" font-size="12" lengthAdjust="spacing" textLength="90.5391" x="315.93" y="527.7168">(encrypted AV)</text></g><!--link mw to sharedlib--><g class="link" data-entity-1="ent0004" data-entity-2="ent0019" data-link-type="dependency" data-source-line="36" id="lnk23"><path d="M742.75,515.7023 C742.75,517.5558 742.75,519.4028 742.75,521.2423 C742.75,524.9213 742.75,528.5705 742.75,532.1815 C742.75,539.4035 742.75,546.4728 742.75,553.3232 C742.75,567.0241 742.75,573.8494 742.75,585.2694" fill="none" id="mw-to-sharedlib" style="stroke:#495057;stroke-width:1;stroke-dasharray:7,7;"/><polygon fill="#495057" points="742.75,591.2694,746.75,582.2694,742.75,586.2694,738.75,582.2694,742.75,591.2694" style="stroke:#495057;stroke-width:1;"/></g><!--link backend to sharedlib--><g class="link" data-entity-1="ent0012" data-entity-2="ent0019" data-link-type="dependency" data-source-line="37" id="lnk24"><path d="M420.3415,602.6094 C420.4787,602.6094 420.6176,602.6094 420.7579,602.6094 C421.8807,602.6094 423.1024,602.6094 424.4174,602.6094 C427.0475,602.6094 430.0514,602.6094 433.3858,602.6094 C446.7234,602.6094 465.3506,602.6094 486.5088,602.6094 C528.825,602.6094 575.265,602.6094 615.76,602.6094" fill="none" id="backend-to-sharedlib" style="stroke:#495057;stroke-width:1;stroke-dasharray:7,7;"/><polygon fill="#495057" points="621.76,602.6094,612.76,598.6094,616.76,602.6094,612.76,606.6094,621.76,602.6094" style="stroke:#495057;stroke-width:1;"/></g><?plantuml-src TLDBZjD04Dtx54MKnIGe7mbc4w6Hai6WWHa8DWaBpA9ZrpYjiQkjxdOY2o5n24x8IQYq4u_pmPlkhdhrU_NyGbASbGc2iLM6mwBCCyyyIIg45Zd4AYyK8TbmvmMDiHMKPjY2P9BGLWM2qdQjFCzAoyWlfI1Rvh2K2IguNGiBVt__WR0o5dEOwdWjBIShDNfUanKwCwss1ZMyqueiKW9N0OhOzZeW33mUZDtP_SA7dnxmrtG8dO1zg55755gXBOpWWvB4HuZ6I4LiHsibfSQbqtkuz-keXNd5On0yo2J9S2iqEd2-XUxxmFS_dPUzpIIV4LqfdWgDrS8gNNSSEzVbWEdyBgB9w_5ut8AAGfwYGnK_eMsAVCDLRQah67U_N6UwX9VWKwohmhhnFs85WR9YztBHObF7k70O96fBWvlJLewTvmMF_Ppo8fypmN6ykn3r1hMhljgRke7_zfpM6iWiiGRyy6kFoReUNu_tgpF_fyg5FDF4SQ-Ov8X66wT568aoaQh5teLC2nRXWo2HxjIqUtp_uG9AlkQfTl1z4ytaRL-J-CnxJ8vPiy2IKTsCkqDtlWZcznVaZQrDCcq5Qvi54Ijwb6b4t8l5Y7Zd978qXOZHjD9cSbMNhZL_ickOGCtMyEwprwmV1bgcQykemwWJsAt2Qsi0tZIevw4dqEyt6-ZtMRRxvdc-wRBdyTyq7DwqMZj8uTZw3m00?></g></svg>