<?plantuml 1.2026.2?><svg xmlns="http://www.w3.org/2000/svg" xmlns:xlink="http://www.w3.org/1999/xlink" contentStyleType="text/css" data-diagram-type="SEQUENCE" height="2218px" preserveAspectRatio="none" style="width:786px;height:2218px;" version="1.1" viewBox="0 0 786 2218" width="786px" zoomAndPan="magnify"><title>BB84 Quantum Key Distribution Protocol</title><defs/><g><text fill="#000000" font-family="'Segoe UI, Helvetica, Arial, sans-serif'" font-size="22" font-weight="bold" lengthAdjust="spacing" textLength="506.5371" x="138.543" y="41.4209">BB84 Quantum Key Distribution Protocol</text><rect fill="#F8F9FA" height="346.6875" rx="4" ry="4" style="stroke:#ADB5BD;stroke-width:1;" width="754.623" x="15" y="1205.6719"/><path d="M15,1464.4531 L769.623,1464.4531 L769.623,1548.3594 A4,4 0 0 1 765.623,1552.3594 L19,1552.3594 A4,4 0 0 1 15,1548.3594 L15,1464.4531" fill="#F8F9FA" style="stroke:none;stroke-width:1;"/><g class="participant-lifeline" data-entity-uid="part1" data-qualified-name="A" id="part1-lifeline"><g><title>Alice</title><rect fill="#000000" fill-opacity="0.00000" height="2041.3438" width="8" x="69.9512" y="118.5469"/><line style="stroke:#CED4DA;stroke-width:1;stroke-dasharray:5,5;" x1="73" x2="73" y1="118.5469" y2="2159.8906"/></g></g><g class="participant-lifeline" data-entity-uid="part2" data-qualified-name="QC" id="part2-lifeline"><g><title>Quantum Channel</title><rect fill="#000000" fill-opacity="0.00000" height="2041.3438" width="8" x="304.5313" y="118.5469"/><line style="stroke:#CED4DA;stroke-width:1;stroke-dasharray:5,5;" x1="307.9863" x2="307.9863" y1="118.5469" y2="2159.8906"/></g></g><g class="participant-lifeline" data-entity-uid="part3" data-qualified-name="B" id="part3-lifeline"><g><title>Bob</title><rect fill="#000000" fill-opacity="0.00000" height="2041.3438" width="8" x="471.2539" y="118.5469"/><line style="stroke:#CED4DA;stroke-width:1;stroke-dasharray:5,5;" x1="474.3457" x2="474.3457" y1="118.5469" y2="2159.8906"/></g></g><g class="participant-lifeline" data-entity-uid="part4" data-qualified-name="CC" id="part4-lifeline"><g><title>Classical Channel</title><rect fill="#000000" fill-opacity="0.00000" height="2041.3438" width="8" x="679.9883" y="118.5469"/><line style="stroke:#CED4DA;stroke-width:1;stroke-dasharray:5,5;" x1="683.3535" x2="683.3535" y1="118.5469" y2="2159.8906"/></g></g><g class="participant participant-head" data-entity-uid="part1" data-qualified-name="A" id="part1-head"><rect fill="#ECFDF5" height="53.9375" rx="4" ry="4" style="stroke:#ADB5BD;stroke-width:1;" width="77.9023" x="35" y="63.6094"/><text fill="#212529" font-family="'Segoe UI, Helvetica, Arial, sans-serif'" font-size="12" lengthAdjust="spacing" textLength="28.8574" x="59.5225" y="87.748">Alice</text><text fill="#212529" font-family="'Segoe UI, Helvetica, Arial, sans-serif'" font-size="12" lengthAdjust="spacing" textLength="51.9023" x="48" y="101.7168">(Sender)</text></g><g class="participant participant-tail" data-entity-uid="part1" data-qualified-name="A" id="part1-tail"><rect fill="#ECFDF5" height="53.9375" rx="4" ry="4" style="stroke:#ADB5BD;stroke-width:1;" width="77.9023" x="35" y="2158.8906"/><text fill="#212529" font-family="'Segoe UI, Helvetica, Arial, sans-serif'" font-size="12" lengthAdjust="spacing" textLength="28.8574" x="59.5225" y="2183.0293">Alice</text><text fill="#212529" font-family="'Segoe UI, Helvetica, Arial, sans-serif'" font-size="12" lengthAdjust="spacing" textLength="51.9023" x="48" y="2196.998">(Sender)</text></g><g class="participant participant-head" data-entity-uid="part2" data-qualified-name="QC" id="part2-head"><rect fill="#FFFBEB" height="53.9375" rx="4" ry="4" style="stroke:#ADB5BD;stroke-width:1;" width="135.0898" x="240.9863" y="63.6094"/><text fill="#212529" font-family="'Segoe UI, Helvetica, Arial, sans-serif'" font-size="12" lengthAdjust="spacing" textLength="109.0898" x="253.9863" y="87.748">Quantum Channel</text><text fill="#212529" font-family="'Segoe UI, Helvetica, Arial, sans-serif'" font-size="12" lengthAdjust="spacing" textLength="39.5332" x="288.7646" y="101.7168">(Fiber)</text></g><g class="participant participant-tail" data-entity-uid="part2" data-qualified-name="QC" id="part2-tail"><rect fill="#FFFBEB" height="53.9375" rx="4" ry="4" style="stroke:#ADB5BD;stroke-width:1;" width="135.0898" x="240.9863" y="2158.8906"/><text fill="#212529" font-family="'Segoe UI, Helvetica, Arial, sans-serif'" font-size="12" lengthAdjust="spacing" textLength="109.0898" x="253.9863" y="2183.0293">Quantum Channel</text><text fill="#212529" font-family="'Segoe UI, Helvetica, Arial, sans-serif'" font-size="12" lengthAdjust="spacing" textLength="39.5332" x="288.7646" y="2196.998">(Fiber)</text></g><g class="participant participant-head" data-entity-uid="part3" data-qualified-name="B" id="part3-head"><rect fill="#E8F4FD" height="53.9375" rx="4" ry="4" style="stroke:#ADB5BD;stroke-width:1;" width="87.8164" x="431.3457" y="63.6094"/><text fill="#212529" font-family="'Segoe UI, Helvetica, Arial, sans-serif'" font-size="12" lengthAdjust="spacing" textLength="23.1914" x="463.6582" y="87.748">Bob</text><text fill="#212529" font-family="'Segoe UI, Helvetica, Arial, sans-serif'" font-size="12" lengthAdjust="spacing" textLength="61.8164" x="444.3457" y="101.7168">(Receiver)</text></g><g class="participant participant-tail" data-entity-uid="part3" data-qualified-name="B" id="part3-tail"><rect fill="#E8F4FD" height="53.9375" rx="4" ry="4" style="stroke:#ADB5BD;stroke-width:1;" width="87.8164" x="431.3457" y="2158.8906"/><text fill="#212529" font-family="'Segoe UI, Helvetica, Arial, sans-serif'" font-size="12" lengthAdjust="spacing" textLength="23.1914" x="463.6582" y="2183.0293">Bob</text><text fill="#212529" font-family="'Segoe UI, Helvetica, Arial, sans-serif'" font-size="12" lengthAdjust="spacing" textLength="61.8164" x="444.3457" y="2196.998">(Receiver)</text></g><g class="participant participant-head" data-entity-uid="part4" data-qualified-name="CC" id="part4-head"><rect fill="#F3F4F6" height="53.9375" rx="4" ry="4" style="stroke:#ADB5BD;stroke-width:1;" width="131.2695" x="618.3535" y="63.6094"/><text fill="#212529" font-family="'Segoe UI, Helvetica, Arial, sans-serif'" font-size="12" lengthAdjust="spacing" textLength="105.2695" x="631.3535" y="87.748">Classical Channel</text><text fill="#212529" font-family="'Segoe UI, Helvetica, Arial, sans-serif'" font-size="12" lengthAdjust="spacing" textLength="94.1719" x="636.9023" y="101.7168">(Authenticated)</text></g><g class="participant participant-tail" data-entity-uid="part4" data-qualified-name="CC" id="part4-tail"><rect fill="#F3F4F6" height="53.9375" rx="4" ry="4" style="stroke:#ADB5BD;stroke-width:1;" width="131.2695" x="618.3535" y="2158.8906"/><text fill="#212529" font-family="'Segoe UI, Helvetica, Arial, sans-serif'" font-size="12" lengthAdjust="spacing" textLength="105.2695" x="631.3535" y="2183.0293">Classical Channel</text><text fill="#212529" font-family="'Segoe UI, Helvetica, Arial, sans-serif'" font-size="12" lengthAdjust="spacing" textLength="94.1719" x="636.9023" y="2196.998">(Authenticated)</text></g><rect fill="#E9ECEF" height="3" rx="4" ry="4" style="stroke:#E9ECEF;stroke-width:1;" width="774.623" x="5" y="154.5313"/><line style="stroke:#000000;stroke-width:0.5;" x1="5" x2="779.623" y1="154.5313" y2="154.5313"/><line style="stroke:#000000;stroke-width:0.5;" x1="5" x2="779.623" y1="157.5313" y2="157.5313"/><rect fill="#E9ECEF" height="33.9688" rx="4" ry="4" style="stroke:#000000;stroke-width:1;" width="238.8242" x="272.8994" y="138.5469"/><text fill="#000000" font-family="'Segoe UI, Helvetica, Arial, sans-serif'" font-size="12" font-weight="bold" lengthAdjust="spacing" textLength="208.6465" x="284.8994" y="159.6855">Step 1: Quantum Transmission</text><g class="message" data-entity-1="part1" data-entity-2="part1" id="msg1"><line style="stroke:#495057;stroke-width:1;" x1="73.9512" x2="115.9512" y1="228.4531" y2="228.4531"/><line style="stroke:#495057;stroke-width:1;" x1="115.9512" x2="115.9512" y1="228.4531" y2="241.4531"/><line style="stroke:#495057;stroke-width:1;" x1="74.9512" x2="115.9512" y1="241.4531" y2="241.4531"/><polygon fill="#495057" points="84.9512,237.4531,74.9512,241.4531,84.9512,245.4531,80.9512,241.4531" style="stroke:#495057;stroke-width:1;"/><text fill="#000000" font-family="'Segoe UI, Helvetica, Arial, sans-serif'" font-size="12" lengthAdjust="spacing" textLength="132.123" x="86.9512" y="203.6543">Generate random bits</text><text fill="#000000" font-family="'Segoe UI, Helvetica, Arial, sans-serif'" font-size="12" lengthAdjust="spacing" textLength="118.2949" x="93.8652" y="217.623">{0, 1, 1, 0, 1, 0, ...}</text></g><g class="message" data-entity-1="part1" data-entity-2="part1" id="msg2"><line style="stroke:#495057;stroke-width:1;" x1="73.9512" x2="115.9512" y1="295.3906" y2="295.3906"/><line style="stroke:#495057;stroke-width:1;" x1="115.9512" x2="115.9512" y1="295.3906" y2="308.3906"/><line style="stroke:#495057;stroke-width:1;" x1="74.9512" x2="115.9512" y1="308.3906" y2="308.3906"/><polygon fill="#495057" points="84.9512,304.3906,74.9512,308.3906,84.9512,312.3906,80.9512,308.3906" style="stroke:#495057;stroke-width:1;"/><text fill="#000000" font-family="'Segoe UI, Helvetica, Arial, sans-serif'" font-size="12" lengthAdjust="spacing" textLength="133.3301" x="86.9512" y="270.5918">Choose random bases</text><text fill="#000000" font-family="'Segoe UI, Helvetica, Arial, sans-serif'" font-size="12" lengthAdjust="spacing" textLength="123.9551" x="91.6387" y="284.5605">{+, x, +, x, x, +, ...}</text></g><g class="message" data-entity-1="part1" data-entity-2="part2" id="msg3"><polygon fill="#495057" points="296.5313,358.3281,306.5313,362.3281,296.5313,366.3281,300.5313,362.3281" style="stroke:#495057;stroke-width:1;"/><line style="stroke:#495057;stroke-width:1;" x1="73.9512" x2="302.5313" y1="362.3281" y2="362.3281"/><text fill="#000000" font-family="'Segoe UI, Helvetica, Arial, sans-serif'" font-size="12" lengthAdjust="spacing" textLength="198.5801" x="91.9512" y="337.5293">Encode bits as polarized photons</text><text fill="#000000" font-family="'Segoe UI, Helvetica, Arial, sans-serif'" font-size="12" lengthAdjust="spacing" textLength="194.4199" x="94.0313" y="351.498">(H/V for + basis, D/A for x basis)</text></g><path d="M313,379.3281 L313,434.3281 A4,4 0 0 0 317,438.3281 L484,438.3281 A4,4 0 0 0 488,434.3281 L488,385.3281 L478,375.3281 L317,375.3281 A4,4 0 0 0 313,379.3281" fill="#FFF3CD" style="stroke:#FFECB5;stroke-width:1;"/><path d="M478,375.3281 L478,383.3281 A2,2 0 0 0 480,385.3281 L488,385.3281 L478,375.3281" fill="#FFF3CD" style="stroke:#FFECB5;stroke-width:1;"/><text fill="#212529" font-family="'Segoe UI, Helvetica, Arial, sans-serif'" font-size="12" lengthAdjust="spacing" textLength="114.7969" x="325" y="397.4668">Poisson-distributed</text><text fill="#212529" font-family="'Segoe UI, Helvetica, Arial, sans-serif'" font-size="12" lengthAdjust="spacing" textLength="142.0547" x="325" y="411.4355">photon pulses (&#956; &#8776; 0.1)</text><text fill="#212529" font-family="'Segoe UI, Helvetica, Arial, sans-serif'" font-size="12" lengthAdjust="spacing" textLength="130.2773" x="325" y="425.4043">with fiber attenuation</text><g class="message" data-entity-1="part2" data-entity-2="part3" id="msg4"><polygon fill="#495057" points="463.2539,472.2031,473.2539,476.2031,463.2539,480.2031,467.2539,476.2031" style="stroke:#495057;stroke-width:1;"/><line style="stroke:#495057;stroke-width:1;" x1="308.5313" x2="469.2539" y1="476.2031" y2="476.2031"/><text fill="#000000" font-family="'Segoe UI, Helvetica, Arial, sans-serif'" font-size="12" lengthAdjust="spacing" textLength="130.7227" x="326.5313" y="465.373">Photons arrive at SPD</text></g><g class="message" data-entity-1="part3" data-entity-2="part3" id="msg5"><line style="stroke:#495057;stroke-width:1;" x1="475.2539" x2="517.2539" y1="530.1406" y2="530.1406"/><line style="stroke:#495057;stroke-width:1;" x1="517.2539" x2="517.2539" y1="530.1406" y2="543.1406"/><line style="stroke:#495057;stroke-width:1;" x1="476.2539" x2="517.2539" y1="543.1406" y2="543.1406"/><polygon fill="#495057" points="486.2539,539.1406,476.2539,543.1406,486.2539,547.1406,482.2539,543.1406" style="stroke:#495057;stroke-width:1;"/><text fill="#000000" font-family="'Segoe UI, Helvetica, Arial, sans-serif'" font-size="12" lengthAdjust="spacing" textLength="133.3301" x="488.2539" y="505.3418">Choose random bases</text><text fill="#000000" font-family="'Segoe UI, Helvetica, Arial, sans-serif'" font-size="12" lengthAdjust="spacing" textLength="123.9551" x="492.9414" y="519.3105">{x, x, +, +, x, +, ...}</text></g><g class="message" data-entity-1="part3" data-entity-2="part3" id="msg6"><line style="stroke:#495057;stroke-width:1;" x1="475.2539" x2="517.2539" y1="597.0781" y2="597.0781"/><line style="stroke:#495057;stroke-width:1;" x1="517.2539" x2="517.2539" y1="597.0781" y2="610.0781"/><line style="stroke:#495057;stroke-width:1;" x1="476.2539" x2="517.2539" y1="610.0781" y2="610.0781"/><polygon fill="#495057" points="486.2539,606.0781,476.2539,610.0781,486.2539,614.0781,482.2539,610.0781" style="stroke:#495057;stroke-width:1;"/><text fill="#000000" font-family="'Segoe UI, Helvetica, Arial, sans-serif'" font-size="12" lengthAdjust="spacing" textLength="130.0488" x="488.2539" y="572.2793">Measure each photon</text><text fill="#000000" font-family="'Segoe UI, Helvetica, Arial, sans-serif'" font-size="12" lengthAdjust="spacing" textLength="92.1621" x="507.1973" y="586.248">in chosen basis</text></g><rect fill="#E9ECEF" height="3" rx="4" ry="4" style="stroke:#E9ECEF;stroke-width:1;" width="774.623" x="5" y="644.0625"/><line style="stroke:#000000;stroke-width:0.5;" x1="5" x2="779.623" y1="644.0625" y2="644.0625"/><line style="stroke:#000000;stroke-width:0.5;" x1="5" x2="779.623" y1="647.0625" y2="647.0625"/><rect fill="#E9ECEF" height="33.9688" rx="4" ry="4" style="stroke:#000000;stroke-width:1;" width="127.748" x="328.4375" y="628.0781"/><text fill="#000000" font-family="'Segoe UI, Helvetica, Arial, sans-serif'" font-size="12" font-weight="bold" lengthAdjust="spacing" textLength="97.5703" x="340.4375" y="649.2168">Step 2: Sifting</text><g class="message" data-entity-1="part3" data-entity-2="part4" id="msg7"><polygon fill="#495057" points="671.9883,700.0156,681.9883,704.0156,671.9883,708.0156,675.9883,704.0156" style="stroke:#495057;stroke-width:1;"/><line style="stroke:#495057;stroke-width:1;" x1="475.2539" x2="677.9883" y1="704.0156" y2="704.0156"/><text fill="#000000" font-family="'Segoe UI, Helvetica, Arial, sans-serif'" font-size="12" lengthAdjust="spacing" textLength="150.3281" x="504.457" y="693.1855">Send Bob's basis choices</text></g><g class="message" data-entity-1="part4" data-entity-2="part1" id="msg8"><polygon fill="#495057" points="84.9512,739.9844,74.9512,743.9844,84.9512,747.9844,80.9512,743.9844" style="stroke:#495057;stroke-width:1;"/><line style="stroke:#495057;stroke-width:1;" x1="78.9512" x2="682.9883" y1="743.9844" y2="743.9844"/><text fill="#000000" font-family="'Segoe UI, Helvetica, Arial, sans-serif'" font-size="12" lengthAdjust="spacing" textLength="98.0742" x="329.9326" y="733.1543">(publicly visible)</text></g><g class="message" data-entity-1="part1" data-entity-2="part4" id="msg9"><polygon fill="#495057" points="671.9883,779.9531,681.9883,783.9531,671.9883,787.9531,675.9883,783.9531" style="stroke:#495057;stroke-width:1;"/><line style="stroke:#495057;stroke-width:1;" x1="73.9512" x2="677.9883" y1="783.9531" y2="783.9531"/><text fill="#000000" font-family="'Segoe UI, Helvetica, Arial, sans-serif'" font-size="12" lengthAdjust="spacing" textLength="155.9941" x="300.9727" y="773.123">Send Alice's basis choices</text></g><g class="message" data-entity-1="part4" data-entity-2="part3" id="msg10"><polygon fill="#495057" points="486.2539,819.9219,476.2539,823.9219,486.2539,827.9219,482.2539,823.9219" style="stroke:#495057;stroke-width:1;"/><line style="stroke:#495057;stroke-width:1;" x1="480.2539" x2="682.9883" y1="823.9219" y2="823.9219"/><text fill="#000000" font-family="'Segoe UI, Helvetica, Arial, sans-serif'" font-size="12" lengthAdjust="spacing" textLength="98.0742" x="530.584" y="813.0918">(publicly visible)</text></g><g class="message" data-entity-1="part1" data-entity-2="part1" id="msg11"><line style="stroke:#495057;stroke-width:1;" x1="73.9512" x2="115.9512" y1="863.8906" y2="863.8906"/><line style="stroke:#495057;stroke-width:1;" x1="115.9512" x2="115.9512" y1="863.8906" y2="876.8906"/><line style="stroke:#495057;stroke-width:1;" x1="74.9512" x2="115.9512" y1="876.8906" y2="876.8906"/><polygon fill="#495057" points="84.9512,872.8906,74.9512,876.8906,84.9512,880.8906,80.9512,876.8906" style="stroke:#495057;stroke-width:1;"/><text fill="#000000" font-family="'Segoe UI, Helvetica, Arial, sans-serif'" font-size="12" lengthAdjust="spacing" textLength="180.6328" x="86.9512" y="853.0605">Keep only matching-basis bits</text></g><g class="message" data-entity-1="part3" data-entity-2="part3" id="msg12"><line style="stroke:#495057;stroke-width:1;" x1="475.2539" x2="517.2539" y1="916.8594" y2="916.8594"/><line style="stroke:#495057;stroke-width:1;" x1="517.2539" x2="517.2539" y1="916.8594" y2="929.8594"/><line style="stroke:#495057;stroke-width:1;" x1="476.2539" x2="517.2539" y1="929.8594" y2="929.8594"/><polygon fill="#495057" points="486.2539,925.8594,476.2539,929.8594,486.2539,933.8594,482.2539,929.8594" style="stroke:#495057;stroke-width:1;"/><text fill="#000000" font-family="'Segoe UI, Helvetica, Arial, sans-serif'" font-size="12" lengthAdjust="spacing" textLength="180.6328" x="488.2539" y="906.0293">Keep only matching-basis bits</text></g><path d="M25,946.8594 L25,973.8594 A4,4 0 0 0 29,977.8594 L520,977.8594 A4,4 0 0 0 524,973.8594 L524,952.8594 L514,942.8594 L29,942.8594 A4,4 0 0 0 25,946.8594" fill="#FFF3CD" style="stroke:#FFECB5;stroke-width:1;"/><path d="M514,942.8594 L514,950.8594 A2,2 0 0 0 516,952.8594 L524,952.8594 L514,942.8594" fill="#FFF3CD" style="stroke:#FFECB5;stroke-width:1;"/><text fill="#212529" font-family="'Segoe UI, Helvetica, Arial, sans-serif'" font-size="12" lengthAdjust="spacing" textLength="223.4473" x="158.3574" y="964.998">~50% of detected bits survive sifting</text><rect fill="#E9ECEF" height="3" rx="4" ry="4" style="stroke:#E9ECEF;stroke-width:1;" width="774.623" x="5" y="1009.8125"/><line style="stroke:#000000;stroke-width:0.5;" x1="5" x2="779.623" y1="1009.8125" y2="1009.8125"/><line style="stroke:#000000;stroke-width:0.5;" x1="5" x2="779.623" y1="1012.8125" y2="1012.8125"/><rect fill="#E9ECEF" height="33.9688" rx="4" ry="4" style="stroke:#000000;stroke-width:1;" width="196.1797" x="294.2217" y="993.8281"/><text fill="#000000" font-family="'Segoe UI, Helvetica, Arial, sans-serif'" font-size="12" font-weight="bold" lengthAdjust="spacing" textLength="166.002" x="306.2217" y="1014.9668">Step 3: QBER Estimation</text><g class="message" data-entity-1="part1" data-entity-2="part4" id="msg13"><polygon fill="#495057" points="671.9883,1065.7656,681.9883,1069.7656,671.9883,1073.7656,675.9883,1069.7656" style="stroke:#495057;stroke-width:1;"/><line style="stroke:#495057;stroke-width:1;" x1="73.9512" x2="677.9883" y1="1069.7656" y2="1069.7656"/><text fill="#000000" font-family="'Segoe UI, Helvetica, Arial, sans-serif'" font-size="12" lengthAdjust="spacing" textLength="197.2559" x="280.3418" y="1058.9355">Reveal 10% sample of sifted bits</text></g><g class="message" data-entity-1="part4" data-entity-2="part3" id="msg14"><polygon fill="#495057" points="486.2539,1079.7656,476.2539,1083.7656,486.2539,1087.7656,482.2539,1083.7656" style="stroke:#495057;stroke-width:1;"/><line style="stroke:#495057;stroke-width:1;" x1="480.2539" x2="682.9883" y1="1083.7656" y2="1083.7656"/></g><g class="message" data-entity-1="part3" data-entity-2="part3" id="msg15"><line style="stroke:#495057;stroke-width:1;" x1="475.2539" x2="517.2539" y1="1137.7031" y2="1137.7031"/><line style="stroke:#495057;stroke-width:1;" x1="517.2539" x2="517.2539" y1="1137.7031" y2="1150.7031"/><line style="stroke:#495057;stroke-width:1;" x1="476.2539" x2="517.2539" y1="1150.7031" y2="1150.7031"/><polygon fill="#495057" points="486.2539,1146.7031,476.2539,1150.7031,486.2539,1154.7031,482.2539,1150.7031" style="stroke:#495057;stroke-width:1;"/><text fill="#000000" font-family="'Segoe UI, Helvetica, Arial, sans-serif'" font-size="12" lengthAdjust="spacing" textLength="138.2695" x="488.2539" y="1112.9043">Compare with own bits</text><text fill="#000000" font-family="'Segoe UI, Helvetica, Arial, sans-serif'" font-size="12" lengthAdjust="spacing" textLength="112.3125" x="501.2324" y="1126.873">Count mismatches</text></g><g class="message" data-entity-1="part3" data-entity-2="part4" id="msg16"><polygon fill="#495057" points="671.9883,1186.6719,681.9883,1190.6719,671.9883,1194.6719,675.9883,1190.6719" style="stroke:#495057;stroke-width:1;"/><line style="stroke:#495057;stroke-width:1;" x1="475.2539" x2="677.9883" y1="1190.6719" y2="1190.6719"/><text fill="#000000" font-family="'Segoe UI, Helvetica, Arial, sans-serif'" font-size="12" lengthAdjust="spacing" textLength="77.7305" x="540.7559" y="1179.8418">Report QBER</text></g><path d="M19,1205.6719 L89.9473,1205.6719 L89.9473,1223.6406 L79.9473,1233.6406 L15,1233.6406 L15,1209.6719 A4,4 0 0 1 19,1205.6719" fill="#F8F9FA" style="stroke:#000000;stroke-width:1;"/><rect fill="none" height="346.6875" rx="4" ry="4" style="stroke:#ADB5BD;stroke-width:1;" width="754.623" x="15" y="1205.6719"/><text fill="#000000" font-family="'Segoe UI, Helvetica, Arial, sans-serif'" font-size="12" font-weight="bold" lengthAdjust="spacing" textLength="17.9473" x="36" y="1223.8105">alt</text><text fill="#000000" font-family="'Segoe UI, Helvetica, Arial, sans-serif'" font-size="12" font-weight="bold" lengthAdjust="spacing" textLength="269.1504" x="110.9473" y="1224.8105">[QBER &gt; 11% (Eavesdropper Detected)]</text><g class="message" data-entity-1="part3" data-entity-2="part4" id="msg17"><polygon fill="#495057" points="671.9883,1272.5781,681.9883,1276.5781,671.9883,1280.5781,675.9883,1276.5781" style="stroke:#495057;stroke-width:1;"/><line style="stroke:#495057;stroke-width:1;" x1="475.2539" x2="677.9883" y1="1276.5781" y2="1276.5781"/><text fill="#000000" font-family="'Segoe UI, Helvetica, Arial, sans-serif'" font-size="12" font-weight="bold" lengthAdjust="spacing" textLength="46.0605" x="493.2539" y="1265.748">ABORT</text><text fill="#000000" font-family="'Segoe UI, Helvetica, Arial, sans-serif'" font-size="12" lengthAdjust="spacing" textLength="122.8594" x="543.1289" y="1265.748">&#8212; key compromised</text></g><g class="message" data-entity-1="part4" data-entity-2="part1" id="msg18"><polygon fill="#495057" points="84.9512,1286.5781,74.9512,1290.5781,84.9512,1294.5781,80.9512,1290.5781" style="stroke:#495057;stroke-width:1;"/><line style="stroke:#495057;stroke-width:1;" x1="78.9512" x2="682.9883" y1="1290.5781" y2="1290.5781"/></g><g class="message" data-entity-1="part1" data-entity-2="part1" id="msg19"><line style="stroke:#495057;stroke-width:1;" x1="73.9512" x2="115.9512" y1="1330.5469" y2="1330.5469"/><line style="stroke:#495057;stroke-width:1;" x1="115.9512" x2="115.9512" y1="1330.5469" y2="1343.5469"/><line style="stroke:#495057;stroke-width:1;" x1="74.9512" x2="115.9512" y1="1343.5469" y2="1343.5469"/><polygon fill="#495057" points="84.9512,1339.5469,74.9512,1343.5469,84.9512,1347.5469,80.9512,1343.5469" style="stroke:#495057;stroke-width:1;"/><text fill="#000000" font-family="'Segoe UI, Helvetica, Arial, sans-serif'" font-size="12" lengthAdjust="spacing" textLength="124.4766" x="86.9512" y="1319.7168">Discard key material</text></g><g class="message" data-entity-1="part3" data-entity-2="part3" id="msg20"><line style="stroke:#495057;stroke-width:1;" x1="475.2539" x2="517.2539" y1="1383.5156" y2="1383.5156"/><line style="stroke:#495057;stroke-width:1;" x1="517.2539" x2="517.2539" y1="1383.5156" y2="1396.5156"/><line style="stroke:#495057;stroke-width:1;" x1="476.2539" x2="517.2539" y1="1396.5156" y2="1396.5156"/><polygon fill="#495057" points="486.2539,1392.5156,476.2539,1396.5156,486.2539,1400.5156,482.2539,1396.5156" style="stroke:#495057;stroke-width:1;"/><text fill="#000000" font-family="'Segoe UI, Helvetica, Arial, sans-serif'" font-size="12" lengthAdjust="spacing" textLength="124.4766" x="488.2539" y="1372.6855">Discard key material</text></g><path d="M25,1413.5156 L25,1454.5156 A4,4 0 0 0 29,1458.5156 L520,1458.5156 A4,4 0 0 0 524,1454.5156 L524,1419.5156 L514,1409.5156 L29,1409.5156 A4,4 0 0 0 25,1413.5156" fill="#FEF2F2" style="stroke:#FFECB5;stroke-width:1;"/><path d="M514,1409.5156 L514,1417.5156 A2,2 0 0 0 516,1419.5156 L524,1419.5156 L514,1409.5156" fill="#FEF2F2" style="stroke:#FFECB5;stroke-width:1;"/><text fill="#212529" font-family="'Segoe UI, Helvetica, Arial, sans-serif'" font-size="12" lengthAdjust="spacing" textLength="96.6973" x="205.0039" y="1431.6543">Restart protocol</text><text fill="#212529" font-family="'Segoe UI, Helvetica, Arial, sans-serif'" font-size="12" lengthAdjust="spacing" textLength="130.1543" x="205.0039" y="1445.623">with new random bits</text><line style="stroke:#ADB5BD;stroke-width:1;stroke-dasharray:2,2;" x1="15" x2="769.623" y1="1465.4531" y2="1465.4531"/><text fill="#000000" font-family="'Segoe UI, Helvetica, Arial, sans-serif'" font-size="12" font-weight="bold" lengthAdjust="spacing" textLength="156.5273" x="26" y="1482.5918">[QBER &lt; 11% (Secure)]</text><path d="M25,1501.4219 L25,1542.4219 A4,4 0 0 0 29,1546.4219 L520,1546.4219 A4,4 0 0 0 524,1542.4219 L524,1507.4219 L514,1497.4219 L29,1497.4219 A4,4 0 0 0 25,1501.4219" fill="#ECFDF5" style="stroke:#FFECB5;stroke-width:1;"/><path d="M514,1497.4219 L514,1505.4219 A2,2 0 0 0 516,1507.4219 L524,1507.4219 L514,1497.4219" fill="#ECFDF5" style="stroke:#FFECB5;stroke-width:1;"/><text fill="#212529" font-family="'Segoe UI, Helvetica, Arial, sans-serif'" font-size="12" lengthAdjust="spacing" textLength="106.6348" x="188.9404" y="1519.5605">Channel is secure</text><text fill="#212529" font-family="'Segoe UI, Helvetica, Arial, sans-serif'" font-size="12" lengthAdjust="spacing" textLength="162.2813" x="188.9404" y="1533.5293">Proceed to error correction</text><rect fill="#E9ECEF" height="3" rx="4" ry="4" style="stroke:#E9ECEF;stroke-width:1;" width="774.623" x="5" y="1585.3438"/><line style="stroke:#000000;stroke-width:0.5;" x1="5" x2="779.623" y1="1585.3438" y2="1585.3438"/><line style="stroke:#000000;stroke-width:0.5;" x1="5" x2="779.623" y1="1588.3438" y2="1588.3438"/><rect fill="#E9ECEF" height="33.9688" rx="4" ry="4" style="stroke:#000000;stroke-width:1;" width="263.0703" x="260.7764" y="1569.3594"/><text fill="#000000" font-family="'Segoe UI, Helvetica, Arial, sans-serif'" font-size="12" font-weight="bold" lengthAdjust="spacing" textLength="232.8926" x="272.7764" y="1590.498">Step 4: Error Correction (Cascade)</text><g class="message" data-entity-1="part1" data-entity-2="part4" id="msg21"><polygon fill="#495057" points="671.9883,1641.2969,681.9883,1645.2969,671.9883,1649.2969,675.9883,1645.2969" style="stroke:#495057;stroke-width:1;"/><line style="stroke:#495057;stroke-width:1;" x1="73.9512" x2="677.9883" y1="1645.2969" y2="1645.2969"/><text fill="#000000" font-family="'Segoe UI, Helvetica, Arial, sans-serif'" font-size="12" lengthAdjust="spacing" textLength="132.9023" x="312.5186" y="1634.4668">Block parities (Pass 1)</text></g><g class="message" data-entity-1="part4" data-entity-2="part3" id="msg22"><polygon fill="#495057" points="486.2539,1655.2969,476.2539,1659.2969,486.2539,1663.2969,482.2539,1659.2969" style="stroke:#495057;stroke-width:1;"/><line style="stroke:#495057;stroke-width:1;" x1="480.2539" x2="682.9883" y1="1659.2969" y2="1659.2969"/></g><g class="message" data-entity-1="part3" data-entity-2="part3" id="msg23"><line style="stroke:#495057;stroke-width:1;" x1="475.2539" x2="517.2539" y1="1713.2344" y2="1713.2344"/><line style="stroke:#495057;stroke-width:1;" x1="517.2539" x2="517.2539" y1="1713.2344" y2="1726.2344"/><line style="stroke:#495057;stroke-width:1;" x1="476.2539" x2="517.2539" y1="1726.2344" y2="1726.2344"/><polygon fill="#495057" points="486.2539,1722.2344,476.2539,1726.2344,486.2539,1730.2344,482.2539,1726.2344" style="stroke:#495057;stroke-width:1;"/><text fill="#000000" font-family="'Segoe UI, Helvetica, Arial, sans-serif'" font-size="12" lengthAdjust="spacing" textLength="103.4238" x="507.7451" y="1688.4355">Compare parities</text><text fill="#000000" font-family="'Segoe UI, Helvetica, Arial, sans-serif'" font-size="12" lengthAdjust="spacing" textLength="142.4063" x="488.2539" y="1702.4043">Binary search for errors</text></g><g class="message" data-entity-1="part3" data-entity-2="part4" id="msg24"><polygon fill="#495057" points="671.9883,1762.2031,681.9883,1766.2031,671.9883,1770.2031,675.9883,1766.2031" style="stroke:#495057;stroke-width:1;"/><line style="stroke:#495057;stroke-width:1;" x1="475.2539" x2="677.9883" y1="1766.2031" y2="1766.2031"/><text fill="#000000" font-family="'Segoe UI, Helvetica, Arial, sans-serif'" font-size="12" lengthAdjust="spacing" textLength="159.4688" x="499.8867" y="1755.373">Request sub-block parities</text></g><g class="message" data-entity-1="part4" data-entity-2="part1" id="msg25"><polygon fill="#495057" points="84.9512,1776.2031,74.9512,1780.2031,84.9512,1784.2031,80.9512,1780.2031" style="stroke:#495057;stroke-width:1;"/><line style="stroke:#495057;stroke-width:1;" x1="78.9512" x2="682.9883" y1="1780.2031" y2="1780.2031"/></g><path d="M25,1797.2031 L25,1838.2031 A4,4 0 0 0 29,1842.2031 L520,1842.2031 A4,4 0 0 0 524,1838.2031 L524,1803.2031 L514,1793.2031 L29,1793.2031 A4,4 0 0 0 25,1797.2031" fill="#FFF3CD" style="stroke:#FFECB5;stroke-width:1;"/><path d="M514,1793.2031 L514,1801.2031 A2,2 0 0 0 516,1803.2031 L524,1803.2031 L514,1793.2031" fill="#FFF3CD" style="stroke:#FFECB5;stroke-width:1;"/><text fill="#212529" font-family="'Segoe UI, Helvetica, Arial, sans-serif'" font-size="12" lengthAdjust="spacing" textLength="187.1191" x="176.5215" y="1815.3418">Repeat with doubled block size</text><text fill="#212529" font-family="'Segoe UI, Helvetica, Arial, sans-serif'" font-size="12" lengthAdjust="spacing" textLength="72.873" x="176.5215" y="1829.3105">for 4 passes</text><rect fill="#E9ECEF" height="3" rx="4" ry="4" style="stroke:#E9ECEF;stroke-width:1;" width="774.623" x="5" y="1874.125"/><line style="stroke:#000000;stroke-width:0.5;" x1="5" x2="779.623" y1="1874.125" y2="1874.125"/><line style="stroke:#000000;stroke-width:0.5;" x1="5" x2="779.623" y1="1877.125" y2="1877.125"/><rect fill="#E9ECEF" height="33.9688" rx="4" ry="4" style="stroke:#000000;stroke-width:1;" width="226.4375" x="279.0928" y="1858.1406"/><text fill="#000000" font-family="'Segoe UI, Helvetica, Arial, sans-serif'" font-size="12" font-weight="bold" lengthAdjust="spacing" textLength="196.2598" x="291.0928" y="1879.2793">Step 5: Privacy Amplification</text><g class="message" data-entity-1="part1" data-entity-2="part4" id="msg26"><polygon fill="#495057" points="671.9883,1930.0781,681.9883,1934.0781,671.9883,1938.0781,675.9883,1934.0781" style="stroke:#495057;stroke-width:1;"/><line style="stroke:#495057;stroke-width:1;" x1="73.9512" x2="677.9883" y1="1934.0781" y2="1934.0781"/><text fill="#000000" font-family="'Segoe UI, Helvetica, Arial, sans-serif'" font-size="12" lengthAdjust="spacing" textLength="176.4844" x="290.7275" y="1923.248">Random Toeplitz matrix seed</text></g><g class="message" data-entity-1="part4" data-entity-2="part3" id="msg27"><polygon fill="#495057" points="486.2539,1944.0781,476.2539,1948.0781,486.2539,1952.0781,482.2539,1948.0781" style="stroke:#495057;stroke-width:1;"/><line style="stroke:#495057;stroke-width:1;" x1="480.2539" x2="682.9883" y1="1948.0781" y2="1948.0781"/></g><g class="message" data-entity-1="part1" data-entity-2="part1" id="msg28"><line style="stroke:#495057;stroke-width:1;" x1="73.9512" x2="115.9512" y1="2002.0156" y2="2002.0156"/><line style="stroke:#495057;stroke-width:1;" x1="115.9512" x2="115.9512" y1="2002.0156" y2="2015.0156"/><line style="stroke:#495057;stroke-width:1;" x1="74.9512" x2="115.9512" y1="2015.0156" y2="2015.0156"/><polygon fill="#495057" points="84.9512,2011.0156,74.9512,2015.0156,84.9512,2019.0156,80.9512,2015.0156" style="stroke:#495057;stroke-width:1;"/><text fill="#000000" font-family="'Segoe UI, Helvetica, Arial, sans-serif'" font-size="12" lengthAdjust="spacing" textLength="116.7891" x="113.6377" y="1977.2168">Hash corrected key</text><text fill="#000000" font-family="'Segoe UI, Helvetica, Arial, sans-serif'" font-size="12" lengthAdjust="spacing" textLength="170.1621" x="86.9512" y="1991.1855">(removes Eve's information)</text></g><g class="message" data-entity-1="part3" data-entity-2="part3" id="msg29"><line style="stroke:#495057;stroke-width:1;" x1="475.2539" x2="517.2539" y1="2068.9531" y2="2068.9531"/><line style="stroke:#495057;stroke-width:1;" x1="517.2539" x2="517.2539" y1="2068.9531" y2="2081.9531"/><line style="stroke:#495057;stroke-width:1;" x1="476.2539" x2="517.2539" y1="2081.9531" y2="2081.9531"/><polygon fill="#495057" points="486.2539,2077.9531,476.2539,2081.9531,486.2539,2085.9531,482.2539,2081.9531" style="stroke:#495057;stroke-width:1;"/><text fill="#000000" font-family="'Segoe UI, Helvetica, Arial, sans-serif'" font-size="12" lengthAdjust="spacing" textLength="116.7891" x="497.9248" y="2044.1543">Hash corrected key</text><text fill="#000000" font-family="'Segoe UI, Helvetica, Arial, sans-serif'" font-size="12" lengthAdjust="spacing" textLength="136.1309" x="488.2539" y="2058.123">(same Toeplitz matrix)</text></g><path d="M25,2098.9531 L25,2139.9531 A4,4 0 0 0 29,2143.9531 L520,2143.9531 A4,4 0 0 0 524,2139.9531 L524,2104.9531 L514,2094.9531 L29,2094.9531 A4,4 0 0 0 25,2098.9531" fill="#ECFDF5" style="stroke:#FFECB5;stroke-width:1;"/><path d="M514,2094.9531 L514,2102.9531 A2,2 0 0 0 516,2104.9531 L524,2104.9531 L514,2094.9531" fill="#ECFDF5" style="stroke:#FFECB5;stroke-width:1;"/><text fill="#212529" font-family="'Segoe UI, Helvetica, Arial, sans-serif'" font-size="12" font-weight="bold" lengthAdjust="spacing" textLength="111.791" x="145.5137" y="2117.0918">Final shared key</text><text fill="#212529" font-family="'Segoe UI, Helvetica, Arial, sans-serif'" font-size="12" lengthAdjust="spacing" textLength="249.1348" x="145.5137" y="2131.0605">128 bits, information-theoretically secure</text><?plantuml-src VLNHRjj647pdLsm31nLbIR5I1mYCEe18AmaGjt4ajqK0lPp8LNW8TSVS7MKhHOi-jk_zd7v3Fo9VqhcZ94gEQyCmP6btkBCpE_f6ggoiSoRhrYKFgdfPHf6JhcHAakUdzAuMojLBUiDhkf3M6JcldTIAhensEjEeheHnCfCL2kdHg9GPprHdoYfd4pyYOMb4Hwycu_6FXvLRvBGGId69dfTolcrvbzBH-_7bvTjV3fiIFKVXX3EMgsrjGaV9vK_ZmyAq5DRAJ9Hx-AFQ5QnG8npdJM-Q-jb6xwFe_9ocZYiQdkquNnkXx5821tpFpwDeHFqNO7D6hrYn0GgX8jTBcajdP-hNanuDm-_9zkzWCFYjRKiBhMtR92pxhkCUtVQe-TkyQBkmXpCQgqn38VyGFtEbIs7aPywfAg210aRdzPEVQQ4D7NjKQNjqyMGKthXjteWZfVsuyaFXI2yQt2iDRbhrywskdCzKWqbLNM8wwlpx3ttvwqyw6GpZcRgHhg25Luc4SwnguQqGHK33h8c7R2OYOGm4GXLDhowYPFln_GlOyJu-MC2kwmSMjZPCBB9YmtccfAAi09Xg2BO2FZsZgLmugJu4pG9AwkbwIn8CzArjMdm_p6gZDDqArAdgEGnShcabhPoN73SojFt1t_-3a3o0uD7VCCRJ2fyjXSiAJDXlOBooBTs7oneXDTnFerwe__tPoMElQSwECsZO60KRMta9RBEBTZ_VmU39U49Zw-Go2DXwE_2Sy8fnDqEWMh6ia0G0zp0Rw9Rjdh1wYVDZ2WxHDsfp4QckSOmueS24xPuQ4wwqSM6KA19byufUq73uc3fZiMAR6rrLe7cnuHL7X9yMeTiT9MydrzqkVVdZR_g8WCemXT5u7EUXTYTi-6-d0t8i4oOFBHYCZHHbYvqyL75d-KUJyKNWOXt2XwfD9cukHV7DVa14Z9DgQ7xVq9no1b_7zoA7n0md4-ABeByDvJE5wCqOOZXDR0oEFDF6O4N-5k7HLkfJP4SeI7S5r4a5kEKStr4zANNsaI2YTD8V_XNoauRnGs9lYsSgaKgODGOK1YVgSoSCTgZtfnfhWY_d_Vd1izhx-zhRS0aZHC8wSutJyXuCtHO9E5F-KQT0iaYIblSp117oHsHh6i70Sk4Z_nwZDzfSQqQD--oLDl8MB62VblREDg-5BRQhvk0D1A_X9UQrD5xvL91-eEQeudPVzpRYjFZke-ElhdjdWsxt9NPSaYsm-O3HxSxKyEdpOAtU_fFx-9RJXlttN5ckDww9_WC0?></g></svg>