<?plantuml 1.2026.2?><svg xmlns="http://www.w3.org/2000/svg" xmlns:xlink="http://www.w3.org/1999/xlink" contentStyleType="text/css" data-diagram-type="SEQUENCE" height="2278px" preserveAspectRatio="none" style="width:1050px;height:2278px;" version="1.1" viewBox="0 0 1050 2278" width="1050px" zoomAndPan="magnify"><title>BB84 Eavesdropper Detection &amp; Key Redistribution</title><defs/><g><text fill="#000000" font-family="'Segoe UI, Helvetica, Arial, sans-serif'" font-size="22" font-weight="bold" lengthAdjust="spacing" textLength="637.0439" x="205.3228" y="41.4209">BB84 Eavesdropper Detection &amp; Key Redistribution</text><rect fill="#F8F9FA" height="532.5313" rx="4" ry="4" style="stroke:#ADB5BD;stroke-width:1;" width="995.0762" x="15" y="1514.3594"/><path d="M15,1786.1094 L1010.0762,1786.1094 L1010.0762,2042.8906 A4,4 0 0 1 1006.0762,2046.8906 L19,2046.8906 A4,4 0 0 1 15,2042.8906 L15,1786.1094" fill="#F8F9FA" style="stroke:none;stroke-width:1;"/><g class="participant-lifeline" data-entity-uid="part1" data-qualified-name="A" id="part1-lifeline"><g><title>Alice</title><rect fill="#000000" fill-opacity="0.00000" height="2101.1563" width="8" x="69.9512" y="118.5469"/><line style="stroke:#CED4DA;stroke-width:1;stroke-dasharray:5,5;" x1="73" x2="73" y1="118.5469" y2="2219.7031"/></g></g><g class="participant-lifeline" data-entity-uid="part2" data-qualified-name="E" id="part2-lifeline"><g><title>Eve</title><rect fill="#000000" fill-opacity="0.00000" height="2101.1563" width="8" x="257.9434" y="118.5469"/><line style="stroke:#CED4DA;stroke-width:1;stroke-dasharray:5,5;" x1="261.7041" x2="261.7041" y1="118.5469" y2="2219.7031"/></g></g><g class="participant-lifeline" data-entity-uid="part3" data-qualified-name="B" id="part3-lifeline"><g><title>Bob</title><rect fill="#000000" fill-opacity="0.00000" height="2101.1563" width="8" x="458.0664" y="118.5469"/><line style="stroke:#CED4DA;stroke-width:1;stroke-dasharray:5,5;" x1="461.1582" x2="461.1582" y1="118.5469" y2="2219.7031"/></g></g><g class="participant-lifeline" data-entity-uid="part4" data-qualified-name="M" id="part4-lifeline"><g><title>QBERMonitor</title><rect fill="#000000" fill-opacity="0.00000" height="2101.1563" width="8" x="651.8711" y="118.5469"/><line style="stroke:#CED4DA;stroke-width:1;stroke-dasharray:5,5;" x1="655.2646" x2="655.2646" y1="118.5469" y2="2219.7031"/></g></g><g class="participant-lifeline" data-entity-uid="part5" data-qualified-name="V" id="part5-lifeline"><g><title>Video Stream</title><rect fill="#000000" fill-opacity="0.00000" height="2101.1563" width="8" x="880.8574" y="118.5469"/><line style="stroke:#CED4DA;stroke-width:1;stroke-dasharray:5,5;" x1="884.167" x2="884.167" y1="118.5469" y2="2219.7031"/></g></g><g class="participant participant-head" data-entity-uid="part1" data-qualified-name="A" id="part1-head"><rect fill="#ECFDF5" height="53.9375" rx="4" ry="4" style="stroke:#ADB5BD;stroke-width:1;" width="77.9023" x="35" y="63.6094"/><text fill="#212529" font-family="'Segoe UI, Helvetica, Arial, sans-serif'" font-size="12" lengthAdjust="spacing" textLength="28.8574" x="59.5225" y="87.748">Alice</text><text fill="#212529" font-family="'Segoe UI, Helvetica, Arial, sans-serif'" font-size="12" lengthAdjust="spacing" textLength="51.9023" x="48" y="101.7168">(Sender)</text></g><g class="participant participant-tail" data-entity-uid="part1" data-qualified-name="A" id="part1-tail"><rect fill="#ECFDF5" height="53.9375" rx="4" ry="4" style="stroke:#ADB5BD;stroke-width:1;" width="77.9023" x="35" y="2218.7031"/><text fill="#212529" font-family="'Segoe UI, Helvetica, Arial, sans-serif'" font-size="12" lengthAdjust="spacing" textLength="28.8574" x="59.5225" y="2242.8418">Alice</text><text fill="#212529" font-family="'Segoe UI, Helvetica, Arial, sans-serif'" font-size="12" lengthAdjust="spacing" textLength="51.9023" x="48" y="2256.8105">(Sender)</text></g><g class="participant participant-head" data-entity-uid="part2" data-qualified-name="E" id="part2-head"><rect fill="#FEF2F2" height="53.9375" rx="4" ry="4" style="stroke:#ADB5BD;stroke-width:1;" width="118.4785" x="202.7041" y="63.6094"/><text fill="#212529" font-family="'Segoe UI, Helvetica, Arial, sans-serif'" font-size="12" lengthAdjust="spacing" textLength="22.0664" x="250.9102" y="87.748">Eve</text><text fill="#212529" font-family="'Segoe UI, Helvetica, Arial, sans-serif'" font-size="12" lengthAdjust="spacing" textLength="92.4785" x="215.7041" y="101.7168">(Eavesdropper)</text></g><g class="participant participant-tail" data-entity-uid="part2" data-qualified-name="E" id="part2-tail"><rect fill="#FEF2F2" height="53.9375" rx="4" ry="4" style="stroke:#ADB5BD;stroke-width:1;" width="118.4785" x="202.7041" y="2218.7031"/><text fill="#212529" font-family="'Segoe UI, Helvetica, Arial, sans-serif'" font-size="12" lengthAdjust="spacing" textLength="22.0664" x="250.9102" y="2242.8418">Eve</text><text fill="#212529" font-family="'Segoe UI, Helvetica, Arial, sans-serif'" font-size="12" lengthAdjust="spacing" textLength="92.4785" x="215.7041" y="2256.8105">(Eavesdropper)</text></g><g class="participant participant-head" data-entity-uid="part3" data-qualified-name="B" id="part3-head"><rect fill="#E8F4FD" height="53.9375" rx="4" ry="4" style="stroke:#ADB5BD;stroke-width:1;" width="87.8164" x="418.1582" y="63.6094"/><text fill="#212529" font-family="'Segoe UI, Helvetica, Arial, sans-serif'" font-size="12" lengthAdjust="spacing" textLength="23.1914" x="450.4707" y="87.748">Bob</text><text fill="#212529" font-family="'Segoe UI, Helvetica, Arial, sans-serif'" font-size="12" lengthAdjust="spacing" textLength="61.8164" x="431.1582" y="101.7168">(Receiver)</text></g><g class="participant participant-tail" data-entity-uid="part3" data-qualified-name="B" id="part3-tail"><rect fill="#E8F4FD" height="53.9375" rx="4" ry="4" style="stroke:#ADB5BD;stroke-width:1;" width="87.8164" x="418.1582" y="2218.7031"/><text fill="#212529" font-family="'Segoe UI, Helvetica, Arial, sans-serif'" font-size="12" lengthAdjust="spacing" textLength="23.1914" x="450.4707" y="2242.8418">Bob</text><text fill="#212529" font-family="'Segoe UI, Helvetica, Arial, sans-serif'" font-size="12" lengthAdjust="spacing" textLength="61.8164" x="431.1582" y="2256.8105">(Receiver)</text></g><g class="participant participant-head" data-entity-uid="part4" data-qualified-name="M" id="part4-head"><rect fill="#FFFBEB" height="39.9688" rx="4" ry="4" style="stroke:#ADB5BD;stroke-width:1;" width="105.2129" x="603.2646" y="77.5781"/><text fill="#212529" font-family="'Segoe UI, Helvetica, Arial, sans-serif'" font-size="12" lengthAdjust="spacing" textLength="79.2129" x="616.2646" y="101.7168">QBERMonitor</text></g><g class="participant participant-tail" data-entity-uid="part4" data-qualified-name="M" id="part4-tail"><rect fill="#FFFBEB" height="39.9688" rx="4" ry="4" style="stroke:#ADB5BD;stroke-width:1;" width="105.2129" x="603.2646" y="2218.7031"/><text fill="#212529" font-family="'Segoe UI, Helvetica, Arial, sans-serif'" font-size="12" lengthAdjust="spacing" textLength="79.2129" x="616.2646" y="2242.8418">QBERMonitor</text></g><g class="participant participant-head" data-entity-uid="part5" data-qualified-name="V" id="part5-head"><rect fill="#F3F4F6" height="39.9688" rx="4" ry="4" style="stroke:#ADB5BD;stroke-width:1;" width="107.3809" x="831.167" y="77.5781"/><text fill="#212529" font-family="'Segoe UI, Helvetica, Arial, sans-serif'" font-size="12" lengthAdjust="spacing" textLength="81.3809" x="844.167" y="101.7168">Video Stream</text></g><g class="participant participant-tail" data-entity-uid="part5" data-qualified-name="V" id="part5-tail"><rect fill="#F3F4F6" height="39.9688" rx="4" ry="4" style="stroke:#ADB5BD;stroke-width:1;" width="107.3809" x="831.167" y="2218.7031"/><text fill="#212529" font-family="'Segoe UI, Helvetica, Arial, sans-serif'" font-size="12" lengthAdjust="spacing" textLength="81.3809" x="844.167" y="2242.8418">Video Stream</text></g><rect fill="#E9ECEF" height="3" rx="4" ry="4" style="stroke:#E9ECEF;stroke-width:1;" width="1038.6895" x="5" y="154.5313"/><line style="stroke:#000000;stroke-width:0.5;" x1="5" x2="1043.6895" y1="154.5313" y2="154.5313"/><line style="stroke:#000000;stroke-width:0.5;" x1="5" x2="1043.6895" y1="157.5313" y2="157.5313"/><rect fill="#E9ECEF" height="33.9688" rx="4" ry="4" style="stroke:#000000;stroke-width:1;" width="281.8555" x="383.417" y="138.5469"/><text fill="#000000" font-family="'Segoe UI, Helvetica, Arial, sans-serif'" font-size="12" font-weight="bold" lengthAdjust="spacing" textLength="251.6777" x="395.417" y="159.6855">Normal Operation (No Eavesdropper)</text><g class="message" data-entity-1="part1" data-entity-2="part3" id="msg1"><polygon fill="#495057" points="450.0664,224.4531,460.0664,228.4531,450.0664,232.4531,454.0664,228.4531" style="stroke:#495057;stroke-width:1;"/><line style="stroke:#495057;stroke-width:1;" x1="73.9512" x2="456.0664" y1="228.4531" y2="228.4531"/><text fill="#000000" font-family="'Segoe UI, Helvetica, Arial, sans-serif'" font-size="12" lengthAdjust="spacing" textLength="143.7188" x="196.1494" y="203.6543">Quantum key exchange</text><text fill="#000000" font-family="'Segoe UI, Helvetica, Arial, sans-serif'" font-size="12" lengthAdjust="spacing" textLength="91.6465" x="222.1855" y="217.623">(QBER &#8776; 2-4%)</text></g><g class="message" data-entity-1="part4" data-entity-2="part4" id="msg2"><line style="stroke:#495057;stroke-width:1;" x1="655.8711" x2="697.8711" y1="268.4219" y2="268.4219"/><line style="stroke:#495057;stroke-width:1;" x1="697.8711" x2="697.8711" y1="268.4219" y2="281.4219"/><line style="stroke:#495057;stroke-width:1;" x1="656.8711" x2="697.8711" y1="281.4219" y2="281.4219"/><polygon fill="#495057" points="666.8711,277.4219,656.8711,281.4219,666.8711,285.4219,662.8711,281.4219" style="stroke:#495057;stroke-width:1;"/><text fill="#000000" font-family="'Segoe UI, Helvetica, Arial, sans-serif'" font-size="12" lengthAdjust="spacing" textLength="139.4883" x="668.8711" y="257.5918">Record QBER: NORMAL</text></g><g class="message" data-entity-1="part5" data-entity-2="part5" id="msg3"><line style="stroke:#495057;stroke-width:1;" x1="884.8574" x2="926.8574" y1="335.3594" y2="335.3594"/><line style="stroke:#495057;stroke-width:1;" x1="926.8574" x2="926.8574" y1="335.3594" y2="348.3594"/><line style="stroke:#495057;stroke-width:1;" x1="885.8574" x2="926.8574" y1="348.3594" y2="348.3594"/><polygon fill="#495057" points="895.8574,344.3594,885.8574,348.3594,895.8574,352.3594,891.8574,348.3594" style="stroke:#495057;stroke-width:1;"/><text fill="#000000" font-family="'Segoe UI, Helvetica, Arial, sans-serif'" font-size="12" lengthAdjust="spacing" textLength="127.916" x="900.3154" y="310.5605">Video encrypted with</text><text fill="#000000" font-family="'Segoe UI, Helvetica, Arial, sans-serif'" font-size="12" lengthAdjust="spacing" textLength="132.832" x="897.8574" y="324.5293">current key (AES-128)</text></g><path d="M20,365.3594 L20,406.3594 A4,4 0 0 0 24,410.3594 L934,410.3594 A4,4 0 0 0 938,406.3594 L938,371.3594 L928,361.3594 L24,361.3594 A4,4 0 0 0 20,365.3594" fill="#ECFDF5" style="stroke:#FFECB5;stroke-width:1;"/><path d="M928,361.3594 L928,369.3594 A2,2 0 0 0 930,371.3594 L938,371.3594 L928,361.3594" fill="#ECFDF5" style="stroke:#FFECB5;stroke-width:1;"/><text fill="#212529" font-family="'Segoe UI, Helvetica, Arial, sans-serif'" font-size="12" lengthAdjust="spacing" textLength="170.8711" x="383.2856" y="383.498">Key rotates every 3 seconds</text><text fill="#212529" font-family="'Segoe UI, Helvetica, Arial, sans-serif'" font-size="12" lengthAdjust="spacing" textLength="182.9766" x="383.2856" y="397.4668">Video continues uninterrupted</text><rect fill="#E9ECEF" height="3" rx="4" ry="4" style="stroke:#E9ECEF;stroke-width:1;" width="1038.6895" x="5" y="442.2813"/><line style="stroke:#000000;stroke-width:0.5;" x1="5" x2="1043.6895" y1="442.2813" y2="442.2813"/><line style="stroke:#000000;stroke-width:0.5;" x1="5" x2="1043.6895" y1="445.2813" y2="445.2813"/><rect fill="#E9ECEF" height="33.9688" rx="4" ry="4" style="stroke:#000000;stroke-width:1;" width="273.6465" x="387.5215" y="426.2969"/><text fill="#000000" font-family="'Segoe UI, Helvetica, Arial, sans-serif'" font-size="12" font-weight="bold" lengthAdjust="spacing" textLength="243.4688" x="399.5215" y="447.4355">Eve Begins Intercept-Resend Attack</text><g class="message" data-entity-1="part1" data-entity-2="part2" id="msg4"><polygon fill="#DC2626" points="249.9434,512.2031,259.9434,516.2031,249.9434,520.2031,253.9434,516.2031" style="stroke:#DC2626;stroke-width:1;"/><line style="stroke:#DC2626;stroke-width:1;" x1="73.9512" x2="255.9434" y1="516.2031" y2="516.2031"/><text fill="#000000" font-family="'Segoe UI, Helvetica, Arial, sans-serif'" font-size="12" lengthAdjust="spacing" textLength="113.8125" x="111.041" y="491.4043">Alice sends photon</text><text fill="#000000" font-family="'Segoe UI, Helvetica, Arial, sans-serif'" font-size="12" lengthAdjust="spacing" textLength="124.1543" x="105.8701" y="505.373">(encoded in basis +)</text></g><g class="message" data-entity-1="part2" data-entity-2="part2" id="msg5"><line style="stroke:#495057;stroke-width:1;" x1="261.9434" x2="303.9434" y1="570.1406" y2="570.1406"/><line style="stroke:#495057;stroke-width:1;" x1="303.9434" x2="303.9434" y1="570.1406" y2="583.1406"/><line style="stroke:#495057;stroke-width:1;" x1="262.9434" x2="303.9434" y1="583.1406" y2="583.1406"/><polygon fill="#495057" points="272.9434,579.1406,262.9434,583.1406,272.9434,587.1406,268.9434,583.1406" style="stroke:#495057;stroke-width:1;"/><text fill="#000000" font-family="'Segoe UI, Helvetica, Arial, sans-serif'" font-size="12" lengthAdjust="spacing" textLength="150.9961" x="286.5068" y="545.3418">Measure in random basis</text><text fill="#000000" font-family="'Segoe UI, Helvetica, Arial, sans-serif'" font-size="12" lengthAdjust="spacing" textLength="174.123" x="274.9434" y="559.3105">(50% chance of wrong basis)</text></g><g class="message" data-entity-1="part2" data-entity-2="part3" id="msg6"><polygon fill="#DC2626" points="450.0664,633.0781,460.0664,637.0781,450.0664,641.0781,454.0664,637.0781" style="stroke:#DC2626;stroke-width:1;"/><line style="stroke:#DC2626;stroke-width:1;" x1="261.9434" x2="456.0664" y1="637.0781" y2="637.0781"/><text fill="#000000" font-family="'Segoe UI, Helvetica, Arial, sans-serif'" font-size="12" lengthAdjust="spacing" textLength="94.9395" x="314.5352" y="612.2793">Re-send photon</text><text fill="#000000" font-family="'Segoe UI, Helvetica, Arial, sans-serif'" font-size="12" lengthAdjust="spacing" textLength="144.416" x="289.7969" y="626.248">(may be in wrong state)</text></g><path d="M140,654.0781 L140,695.0781 A4,4 0 0 0 144,699.0781 L379,699.0781 A4,4 0 0 0 383,695.0781 L383,660.0781 L373,650.0781 L144,650.0781 A4,4 0 0 0 140,654.0781" fill="#FEF2F2" style="stroke:#FFECB5;stroke-width:1;"/><path d="M373,650.0781 L373,658.0781 A2,2 0 0 0 375,660.0781 L383,660.0781 L373,650.0781" fill="#FEF2F2" style="stroke:#FFECB5;stroke-width:1;"/><text fill="#212529" font-family="'Segoe UI, Helvetica, Arial, sans-serif'" font-size="12" lengthAdjust="spacing" textLength="199.2715" x="152" y="672.2168">When Eve's basis &#8800; Alice's basis:</text><text fill="#212529" font-family="'Segoe UI, Helvetica, Arial, sans-serif'" font-size="12" lengthAdjust="spacing" textLength="210.5391" x="152" y="686.1855">Bob gets random bit &#8594; ~25% error</text><rect fill="#E9ECEF" height="3" rx="4" ry="4" style="stroke:#E9ECEF;stroke-width:1;" width="1038.6895" x="5" y="731"/><line style="stroke:#000000;stroke-width:0.5;" x1="5" x2="1043.6895" y1="731" y2="731"/><line style="stroke:#000000;stroke-width:0.5;" x1="5" x2="1043.6895" y1="734" y2="734"/><rect fill="#E9ECEF" height="33.9688" rx="4" ry="4" style="stroke:#000000;stroke-width:1;" width="106.918" x="470.8857" y="715.0156"/><text fill="#000000" font-family="'Segoe UI, Helvetica, Arial, sans-serif'" font-size="12" font-weight="bold" lengthAdjust="spacing" textLength="76.7402" x="482.8857" y="736.1543">QBER Rises</text><g class="message" data-entity-1="part3" data-entity-2="part4" id="msg7"><polygon fill="#495057" points="643.8711,786.9531,653.8711,790.9531,643.8711,794.9531,647.8711,790.9531" style="stroke:#495057;stroke-width:1;"/><line style="stroke:#495057;stroke-width:1;" x1="462.0664" x2="649.8711" y1="790.9531" y2="790.9531"/><text fill="#000000" font-family="'Segoe UI, Helvetica, Arial, sans-serif'" font-size="12" lengthAdjust="spacing" textLength="112.3066" x="502.8154" y="780.123">Report QBER: 0.08</text></g><g class="message" data-entity-1="part4" data-entity-2="part4" id="msg8"><line style="stroke:#495057;stroke-width:1;" x1="655.8711" x2="697.8711" y1="830.9219" y2="830.9219"/><line style="stroke:#495057;stroke-width:1;" x1="697.8711" x2="697.8711" y1="830.9219" y2="843.9219"/><line style="stroke:#495057;stroke-width:1;" x1="656.8711" x2="697.8711" y1="843.9219" y2="843.9219"/><polygon fill="#495057" points="666.8711,839.9219,656.8711,843.9219,666.8711,847.9219,662.8711,843.9219" style="stroke:#495057;stroke-width:1;"/><text fill="#000000" font-family="'Segoe UI, Helvetica, Arial, sans-serif'" font-size="12" lengthAdjust="spacing" textLength="50.2734" x="668.8711" y="820.0918">Classify:</text><text fill="#000000" font-family="'Segoe UI, Helvetica, Arial, sans-serif'" font-size="12" font-weight="bold" lengthAdjust="spacing" textLength="66.1641" x="722.959" y="820.0918">WARNING</text></g><g class="message" data-entity-1="part4" data-entity-2="part5" id="msg9"><polygon fill="#495057" points="872.8574,893.8594,882.8574,897.8594,872.8574,901.8594,876.8574,897.8594" style="stroke:#495057;stroke-width:1;"/><line style="stroke:#495057;stroke-width:1;" x1="655.8711" x2="878.8574" y1="897.8594" y2="897.8594"/><text fill="#000000" font-family="'Segoe UI, Helvetica, Arial, sans-serif'" font-size="12" lengthAdjust="spacing" textLength="117.3809" x="711.6738" y="873.0605">Emit warning event</text><text fill="#000000" font-family="'Segoe UI, Helvetica, Arial, sans-serif'" font-size="12" lengthAdjust="spacing" textLength="104.3086" x="718.21" y="887.0293">(yellow indicator)</text></g><g class="message" data-entity-1="part3" data-entity-2="part4" id="msg10"><polygon fill="#495057" points="643.8711,933.8281,653.8711,937.8281,643.8711,941.8281,647.8711,937.8281" style="stroke:#495057;stroke-width:1;"/><line style="stroke:#495057;stroke-width:1;" x1="462.0664" x2="649.8711" y1="937.8281" y2="937.8281"/><text fill="#000000" font-family="'Segoe UI, Helvetica, Arial, sans-serif'" font-size="12" lengthAdjust="spacing" textLength="112.3066" x="502.8154" y="926.998">Report QBER: 0.15</text></g><g class="message" data-entity-1="part4" data-entity-2="part4" id="msg11"><line style="stroke:#495057;stroke-width:1;" x1="655.8711" x2="697.8711" y1="977.7969" y2="977.7969"/><line style="stroke:#495057;stroke-width:1;" x1="697.8711" x2="697.8711" y1="977.7969" y2="990.7969"/><line style="stroke:#495057;stroke-width:1;" x1="656.8711" x2="697.8711" y1="990.7969" y2="990.7969"/><polygon fill="#495057" points="666.8711,986.7969,656.8711,990.7969,666.8711,994.7969,662.8711,990.7969" style="stroke:#495057;stroke-width:1;"/><text fill="#000000" font-family="'Segoe UI, Helvetica, Arial, sans-serif'" font-size="12" lengthAdjust="spacing" textLength="50.2734" x="668.8711" y="966.9668">Classify:</text><text fill="#000000" font-family="'Segoe UI, Helvetica, Arial, sans-serif'" font-size="12" font-weight="bold" lengthAdjust="spacing" textLength="66.1641" x="722.959" y="966.9668">WARNING</text></g><g class="message" data-entity-1="part3" data-entity-2="part4" id="msg12"><polygon fill="#495057" points="643.8711,1026.7656,653.8711,1030.7656,643.8711,1034.7656,647.8711,1030.7656" style="stroke:#495057;stroke-width:1;"/><line style="stroke:#495057;stroke-width:1;" x1="462.0664" x2="649.8711" y1="1030.7656" y2="1030.7656"/><text fill="#000000" font-family="'Segoe UI, Helvetica, Arial, sans-serif'" font-size="12" lengthAdjust="spacing" textLength="112.3066" x="502.8154" y="1019.9355">Report QBER: 0.24</text></g><g class="message" data-entity-1="part4" data-entity-2="part4" id="msg13"><line style="stroke:#DC2626;stroke-width:1;" x1="655.8711" x2="697.8711" y1="1084.7031" y2="1084.7031"/><line style="stroke:#DC2626;stroke-width:1;" x1="697.8711" x2="697.8711" y1="1084.7031" y2="1097.7031"/><line style="stroke:#DC2626;stroke-width:1;" x1="656.8711" x2="697.8711" y1="1097.7031" y2="1097.7031"/><polygon fill="#DC2626" points="666.8711,1093.7031,656.8711,1097.7031,666.8711,1101.7031,662.8711,1097.7031" style="stroke:#DC2626;stroke-width:1;"/><text fill="#000000" font-family="'Segoe UI, Helvetica, Arial, sans-serif'" font-size="12" lengthAdjust="spacing" textLength="50.2734" x="668.8711" y="1059.9043">Classify:</text><text fill="#000000" font-family="'Segoe UI, Helvetica, Arial, sans-serif'" font-size="12" font-weight="bold" lengthAdjust="spacing" textLength="148.8984" x="722.959" y="1059.9043">INTRUSION DETECTED</text><text fill="#000000" font-family="'Segoe UI, Helvetica, Arial, sans-serif'" font-size="12" lengthAdjust="spacing" textLength="187.7578" x="676.4854" y="1073.873">QBER (24%) &gt; threshold (11%)</text></g><rect fill="#E9ECEF" height="3" rx="4" ry="4" style="stroke:#E9ECEF;stroke-width:1;" width="1038.6895" x="5" y="1131.6875"/><line style="stroke:#000000;stroke-width:0.5;" x1="5" x2="1043.6895" y1="1131.6875" y2="1131.6875"/><line style="stroke:#000000;stroke-width:0.5;" x1="5" x2="1043.6895" y1="1134.6875" y2="1134.6875"/><rect fill="#E9ECEF" height="33.9688" rx="4" ry="4" style="stroke:#000000;stroke-width:1;" width="122.9961" x="462.8467" y="1115.7031"/><text fill="#000000" font-family="'Segoe UI, Helvetica, Arial, sans-serif'" font-size="12" font-weight="bold" lengthAdjust="spacing" textLength="92.8184" x="474.8467" y="1136.8418">Key Rejection</text><g class="message" data-entity-1="part4" data-entity-2="part5" id="msg14"><polygon fill="#DC2626" points="872.8574,1187.6406,882.8574,1191.6406,872.8574,1195.6406,876.8574,1191.6406" style="stroke:#DC2626;stroke-width:1;"/><line style="stroke:#DC2626;stroke-width:1;" x1="655.8711" x2="878.8574" y1="1191.6406" y2="1191.6406"/><text fill="#000000" font-family="'Segoe UI, Helvetica, Arial, sans-serif'" font-size="12" lengthAdjust="spacing" textLength="181.2246" x="679.752" y="1180.8105">Emit intrusion_detected event</text></g><path d="M787,1208.6406 L787,1249.6406 A4,4 0 0 0 791,1253.6406 L977,1253.6406 A4,4 0 0 0 981,1249.6406 L981,1214.6406 L971,1204.6406 L791,1204.6406 A4,4 0 0 0 787,1208.6406" fill="#FFFBEB" style="stroke:#FFECB5;stroke-width:1;"/><path d="M971,1204.6406 L971,1212.6406 A2,2 0 0 0 973,1214.6406 L981,1214.6406 L971,1204.6406" fill="#FFFBEB" style="stroke:#FFECB5;stroke-width:1;"/><text fill="#212529" font-family="'Segoe UI, Helvetica, Arial, sans-serif'" font-size="12" lengthAdjust="spacing" textLength="161.666" x="799" y="1226.7793">Dashboard shows red alert</text><text fill="#212529" font-family="'Segoe UI, Helvetica, Arial, sans-serif'" font-size="12" lengthAdjust="spacing" textLength="110.209" x="799" y="1240.748">QBER chart spikes</text><g class="message" data-entity-1="part4" data-entity-2="part1" id="msg15"><polygon fill="#495057" points="84.9512,1287.5469,74.9512,1291.5469,84.9512,1295.5469,80.9512,1291.5469" style="stroke:#495057;stroke-width:1;"/><line style="stroke:#495057;stroke-width:1;" x1="78.9512" x2="654.8711" y1="1291.5469" y2="1291.5469"/><text fill="#000000" font-family="'Segoe UI, Helvetica, Arial, sans-serif'" font-size="12" font-weight="bold" lengthAdjust="spacing" textLength="46.0605" x="286.0088" y="1280.7168">ABORT</text><text fill="#000000" font-family="'Segoe UI, Helvetica, Arial, sans-serif'" font-size="12" lengthAdjust="spacing" textLength="107.9297" x="335.8838" y="1280.7168">current key round</text></g><g class="message" data-entity-1="part4" data-entity-2="part3" id="msg16"><polygon fill="#495057" points="473.0664,1327.5156,463.0664,1331.5156,473.0664,1335.5156,469.0664,1331.5156" style="stroke:#495057;stroke-width:1;"/><line style="stroke:#495057;stroke-width:1;" x1="467.0664" x2="654.8711" y1="1331.5156" y2="1331.5156"/><text fill="#000000" font-family="'Segoe UI, Helvetica, Arial, sans-serif'" font-size="12" font-weight="bold" lengthAdjust="spacing" textLength="46.0605" x="480.0664" y="1320.6855">ABORT</text><text fill="#000000" font-family="'Segoe UI, Helvetica, Arial, sans-serif'" font-size="12" lengthAdjust="spacing" textLength="107.9297" x="529.9414" y="1320.6855">current key round</text></g><path d="M25,1348.5156 L25,1389.5156 A4,4 0 0 0 29,1393.5156 L506,1393.5156 A4,4 0 0 0 510,1389.5156 L510,1354.5156 L500,1344.5156 L29,1344.5156 A4,4 0 0 0 25,1348.5156" fill="#FEF2F2" style="stroke:#FFECB5;stroke-width:1;"/><path d="M500,1344.5156 L500,1352.5156 A2,2 0 0 0 502,1354.5156 L510,1354.5156 L500,1344.5156" fill="#FEF2F2" style="stroke:#FFECB5;stroke-width:1;"/><text fill="#212529" font-family="'Segoe UI, Helvetica, Arial, sans-serif'" font-size="12" lengthAdjust="spacing" textLength="138.7734" x="194.1006" y="1366.6543">Key material discarded</text><text fill="#212529" font-family="'Segoe UI, Helvetica, Arial, sans-serif'" font-size="12" lengthAdjust="spacing" textLength="137.8184" x="194.1006" y="1380.623">Old key remains in use</text><rect fill="#E9ECEF" height="3" rx="4" ry="4" style="stroke:#E9ECEF;stroke-width:1;" width="1038.6895" x="5" y="1425.4375"/><line style="stroke:#000000;stroke-width:0.5;" x1="5" x2="1043.6895" y1="1425.4375" y2="1425.4375"/><line style="stroke:#000000;stroke-width:0.5;" x1="5" x2="1043.6895" y1="1428.4375" y2="1428.4375"/><rect fill="#E9ECEF" height="33.9688" rx="4" ry="4" style="stroke:#000000;stroke-width:1;" width="172.5957" x="438.0469" y="1409.4531"/><text fill="#000000" font-family="'Segoe UI, Helvetica, Arial, sans-serif'" font-size="12" font-weight="bold" lengthAdjust="spacing" textLength="142.418" x="450.0469" y="1430.5918">Automatic Re-Keying</text><g class="message" data-entity-1="part1" data-entity-2="part3" id="msg17"><polygon fill="#495057" points="450.0664,1495.3594,460.0664,1499.3594,450.0664,1503.3594,454.0664,1499.3594" style="stroke:#495057;stroke-width:1;"/><line style="stroke:#495057;stroke-width:1;" x1="73.9512" x2="456.0664" y1="1499.3594" y2="1499.3594"/><text fill="#000000" font-family="'Segoe UI, Helvetica, Arial, sans-serif'" font-size="12" lengthAdjust="spacing" textLength="120.1699" x="207.9238" y="1474.5605">Retry key exchange</text><text fill="#000000" font-family="'Segoe UI, Helvetica, Arial, sans-serif'" font-size="12" lengthAdjust="spacing" textLength="117.1348" x="209.4414" y="1488.5293">(0.5s retry interval)</text></g><path d="M19,1514.3594 L89.9473,1514.3594 L89.9473,1532.3281 L79.9473,1542.3281 L15,1542.3281 L15,1518.3594 A4,4 0 0 1 19,1514.3594" fill="#F8F9FA" style="stroke:#000000;stroke-width:1;"/><rect fill="none" height="532.5313" rx="4" ry="4" style="stroke:#ADB5BD;stroke-width:1;" width="995.0762" x="15" y="1514.3594"/><text fill="#000000" font-family="'Segoe UI, Helvetica, Arial, sans-serif'" font-size="12" font-weight="bold" lengthAdjust="spacing" textLength="17.9473" x="36" y="1532.498">alt</text><text fill="#000000" font-family="'Segoe UI, Helvetica, Arial, sans-serif'" font-size="12" font-weight="bold" lengthAdjust="spacing" textLength="122.6133" x="110.9473" y="1533.498">[Eve Still Present]</text><g class="message" data-entity-1="part1" data-entity-2="part2" id="msg18"><polygon fill="#DC2626" points="249.9434,1581.2656,259.9434,1585.2656,249.9434,1589.2656,253.9434,1585.2656" style="stroke:#DC2626;stroke-width:1;"/><line style="stroke:#DC2626;stroke-width:1;" x1="73.9512" x2="255.9434" y1="1585.2656" y2="1585.2656"/><text fill="#000000" font-family="'Segoe UI, Helvetica, Arial, sans-serif'" font-size="12" lengthAdjust="spacing" textLength="151.9922" x="91.9512" y="1574.4355">Photon intercepted again</text></g><g class="message" data-entity-1="part2" data-entity-2="part3" id="msg19"><polygon fill="#DC2626" points="450.0664,1621.2344,460.0664,1625.2344,450.0664,1629.2344,454.0664,1625.2344" style="stroke:#DC2626;stroke-width:1;"/><line style="stroke:#DC2626;stroke-width:1;" x1="261.9434" x2="456.0664" y1="1625.2344" y2="1625.2344"/><text fill="#000000" font-family="'Segoe UI, Helvetica, Arial, sans-serif'" font-size="12" lengthAdjust="spacing" textLength="45.9961" x="339.0068" y="1614.4043">Re-sent</text></g><g class="message" data-entity-1="part3" data-entity-2="part4" id="msg20"><polygon fill="#495057" points="643.8711,1661.2031,653.8711,1665.2031,643.8711,1669.2031,647.8711,1665.2031" style="stroke:#495057;stroke-width:1;"/><line style="stroke:#495057;stroke-width:1;" x1="462.0664" x2="649.8711" y1="1665.2031" y2="1665.2031"/><text fill="#000000" font-family="'Segoe UI, Helvetica, Arial, sans-serif'" font-size="12" lengthAdjust="spacing" textLength="102.7266" x="507.6055" y="1654.373">QBER still &gt; 11%</text></g><g class="message" data-entity-1="part4" data-entity-2="part4" id="msg21"><line style="stroke:#495057;stroke-width:1;" x1="655.8711" x2="697.8711" y1="1705.1719" y2="1705.1719"/><line style="stroke:#495057;stroke-width:1;" x1="697.8711" x2="697.8711" y1="1705.1719" y2="1718.1719"/><line style="stroke:#495057;stroke-width:1;" x1="656.8711" x2="697.8711" y1="1718.1719" y2="1718.1719"/><polygon fill="#495057" points="666.8711,1714.1719,656.8711,1718.1719,666.8711,1722.1719,662.8711,1718.1719" style="stroke:#495057;stroke-width:1;"/><text fill="#000000" font-family="'Segoe UI, Helvetica, Arial, sans-serif'" font-size="12" font-weight="bold" lengthAdjust="spacing" textLength="46.0605" x="668.8711" y="1694.3418">ABORT</text><text fill="#000000" font-family="'Segoe UI, Helvetica, Arial, sans-serif'" font-size="12" lengthAdjust="spacing" textLength="33.2637" x="718.7461" y="1694.3418">again</text></g><path d="M554,1735.1719 L554,1776.1719 A4,4 0 0 0 558,1780.1719 L753,1780.1719 A4,4 0 0 0 757,1776.1719 L757,1741.1719 L747,1731.1719 L558,1731.1719 A4,4 0 0 0 554,1735.1719" fill="#FFF3CD" style="stroke:#FFECB5;stroke-width:1;"/><path d="M747,1731.1719 L747,1739.1719 A2,2 0 0 0 749,1741.1719 L757,1741.1719 L747,1731.1719" fill="#FFF3CD" style="stroke:#FFECB5;stroke-width:1;"/><text fill="#212529" font-family="'Segoe UI, Helvetica, Arial, sans-serif'" font-size="12" lengthAdjust="spacing" textLength="166.6465" x="566" y="1753.3105">Consecutive failures logged</text><text fill="#212529" font-family="'Segoe UI, Helvetica, Arial, sans-serif'" font-size="12" lengthAdjust="spacing" textLength="170.6426" x="566" y="1767.2793">Intrusion count incremented</text><line style="stroke:#ADB5BD;stroke-width:1;stroke-dasharray:2,2;" x1="15" x2="1010.0762" y1="1787.1094" y2="1787.1094"/><text fill="#000000" font-family="'Segoe UI, Helvetica, Arial, sans-serif'" font-size="12" font-weight="bold" lengthAdjust="spacing" textLength="153.0762" x="26" y="1804.248">[Eve Removed / Stops]</text><g class="message" data-entity-1="part1" data-entity-2="part3" id="msg22"><polygon fill="#495057" points="450.0664,1842.0469,460.0664,1846.0469,450.0664,1850.0469,454.0664,1846.0469" style="stroke:#495057;stroke-width:1;"/><line style="stroke:#495057;stroke-width:1;" x1="73.9512" x2="456.0664" y1="1846.0469" y2="1846.0469"/><text fill="#000000" font-family="'Segoe UI, Helvetica, Arial, sans-serif'" font-size="12" lengthAdjust="spacing" textLength="143.3496" x="196.334" y="1835.2168">Clean quantum channel</text></g><g class="message" data-entity-1="part3" data-entity-2="part4" id="msg23"><polygon fill="#495057" points="643.8711,1882.0156,653.8711,1886.0156,643.8711,1890.0156,647.8711,1886.0156" style="stroke:#495057;stroke-width:1;"/><line style="stroke:#495057;stroke-width:1;" x1="462.0664" x2="649.8711" y1="1886.0156" y2="1886.0156"/><text fill="#000000" font-family="'Segoe UI, Helvetica, Arial, sans-serif'" font-size="12" lengthAdjust="spacing" textLength="68.1738" x="524.8818" y="1875.1855">QBER: 0.03</text></g><g class="message" data-entity-1="part4" data-entity-2="part4" id="msg24"><line style="stroke:#495057;stroke-width:1;" x1="655.8711" x2="697.8711" y1="1925.9844" y2="1925.9844"/><line style="stroke:#495057;stroke-width:1;" x1="697.8711" x2="697.8711" y1="1925.9844" y2="1938.9844"/><line style="stroke:#495057;stroke-width:1;" x1="656.8711" x2="697.8711" y1="1938.9844" y2="1938.9844"/><polygon fill="#495057" points="666.8711,1934.9844,656.8711,1938.9844,666.8711,1942.9844,662.8711,1938.9844" style="stroke:#495057;stroke-width:1;"/><text fill="#000000" font-family="'Segoe UI, Helvetica, Arial, sans-serif'" font-size="12" lengthAdjust="spacing" textLength="106.0957" x="668.8711" y="1915.1543">Classify: NORMAL</text></g><g class="message" data-entity-1="part4" data-entity-2="part5" id="msg25"><polygon fill="#495057" points="872.8574,1974.9531,882.8574,1978.9531,872.8574,1982.9531,876.8574,1978.9531" style="stroke:#495057;stroke-width:1;"/><line style="stroke:#495057;stroke-width:1;" x1="655.8711" x2="878.8574" y1="1978.9531" y2="1978.9531"/><text fill="#000000" font-family="'Segoe UI, Helvetica, Arial, sans-serif'" font-size="12" lengthAdjust="spacing" textLength="135.9785" x="702.375" y="1968.123">Emit key_redistributed</text></g><path d="M769,1995.9531 L769,2036.9531 A4,4 0 0 0 773,2040.9531 L996,2040.9531 A4,4 0 0 0 1000,2036.9531 L1000,2001.9531 L990,1991.9531 L773,1991.9531 A4,4 0 0 0 769,1995.9531" fill="#ECFDF5" style="stroke:#FFECB5;stroke-width:1;"/><path d="M990,1991.9531 L990,1999.9531 A2,2 0 0 0 992,2001.9531 L1000,2001.9531 L990,1991.9531" fill="#ECFDF5" style="stroke:#FFECB5;stroke-width:1;"/><text fill="#212529" font-family="'Segoe UI, Helvetica, Arial, sans-serif'" font-size="12" lengthAdjust="spacing" textLength="167.1445" x="781" y="2014.0918">Dashboard returns to green</text><text fill="#212529" font-family="'Segoe UI, Helvetica, Arial, sans-serif'" font-size="12" lengthAdjust="spacing" textLength="198.0762" x="781" y="2028.0605">New key applied to video stream</text><rect fill="#E9ECEF" height="3" rx="4" ry="4" style="stroke:#E9ECEF;stroke-width:1;" width="1038.6895" x="5" y="2079.875"/><line style="stroke:#000000;stroke-width:0.5;" x1="5" x2="1043.6895" y1="2079.875" y2="2079.875"/><line style="stroke:#000000;stroke-width:0.5;" x1="5" x2="1043.6895" y1="2082.875" y2="2082.875"/><rect fill="#E9ECEF" height="33.9688" rx="4" ry="4" style="stroke:#000000;stroke-width:1;" width="196.1445" x="426.2725" y="2063.8906"/><text fill="#000000" font-family="'Segoe UI, Helvetica, Arial, sans-serif'" font-size="12" font-weight="bold" lengthAdjust="spacing" textLength="165.9668" x="438.2725" y="2085.0293">Video Stream Continuity</text><path d="M758,2116.8594 L758,2199.8594 A4,4 0 0 0 762,2203.8594 L1007,2203.8594 A4,4 0 0 0 1011,2199.8594 L1011,2122.8594 L1001,2112.8594 L762,2112.8594 A4,4 0 0 0 758,2116.8594" fill="#ECFDF5" style="stroke:#FFECB5;stroke-width:1;"/><path d="M1001,2112.8594 L1001,2120.8594 A2,2 0 0 0 1003,2122.8594 L1011,2122.8594 L1001,2112.8594" fill="#ECFDF5" style="stroke:#FFECB5;stroke-width:1;"/><text fill="#212529" font-family="'Segoe UI, Helvetica, Arial, sans-serif'" font-size="12" lengthAdjust="spacing" textLength="191.7656" x="770" y="2134.998">Throughout the intrusion event:</text><text fill="#212529" font-family="'Segoe UI, Helvetica, Arial, sans-serif'" font-size="12" lengthAdjust="spacing" textLength="165.1113" x="770" y="2148.9668">&#8226; Video stream never stops</text><text fill="#212529" font-family="'Segoe UI, Helvetica, Arial, sans-serif'" font-size="12" lengthAdjust="spacing" textLength="187.0957" x="770" y="2162.9355">&#8226; Old key continues encrypting</text><text fill="#212529" font-family="'Segoe UI, Helvetica, Arial, sans-serif'" font-size="12" lengthAdjust="spacing" textLength="180.5332" x="770" y="2176.9043">&#8226; New key applied seamlessly</text><text fill="#212529" font-family="'Segoe UI, Helvetica, Arial, sans-serif'" font-size="12" lengthAdjust="spacing" textLength="220.5234" x="770" y="2190.873">&#8226; User sees QBER alert in dashboard</text><?plantuml-src XLNRRjj647tdLqnJfxNKshKLEp04s01f4O5HIqhe6uAg2DRaMDfwjSliBgtgfUXJqRps2uf-ch-aCqlTQCE8tgYvdZDdPh-HEbTLWU3yNE5kMKrL57df5KAI71r0AXxG5TQK9LheeSVSIwFXE_WPvv1X8PstyhRYFwEe5DRBN9P2UtWLAvdZI6zVe2xGjbw1S133rhiiJGTDp_I1_JOhrTufR6Lfh-cRc5lopJ17-R3qIs0hERzAcuuVaZJh6osziS6f3riVq_FpuKtJxLeMQE32MnJJu7VDBSOVe-Zu60R6JeM28NKa0kpjWMamqeBZuoYAOUU4ckZ2XufoLbEu9sxmztmYz9YHSIlm-ELlwEmSl6v5VNRlapkXCBO0DdTXCCpwyNbqpSPhCjQDeSxjlFHOm4pwoKZdbRL8VNE5xJYzsDdl7BMYI1kFO8WGY7-i4H39b8I7P8qN7XqWcUVm1XnLrOKRwRe2VNYfAtAejDGUhQsuNi1FWu44nr8xE6DJZgNVoT3HH27sNkJtI_o_VDixxRpjlFtrXARMXJ1xO3y7vSHueua6mc8AGY8rt0ed7VpGYbA6on5z5Awoo4OhT66cjG-57Uwz1gQI4fexc5cZnxKjH6yKJWAbEw6xLT6fcCDjI5j7EYQZmLYjCegzcQ1coD-xHN-FN_wjaIp_wOuqwG_6wDsgI-dXyQz_u8_EuMiWyemDp8MHPz8HhSnGiXvvQQnVZ7nlT-zehOPJ9PoJT_CkjDitSJOu6xnhjsipwo6TKgMPi3IaCSzIUq8tHwNCZD0LCXUazDRBfVOFlrRgnT3E0OTkCFqqnzdWChkwE1iEe9TUfgUNQQ_T7kd0mNQ790ydu2SMtSIe0hRtzsa9cAJwXFosE2dCKxFC2ZRfqbQEd3uLuGAHY0836rEyNgutnVI4czmQGQj55MSqAl8N2grVz4Hg8dIkbFVeefgL61X7d0opotORDhVCcaeNjLFo5QVc6YPBNJ7CAQdEIhebT31pwWoBaHuI6I4Ofu9NZ3HQEGpCn9Kt529p5ZJ5yymRboP3JylyvCxixHuoMBQ4JNuGYeWMoeT5ll1IANXlUNrz1FHxlhVlmzhKqRpiJDoOcWlkBsrRdMmbda2n2yLEW6OTh2lfhVbR9rxJ5eHbD9qeUb6evpiX5Lq51ygCnypPsL89TBSgpSh8YJxgWIuMAeS1QOPJobR0JuJPb6w9jUxvLA7Gy7bngPaxZUevWh2TRvgzhoM_EDOhwqgfD95FTlqgKbTDW1ktUQrI6bbbIG3UmDWYqjaQu2mCLvIbaeI4B0_XMhlmK4MewmEz-NenSNp9fPy7hJmlIhrSJaYguucfF6qahXUhtgSkUJp--TyYRLqBD3ySz54poUQbSDTFn-AP8fakN9u2S9H9eNDgld2uSfmKAJRe9QmdRq2nP8Kn1kAY_m40?></g></svg>