<?plantuml 1.2026.2?><svg xmlns="http://www.w3.org/2000/svg" xmlns:xlink="http://www.w3.org/1999/xlink" contentStyleType="text/css" data-diagram-type="DESCRIPTION" height="1269px" preserveAspectRatio="none" style="width:2300px;height:1269px;" version="1.1" viewBox="0 0 2300 1269" width="2300px" zoomAndPan="magnify"><title>BB84 Quantum Layer &#8212; Component Diagram</title><defs/><g><g class="title" data-source-line="3"><text fill="#000000" font-family="'Segoe UI, Helvetica, Arial, sans-serif'" font-size="22" font-weight="bold" lengthAdjust="spacing" textLength="554.2217" x="868.3892" y="41.4209">BB84 Quantum Layer &#8212; Component Diagram</text></g><!--cluster shared/bb84/--><g class="cluster" data-qualified-name="shared.bb84." data-source-line="5" id="ent0002"><path d="M534,385.6094 L633.0742,385.6094 A6,6 0 0 1 637.0742,389.6094 L644.0742,417.5781 L1585,417.5781 A4,4 0 0 1 1589,421.5781 L1589,1258.6094 A4,4 0 0 1 1585,1262.6094 L534,1262.6094 A4,4 0 0 1 530,1258.6094 L530,389.6094 A4,4 0 0 1 534,385.6094" fill="#F8F9FA" style="stroke:#ADB5BD;stroke-width:1;"/><line style="stroke:#ADB5BD;stroke-width:1;" x1="530" x2="644.0742" y1="417.5781" y2="417.5781"/><text fill="#212529" font-family="'Segoe UI, Helvetica, Arial, sans-serif'" font-size="12" font-weight="bold" lengthAdjust="spacing" textLength="89.0742" x="540" y="404.748">shared/bb84/</text></g><!--cluster PLS--><g class="cluster" data-qualified-name="shared.bb84..PLS" data-source-line="6" id="ent0003"><rect fill="#F8F9FA" height="505" rx="4" ry="4" style="stroke:#ADB5BD;stroke-width:1;" width="240" x="770" y="445.6094"/><rect fill="#F8F9FA" height="10" style="stroke:#ADB5BD;stroke-width:1;" width="15" x="990" y="450.6094"/><rect fill="#F8F9FA" height="2" style="stroke:#ADB5BD;stroke-width:1;" width="4" x="988" y="452.6094"/><rect fill="#F8F9FA" height="2" style="stroke:#ADB5BD;stroke-width:1;" width="4" x="988" y="456.6094"/><text fill="#212529" font-family="'Segoe UI, Helvetica, Arial, sans-serif'" font-size="12" font-weight="bold" lengthAdjust="spacing" textLength="159.2754" x="810.3623" y="475.748">PhysicalLayerSimulator</text></g><!--cluster Proto--><g class="cluster" data-qualified-name="shared.bb84..Proto" data-source-line="12" id="ent0007"><rect fill="#F8F9FA" height="573" rx="4" ry="4" style="stroke:#ADB5BD;stroke-width:1;" width="234" x="1323" y="657.6094"/><rect fill="#F8F9FA" height="10" style="stroke:#ADB5BD;stroke-width:1;" width="15" x="1537" y="662.6094"/><rect fill="#F8F9FA" height="2" style="stroke:#ADB5BD;stroke-width:1;" width="4" x="1535" y="664.6094"/><rect fill="#F8F9FA" height="2" style="stroke:#ADB5BD;stroke-width:1;" width="4" x="1535" y="668.6094"/><text fill="#212529" font-family="'Segoe UI, Helvetica, Arial, sans-serif'" font-size="12" font-weight="bold" lengthAdjust="spacing" textLength="91.4004" x="1394.2998" y="687.748">BB84Protocol</text></g><!--cluster shared/--><g class="cluster" data-qualified-name="shared." data-source-line="26" id="ent0017"><path d="M1877,69.6094 L1937.8125,69.6094 A6,6 0 0 1 1941.8125,73.6094 L1948.8125,101.5781 L2095,101.5781 A4,4 0 0 1 2099,105.5781 L2099,565.6094 A4,4 0 0 1 2095,569.6094 L1877,569.6094 A4,4 0 0 1 1873,565.6094 L1873,73.6094 A4,4 0 0 1 1877,69.6094" fill="#F8F9FA" style="stroke:#ADB5BD;stroke-width:1;"/><line style="stroke:#ADB5BD;stroke-width:1;" x1="1873" x2="1948.8125" y1="101.5781" y2="101.5781"/><text fill="#212529" font-family="'Segoe UI, Helvetica, Arial, sans-serif'" font-size="12" font-weight="bold" lengthAdjust="spacing" textLength="50.8125" x="1883" y="88.748">shared/</text></g><!--cluster server/utils/--><g class="cluster" data-qualified-name="server.utils." data-source-line="32" id="ent0021"><path d="M2127,446.6094 L2218.4922,446.6094 A6,6 0 0 1 2222.4922,450.6094 L2229.4922,478.5781 L2289,478.5781 A4,4 0 0 1 2293,482.5781 L2293,572.6094 A4,4 0 0 1 2289,576.6094 L2127,576.6094 A4,4 0 0 1 2123,572.6094 L2123,450.6094 A4,4 0 0 1 2127,446.6094" fill="#F8F9FA" style="stroke:#ADB5BD;stroke-width:1;"/><line style="stroke:#ADB5BD;stroke-width:1;" x1="2123" x2="2229.4922" y1="478.5781" y2="478.5781"/><text fill="#212529" font-family="'Segoe UI, Helvetica, Arial, sans-serif'" font-size="12" font-weight="bold" lengthAdjust="spacing" textLength="81.4922" x="2133" y="465.748">server/utils/</text></g><!--cluster server/--><g class="cluster" data-qualified-name="server." data-source-line="36" id="ent0023"><path d="M1617,658.6094 L1674.4609,658.6094 A6,6 0 0 1 1678.4609,662.6094 L1685.4609,690.5781 L1976,690.5781 A4,4 0 0 1 1980,694.5781 L1980,784.6094 A4,4 0 0 1 1976,788.6094 L1617,788.6094 A4,4 0 0 1 1613,784.6094 L1613,662.6094 A4,4 0 0 1 1617,658.6094" fill="#F8F9FA" style="stroke:#ADB5BD;stroke-width:1;"/><line style="stroke:#ADB5BD;stroke-width:1;" x1="1613" x2="1685.4609" y1="690.5781" y2="690.5781"/><text fill="#212529" font-family="'Segoe UI, Helvetica, Arial, sans-serif'" font-size="12" font-weight="bold" lengthAdjust="spacing" textLength="47.4609" x="1623" y="677.748">server/</text></g><!--entity Eve--><g class="entity" data-qualified-name="shared.bb84..Eve" data-source-line="19" id="ent0012"><rect fill="#FFFFFF" height="55.9688" rx="4" ry="4" style="stroke:#ADB5BD;stroke-width:1;" width="193.0293" x="1037.5" y="497.6094"/><rect fill="#FFFFFF" height="10" style="stroke:#ADB5BD;stroke-width:1;" width="15" x="1210.5293" y="502.6094"/><rect fill="#FFFFFF" height="2" style="stroke:#ADB5BD;stroke-width:1;" width="4" x="1208.5293" y="504.6094"/><rect fill="#FFFFFF" height="2" style="stroke:#ADB5BD;stroke-width:1;" width="4" x="1208.5293" y="508.6094"/><text fill="#212529" font-family="'Segoe UI, Helvetica, Arial, sans-serif'" font-size="12" lengthAdjust="spacing" textLength="141.0293" x="1058.5" y="534.748">EavesdropperSimulator</text></g><!--entity Monitor--><g class="entity" data-qualified-name="shared.bb84..Monitor" data-source-line="20" id="ent0013"><rect fill="#FFFFFF" height="55.9688" rx="4" ry="4" style="stroke:#ADB5BD;stroke-width:1;" width="131.2129" x="1441.5" y="497.6094"/><rect fill="#FFFFFF" height="10" style="stroke:#ADB5BD;stroke-width:1;" width="15" x="1552.7129" y="502.6094"/><rect fill="#FFFFFF" height="2" style="stroke:#ADB5BD;stroke-width:1;" width="4" x="1550.7129" y="504.6094"/><rect fill="#FFFFFF" height="2" style="stroke:#ADB5BD;stroke-width:1;" width="4" x="1550.7129" y="508.6094"/><text fill="#212529" font-family="'Segoe UI, Helvetica, Arial, sans-serif'" font-size="12" lengthAdjust="spacing" textLength="79.2129" x="1462.5" y="534.748">QBERMonitor</text></g><!--entity Bridge--><g class="entity" data-qualified-name="shared.bb84..Bridge" data-source-line="21" id="ent0014"><rect fill="#FFFFFF" height="55.9688" rx="4" ry="4" style="stroke:#ADB5BD;stroke-width:1;" width="199.9023" x="546" y="497.6094"/><rect fill="#FFFFFF" height="10" style="stroke:#ADB5BD;stroke-width:1;" width="15" x="725.9023" y="502.6094"/><rect fill="#FFFFFF" height="2" style="stroke:#ADB5BD;stroke-width:1;" width="4" x="723.9023" y="504.6094"/><rect fill="#FFFFFF" height="2" style="stroke:#ADB5BD;stroke-width:1;" width="4" x="723.9023" y="508.6094"/><text fill="#212529" font-family="'Segoe UI, Helvetica, Arial, sans-serif'" font-size="12" lengthAdjust="spacing" textLength="147.9023" x="567" y="534.748">AbstractHardwareBridge</text></g><!--entity MATLAB--><g class="entity" data-qualified-name="shared.bb84..MATLAB" data-source-line="22" id="ent0015"><rect fill="#FFFFFF" height="55.9688" rx="4" ry="4" style="stroke:#ADB5BD;stroke-width:1;" width="140.1367" x="576" y="709.6094"/><rect fill="#FFFFFF" height="10" style="stroke:#ADB5BD;stroke-width:1;" width="15" x="696.1367" y="714.6094"/><rect fill="#FFFFFF" height="2" style="stroke:#ADB5BD;stroke-width:1;" width="4" x="694.1367" y="716.6094"/><rect fill="#FFFFFF" height="2" style="stroke:#ADB5BD;stroke-width:1;" width="4" x="694.1367" y="720.6094"/><text fill="#212529" font-family="'Segoe UI, Helvetica, Arial, sans-serif'" font-size="12" lengthAdjust="spacing" textLength="88.1367" x="597" y="746.748">MATLABBridge</text></g><!--entity Qiskit--><g class="entity" data-qualified-name="shared.bb84..Qiskit" data-source-line="23" id="ent0016"><rect fill="#FFFFFF" height="55.9688" rx="4" ry="4" style="stroke:#ADB5BD;stroke-width:1;" width="140.2012" x="1266" y="497.6094"/><rect fill="#FFFFFF" height="10" style="stroke:#ADB5BD;stroke-width:1;" width="15" x="1386.2012" y="502.6094"/><rect fill="#FFFFFF" height="2" style="stroke:#ADB5BD;stroke-width:1;" width="4" x="1384.2012" y="504.6094"/><rect fill="#FFFFFF" height="2" style="stroke:#ADB5BD;stroke-width:1;" width="4" x="1384.2012" y="508.6094"/><text fill="#212529" font-family="'Segoe UI, Helvetica, Arial, sans-serif'" font-size="12" lengthAdjust="spacing" textLength="88.2012" x="1287" y="534.748">QiskitValidator</text></g><!--entity PS--><g class="entity" data-qualified-name="shared.bb84..PLS.PS" data-source-line="7" id="ent0004"><rect fill="#FFFFFF" height="55.9688" rx="4" ry="4" style="stroke:#ADB5BD;stroke-width:1;" width="135.3145" x="808.5" y="497.6094"/><rect fill="#FFFFFF" height="10" style="stroke:#ADB5BD;stroke-width:1;" width="15" x="923.8145" y="502.6094"/><rect fill="#FFFFFF" height="2" style="stroke:#ADB5BD;stroke-width:1;" width="4" x="921.8145" y="504.6094"/><rect fill="#FFFFFF" height="2" style="stroke:#ADB5BD;stroke-width:1;" width="4" x="921.8145" y="508.6094"/><text fill="#212529" font-family="'Segoe UI, Helvetica, Arial, sans-serif'" font-size="12" lengthAdjust="spacing" textLength="83.3145" x="829.5" y="534.748">PhotonSource</text></g><!--entity QC--><g class="entity" data-qualified-name="shared.bb84..PLS.QC" data-source-line="8" id="ent0005"><rect fill="#FFFFFF" height="55.9688" rx="4" ry="4" style="stroke:#ADB5BD;stroke-width:1;" width="157.2754" x="797.5" y="709.6094"/><rect fill="#FFFFFF" height="10" style="stroke:#ADB5BD;stroke-width:1;" width="15" x="934.7754" y="714.6094"/><rect fill="#FFFFFF" height="2" style="stroke:#ADB5BD;stroke-width:1;" width="4" x="932.7754" y="716.6094"/><rect fill="#FFFFFF" height="2" style="stroke:#ADB5BD;stroke-width:1;" width="4" x="932.7754" y="720.6094"/><text fill="#212529" font-family="'Segoe UI, Helvetica, Arial, sans-serif'" font-size="12" lengthAdjust="spacing" textLength="105.2754" x="818.5" y="746.748">QuantumChannel</text></g><!--entity SPD--><g class="entity" data-qualified-name="shared.bb84..PLS.SPD" data-source-line="9" id="ent0006"><rect fill="#FFFFFF" height="55.9688" rx="4" ry="4" style="stroke:#ADB5BD;stroke-width:1;" width="183.0156" x="794.5" y="870.6094"/><rect fill="#FFFFFF" height="10" style="stroke:#ADB5BD;stroke-width:1;" width="15" x="957.5156" y="875.6094"/><rect fill="#FFFFFF" height="2" style="stroke:#ADB5BD;stroke-width:1;" width="4" x="955.5156" y="877.6094"/><rect fill="#FFFFFF" height="2" style="stroke:#ADB5BD;stroke-width:1;" width="4" x="955.5156" y="881.6094"/><text fill="#212529" font-family="'Segoe UI, Helvetica, Arial, sans-serif'" font-size="12" lengthAdjust="spacing" textLength="131.0156" x="815.5" y="907.748">SinglePhotonDetector</text></g><!--entity Sift--><g class="entity" data-qualified-name="shared.bb84..Proto.Sift" data-source-line="13" id="ent0008"><rect fill="#FFFFFF" height="55.9688" rx="4" ry="4" style="stroke:#ADB5BD;stroke-width:1;" width="90.4375" x="1399" y="709.6094"/><rect fill="#FFFFFF" height="10" style="stroke:#ADB5BD;stroke-width:1;" width="15" x="1469.4375" y="714.6094"/><rect fill="#FFFFFF" height="2" style="stroke:#ADB5BD;stroke-width:1;" width="4" x="1467.4375" y="716.6094"/><rect fill="#FFFFFF" height="2" style="stroke:#ADB5BD;stroke-width:1;" width="4" x="1467.4375" y="720.6094"/><text fill="#212529" font-family="'Segoe UI, Helvetica, Arial, sans-serif'" font-size="12" lengthAdjust="spacing" textLength="38.4375" x="1420" y="746.748">Sifting</text></g><!--entity QBER--><g class="entity" data-qualified-name="shared.bb84..Proto.QBER" data-source-line="14" id="ent0009"><rect fill="#FFFFFF" height="55.9688" rx="4" ry="4" style="stroke:#ADB5BD;stroke-width:1;" width="153.3145" x="1367.5" y="870.6094"/><rect fill="#FFFFFF" height="10" style="stroke:#ADB5BD;stroke-width:1;" width="15" x="1500.8145" y="875.6094"/><rect fill="#FFFFFF" height="2" style="stroke:#ADB5BD;stroke-width:1;" width="4" x="1498.8145" y="877.6094"/><rect fill="#FFFFFF" height="2" style="stroke:#ADB5BD;stroke-width:1;" width="4" x="1498.8145" y="881.6094"/><text fill="#212529" font-family="'Segoe UI, Helvetica, Arial, sans-serif'" font-size="12" lengthAdjust="spacing" textLength="101.3145" x="1388.5" y="907.748">QBER Estimation</text></g><!--entity Cascade--><g class="entity" data-qualified-name="shared.bb84..Proto.Cascade" data-source-line="15" id="ent0010"><rect fill="#FFFFFF" height="69.9375" rx="4" ry="4" style="stroke:#ADB5BD;stroke-width:1;" width="148.0938" x="1370" y="1005.6094"/><rect fill="#FFFFFF" height="10" style="stroke:#ADB5BD;stroke-width:1;" width="15" x="1498.0938" y="1010.6094"/><rect fill="#FFFFFF" height="2" style="stroke:#ADB5BD;stroke-width:1;" width="4" x="1496.0938" y="1012.6094"/><rect fill="#FFFFFF" height="2" style="stroke:#ADB5BD;stroke-width:1;" width="4" x="1496.0938" y="1016.6094"/><text fill="#212529" font-family="'Segoe UI, Helvetica, Arial, sans-serif'" font-size="12" lengthAdjust="spacing" textLength="50.9355" x="1391" y="1042.748">Cascade</text><text fill="#212529" font-family="'Segoe UI, Helvetica, Arial, sans-serif'" font-size="12" lengthAdjust="spacing" textLength="96.0938" x="1391" y="1056.7168">Error Correction</text></g><!--entity PA--><g class="entity" data-qualified-name="shared.bb84..Proto.PA" data-source-line="16" id="ent0011"><rect fill="#FFFFFF" height="69.9375" rx="4" ry="4" style="stroke:#ADB5BD;stroke-width:1;" width="178.1523" x="1355" y="1136.6094"/><rect fill="#FFFFFF" height="10" style="stroke:#ADB5BD;stroke-width:1;" width="15" x="1513.1523" y="1141.6094"/><rect fill="#FFFFFF" height="2" style="stroke:#ADB5BD;stroke-width:1;" width="4" x="1511.1523" y="1143.6094"/><rect fill="#FFFFFF" height="2" style="stroke:#ADB5BD;stroke-width:1;" width="4" x="1511.1523" y="1147.6094"/><text fill="#212529" font-family="'Segoe UI, Helvetica, Arial, sans-serif'" font-size="12" lengthAdjust="spacing" textLength="47.3438" x="1376" y="1173.748">Toeplitz</text><text fill="#212529" font-family="'Segoe UI, Helvetica, Arial, sans-serif'" font-size="12" lengthAdjust="spacing" textLength="126.1523" x="1376" y="1187.7168">Privacy Amplification</text></g><!--entity KG--><g class="entity" data-qualified-name="shared..KG" data-source-line="27" id="ent0018"><rect fill="#FFFFFF" height="55.9688" rx="4" ry="4" style="stroke:#ADB5BD;stroke-width:1;" width="167.0254" x="1891.5" y="256.6094"/><rect fill="#FFFFFF" height="10" style="stroke:#ADB5BD;stroke-width:1;" width="15" x="2038.5254" y="261.6094"/><rect fill="#FFFFFF" height="2" style="stroke:#ADB5BD;stroke-width:1;" width="4" x="2036.5254" y="263.6094"/><rect fill="#FFFFFF" height="2" style="stroke:#ADB5BD;stroke-width:1;" width="4" x="2036.5254" y="267.6094"/><text fill="#212529" font-family="'Segoe UI, Helvetica, Arial, sans-serif'" font-size="12" lengthAdjust="spacing" textLength="115.0254" x="1912.5" y="293.748">BB84KeyGenerator</text></g><!--entity HKG--><g class="entity" data-qualified-name="shared..HKG" data-source-line="28" id="ent0019"><rect fill="#FFFFFF" height="55.9688" rx="4" ry="4" style="stroke:#ADB5BD;stroke-width:1;" width="193.7031" x="1889" y="113.6094"/><rect fill="#FFFFFF" height="10" style="stroke:#ADB5BD;stroke-width:1;" width="15" x="2062.7031" y="118.6094"/><rect fill="#FFFFFF" height="2" style="stroke:#ADB5BD;stroke-width:1;" width="4" x="2060.7031" y="120.6094"/><rect fill="#FFFFFF" height="2" style="stroke:#ADB5BD;stroke-width:1;" width="4" x="2060.7031" y="124.6094"/><text fill="#212529" font-family="'Segoe UI, Helvetica, Arial, sans-serif'" font-size="12" lengthAdjust="spacing" textLength="141.7031" x="1910" y="150.748">HardwareKeyGenerator</text></g><!--entity Reg--><g class="entity" data-qualified-name="shared..Reg" data-source-line="29" id="ent0020"><rect fill="#FFFFFF" height="55.9688" rx="4" ry="4" style="stroke:#ADB5BD;stroke-width:1;" width="169.9023" x="1913" y="497.6094"/><rect fill="#FFFFFF" height="10" style="stroke:#ADB5BD;stroke-width:1;" width="15" x="2062.9023" y="502.6094"/><rect fill="#FFFFFF" height="2" style="stroke:#ADB5BD;stroke-width:1;" width="4" x="2060.9023" y="504.6094"/><rect fill="#FFFFFF" height="2" style="stroke:#ADB5BD;stroke-width:1;" width="4" x="2060.9023" y="508.6094"/><text fill="#212529" font-family="'Segoe UI, Helvetica, Arial, sans-serif'" font-size="12" lengthAdjust="spacing" textLength="117.9023" x="1934" y="534.748">Encryption Registry</text></g><!--entity AV--><g class="entity" data-qualified-name="server.utils..AV" data-source-line="33" id="ent0022"><rect fill="#FFFFFF" height="69.9375" rx="4" ry="4" style="stroke:#ADB5BD;stroke-width:1;" width="138.2559" x="2139" y="490.6094"/><rect fill="#FFFFFF" height="10" style="stroke:#ADB5BD;stroke-width:1;" width="15" x="2257.2559" y="495.6094"/><rect fill="#FFFFFF" height="2" style="stroke:#ADB5BD;stroke-width:1;" width="4" x="2255.2559" y="497.6094"/><rect fill="#FFFFFF" height="2" style="stroke:#ADB5BD;stroke-width:1;" width="4" x="2255.2559" y="501.6094"/><text fill="#212529" font-family="'Segoe UI, Helvetica, Arial, sans-serif'" font-size="12" lengthAdjust="spacing" textLength="16.418" x="2160" y="527.748">AV</text><text fill="#212529" font-family="'Segoe UI, Helvetica, Arial, sans-serif'" font-size="12" lengthAdjust="spacing" textLength="86.2559" x="2160" y="541.7168">(Key Rotation)</text></g><!--entity Socket--><g class="entity" data-qualified-name="server..Socket" data-source-line="37" id="ent0024"><rect fill="#FFFFFF" height="69.9375" rx="4" ry="4" style="stroke:#ADB5BD;stroke-width:1;" width="135.5254" x="1828" y="702.6094"/><rect fill="#FFFFFF" height="10" style="stroke:#ADB5BD;stroke-width:1;" width="15" x="1943.5254" y="707.6094"/><rect fill="#FFFFFF" height="2" style="stroke:#ADB5BD;stroke-width:1;" width="4" x="1941.5254" y="709.6094"/><rect fill="#FFFFFF" height="2" style="stroke:#ADB5BD;stroke-width:1;" width="4" x="1941.5254" y="713.6094"/><text fill="#212529" font-family="'Segoe UI, Helvetica, Arial, sans-serif'" font-size="12" lengthAdjust="spacing" textLength="59.5781" x="1849" y="739.748">SocketAPI</text><text fill="#212529" font-family="'Segoe UI, Helvetica, Arial, sans-serif'" font-size="12" lengthAdjust="spacing" textLength="83.5254" x="1849" y="753.7168">(qber-update)</text></g><!--entity Admin--><g class="entity" data-qualified-name="server..Admin" data-source-line="38" id="ent0025"><rect fill="#FFFFFF" height="69.9375" rx="4" ry="4" style="stroke:#ADB5BD;stroke-width:1;" width="164.2539" x="1629" y="702.6094"/><rect fill="#FFFFFF" height="10" style="stroke:#ADB5BD;stroke-width:1;" width="15" x="1773.2539" y="707.6094"/><rect fill="#FFFFFF" height="2" style="stroke:#ADB5BD;stroke-width:1;" width="4" x="1771.2539" y="709.6094"/><rect fill="#FFFFFF" height="2" style="stroke:#ADB5BD;stroke-width:1;" width="4" x="1771.2539" y="713.6094"/><text fill="#212529" font-family="'Segoe UI, Helvetica, Arial, sans-serif'" font-size="12" lengthAdjust="spacing" textLength="80.0801" x="1650" y="739.748">AdminRoutes</text><text fill="#212529" font-family="'Segoe UI, Helvetica, Arial, sans-serif'" font-size="12" lengthAdjust="spacing" textLength="112.2539" x="1650" y="753.7168">(quantum metrics)</text></g><g class="entity" data-qualified-name="GMN44" data-source-line="72" id="ent0045"><path d="M11,695.6094 L11,779.4531 A4,4 0 0 0 15,783.4531 L257.1719,783.4531 A4,4 0 0 0 261.1719,779.4531 L261.1719,701.6094 L251.1719,691.6094 L15,691.6094 A4,4 0 0 0 11,695.6094" fill="#FFF3CD" style="stroke:#FFECB5;stroke-width:1;"/><path d="M251.1719,691.6094 L251.1719,699.6094 A2,2 0 0 0 253.1719,701.6094 L261.1719,701.6094 L251.1719,691.6094" fill="#FFF3CD" style="stroke:#FFECB5;stroke-width:1;"/><text fill="#212529" font-family="'Segoe UI, Helvetica, Arial, sans-serif'" font-size="12" lengthAdjust="spacing" textLength="177.7734" x="23" y="713.748">Models realistic optical chain:</text><text fill="#212529" font-family="'Segoe UI, Helvetica, Arial, sans-serif'" font-size="12" lengthAdjust="spacing" textLength="217.1719" x="23" y="727.7168">&#8226; Poisson photon statistics (&#956; &#8776; 0.1)</text><text fill="#212529" font-family="'Segoe UI, Helvetica, Arial, sans-serif'" font-size="12" lengthAdjust="spacing" textLength="189.1816" x="23" y="741.6855">&#8226; Fiber attenuation (0.2 dB/km)</text><text fill="#212529" font-family="'Segoe UI, Helvetica, Arial, sans-serif'" font-size="12" lengthAdjust="spacing" textLength="164.6309" x="23" y="755.6543">&#8226; Detector efficiency (10%)</text><text fill="#212529" font-family="'Segoe UI, Helvetica, Arial, sans-serif'" font-size="12" lengthAdjust="spacing" textLength="198.9082" x="23" y="769.623">&#8226; Dark counts, afterpulsing, jitter</text></g><g class="entity" data-qualified-name="GMN47" data-source-line="80" id="ent0048"><path d="M296,695.6094 L296,779.4531 A4,4 0 0 0 300,783.4531 L510.1445,783.4531 A4,4 0 0 0 514.1445,779.4531 L514.1445,701.6094 L504.1445,691.6094 L300,691.6094 A4,4 0 0 0 296,695.6094" fill="#FFF3CD" style="stroke:#FFECB5;stroke-width:1;"/><path d="M504.1445,691.6094 L504.1445,699.6094 A2,2 0 0 0 506.1445,701.6094 L514.1445,701.6094 L504.1445,691.6094" fill="#FFF3CD" style="stroke:#FFECB5;stroke-width:1;"/><text fill="#212529" font-family="'Segoe UI, Helvetica, Arial, sans-serif'" font-size="12" lengthAdjust="spacing" textLength="131.8125" x="308" y="713.748">Classifies each round:</text><text fill="#212529" font-family="'Segoe UI, Helvetica, Arial, sans-serif'" font-size="12" lengthAdjust="spacing" textLength="146.3965" x="308" y="727.7168">&#8226; NORMAL (QBER &lt; 5%)</text><text fill="#212529" font-family="'Segoe UI, Helvetica, Arial, sans-serif'" font-size="12" lengthAdjust="spacing" textLength="121.9102" x="308" y="741.6855">&#8226; WARNING (5-11%)</text><text fill="#212529" font-family="'Segoe UI, Helvetica, Arial, sans-serif'" font-size="12" lengthAdjust="spacing" textLength="131.1563" x="308" y="755.6543">&#8226; INTRUSION (&gt; 11%)</text><text fill="#212529" font-family="'Segoe UI, Helvetica, Arial, sans-serif'" font-size="12" lengthAdjust="spacing" textLength="185.1445" x="308" y="769.623">Triggers re-keying on intrusion</text></g><!--link PS to QC--><g class="link" data-entity-1="ent0004" data-entity-2="ent0005" data-link-type="dependency" data-source-line="42" id="lnk26"><path d="M876,553.6294 C876,593.8494 876,663.0094 876,703.3594" fill="none" id="PS-to-QC" style="stroke:#495057;stroke-width:1;"/><polygon fill="#495057" points="876,709.3594,880,700.3594,876,704.3594,872,700.3594,876,709.3594" style="stroke:#495057;stroke-width:1;"/><text fill="#000000" font-family="'Segoe UI, Helvetica, Arial, sans-serif'" font-size="12" lengthAdjust="spacing" textLength="84.4746" x="883" y="617.748">photon pulses</text></g><!--link QC to SPD--><g class="link" data-entity-1="ent0005" data-entity-2="ent0006" data-link-type="dependency" data-source-line="43" id="lnk27"><path d="M877.72,765.9394 C879.56,795.1494 882.0724,835.2013 883.9124,864.3813" fill="none" id="QC-to-SPD" style="stroke:#495057;stroke-width:1;"/><polygon fill="#495057" points="884.29,870.3694,887.7157,861.1355,883.9753,865.3793,879.7315,861.6389,884.29,870.3694" style="stroke:#495057;stroke-width:1;"/><text fill="#000000" font-family="'Segoe UI, Helvetica, Arial, sans-serif'" font-size="12" lengthAdjust="spacing" textLength="107.168" x="889" y="831.748">surviving photons</text></g><!--link Eve to QC--><g class="link" data-entity-1="ent0012" data-entity-2="ent0005" data-link-type="dependency" data-source-line="44" id="lnk28"><path d="M1148.79,554.0494 C1159.04,577.2194 1168.22,610.2394 1152,633.6094 C1107.89,697.1594 1025.4988,720.7147 960.5988,730.0547" fill="none" id="Eve-to-QC" style="stroke:#495057;stroke-width:1;stroke-dasharray:7,7;"/><polygon fill="#495057" points="954.66,730.9094,964.138,733.5866,959.609,730.1971,962.9984,725.6681,954.66,730.9094" style="stroke:#495057;stroke-width:1;"/><text fill="#000000" font-family="'Segoe UI, Helvetica, Arial, sans-serif'" font-size="12" lengthAdjust="spacing" textLength="99.7676" x="1167" y="610.748">intercept-resend</text><text fill="#000000" font-family="'Segoe UI, Helvetica, Arial, sans-serif'" font-size="12" lengthAdjust="spacing" textLength="57.9961" x="1187.8857" y="624.7168">(optional)</text></g><!--link PLS to Proto--><g class="link" data-entity-1="ent0003" data-entity-2="ent0007" data-link-type="dependency" data-source-line="47" id="lnk29"><path d="M1010.0301,596.624 C1010.0569,596.6998 1010.0837,596.7755 1010.1105,596.8509 C1010.5393,598.0579 1010.9642,599.2196 1011.3908,600.3417 C1013.0972,604.8303 1014.8306,608.6863 1016.9437,612.2781 C1021.17,619.4619 1026.915,625.5894 1037,633.6094 C1090.335,676.0244 1162.39,701.6394 1221.8175,716.7169 C1251.5313,724.2556 1278.0881,729.16 1297.5697,732.2128 C1307.3105,733.7392 1315.2824,734.8027 1320.9957,735.5012 C1321.3528,735.5449 1321.7011,735.5871 1322.0404,735.6279 C1322.2101,735.6483 1316.4198,734.9573 1316.5849,734.977" fill="none" id="PLS-to-Proto" style="stroke:#495057;stroke-width:1;"/><polygon fill="#495057" points="1322.5427,735.6881,1314.0802,730.6496,1317.5779,735.0955,1313.132,738.5932,1322.5427,735.6881" style="stroke:#495057;stroke-width:1;"/><text fill="#000000" font-family="'Segoe UI, Helvetica, Arial, sans-serif'" font-size="12" lengthAdjust="spacing" textLength="100.916" x="1044" y="617.748">detection events</text></g><!--link Sift to QBER--><g class="link" data-entity-1="ent0008" data-entity-2="ent0009" data-link-type="dependency" data-source-line="48" id="lnk30"><path d="M1444,765.9394 C1444,795.1494 1444,835.1894 1444,864.3694" fill="none" id="Sift-to-QBER" style="stroke:#495057;stroke-width:1;"/><polygon fill="#495057" points="1444,870.3694,1448,861.3694,1444,865.3694,1440,861.3694,1444,870.3694" style="stroke:#495057;stroke-width:1;"/></g><!--link QBER to Cascade--><g class="link" data-entity-1="ent0009" data-entity-2="ent0010" data-link-type="dependency" data-source-line="49" id="lnk31"><path d="M1444,926.9394 C1444,949.3794 1444,975.2794 1444,999.4094" fill="none" id="QBER-to-Cascade" style="stroke:#495057;stroke-width:1;"/><polygon fill="#495057" points="1444,1005.4094,1448,996.4094,1444,1000.4094,1440,996.4094,1444,1005.4094" style="stroke:#495057;stroke-width:1;"/></g><!--link Cascade to PA--><g class="link" data-entity-1="ent0010" data-entity-2="ent0011" data-link-type="dependency" data-source-line="50" id="lnk32"><path d="M1444,1075.8394 C1444,1094.4994 1444,1111.5294 1444,1130.2194" fill="none" id="Cascade-to-PA" style="stroke:#495057;stroke-width:1;"/><polygon fill="#495057" points="1444,1136.2194,1448,1127.2194,1444,1131.2194,1440,1127.2194,1444,1136.2194" style="stroke:#495057;stroke-width:1;"/></g><!--link Proto to KG--><g class="link" data-entity-1="ent0007" data-entity-2="ent0018" data-link-type="dependency" data-source-line="53" id="lnk33"><path d="M1328.2803,657.2398 C1328.7776,656.0726 1329.3146,654.9254 1329.8936,653.8013 C1332.2097,649.3048 1335.1975,645.1769 1339,641.6094 C1355.05,626.5494 1718.43,648.0894 1735,633.6094 C1821.73,557.8494 1705.55,469.4694 1775,377.6094 C1803.18,340.3394 1844.3467,319.5427 1885.6367,306.0527" fill="none" id="Proto-to-KG" style="stroke:#495057;stroke-width:1;"/><polygon fill="#495057" points="1891.34,304.1894,1881.5428,303.1822,1886.5872,305.7422,1884.0272,310.7866,1891.34,304.1894" style="stroke:#495057;stroke-width:1;"/><text fill="#000000" font-family="'Segoe UI, Helvetica, Arial, sans-serif'" font-size="12" lengthAdjust="spacing" textLength="107.8594" x="1782" y="530.248">BB84RoundResult</text></g><!--link KG to Reg--><g class="link" data-entity-1="ent0018" data-entity-2="ent0020" data-link-type="dependency" data-source-line="54" id="lnk34"><path d="M1977.64,313.0294 C1982.08,359.1294 1990.4059,445.6569 1994.8159,491.5369" fill="none" id="KG-to-Reg" style="stroke:#495057;stroke-width:1;"/><polygon fill="#495057" points="1995.39,497.5094,1998.5105,488.1679,1994.9116,492.5323,1990.5472,488.9334,1995.39,497.5094" style="stroke:#495057;stroke-width:1;"/><text fill="#000000" font-family="'Segoe UI, Helvetica, Arial, sans-serif'" font-size="12" lengthAdjust="spacing" textLength="94.2363" x="1989" y="360.748">register('BB84')</text></g><!--link KG to Monitor--><g class="link" data-entity-1="ent0018" data-entity-2="ent0013" data-link-type="dependency" data-source-line="55" id="lnk35"><path d="M1891.44,291.0494 C1800.83,298.3194 1663.33,313.7794 1620,342.6094 C1563.49,380.2094 1532.1284,451.0455 1517.6284,491.8655" fill="none" id="KG-to-Monitor" style="stroke:#495057;stroke-width:1;"/><polygon fill="#495057" points="1515.62,497.5194,1522.4018,490.3774,1517.2936,492.8078,1514.8633,487.6996,1515.62,497.5194" style="stroke:#495057;stroke-width:1;"/><text fill="#000000" font-family="'Segoe UI, Helvetica, Arial, sans-serif'" font-size="12" lengthAdjust="spacing" textLength="97.8457" x="1627" y="360.748">metrics callback</text></g><!--link KG to AV--><g class="link" data-entity-1="ent0018" data-entity-2="ent0022" data-link-type="dependency" data-source-line="56" id="lnk36"><path d="M2051.83,312.6594 C2068.21,320.6694 2084.59,330.5994 2098,342.6094 C2144.47,384.2394 2175.1741,444.7112 2192.2641,484.7412" fill="none" id="KG-to-AV" style="stroke:#495057;stroke-width:1;"/><polygon fill="#495057" points="2194.62,490.2594,2194.765,480.4116,2192.6568,485.6609,2187.4074,483.5527,2194.62,490.2594" style="stroke:#495057;stroke-width:1;"/><text fill="#000000" font-family="'Segoe UI, Helvetica, Arial, sans-serif'" font-size="12" lengthAdjust="spacing" textLength="58.3066" x="2128" y="360.748">key bytes</text></g><!--reverse link Bridge to MATLAB--><g class="link" data-entity-1="ent0014" data-entity-2="ent0015" data-link-type="extension" data-source-line="59" id="lnk37"><path d="M646,571.6294 C646,611.8494 646,669.0094 646,709.3594" fill="none" id="Bridge-backto-MATLAB" style="stroke:#495057;stroke-width:1;"/><polygon fill="none" points="646,553.6294,640,571.6294,652,571.6294,646,553.6294" style="stroke:#495057;stroke-width:1;"/></g><!--link HKG to Bridge--><g class="link" data-entity-1="ent0019" data-entity-2="ent0014" data-link-type="dependency" data-source-line="60" id="lnk38"><path d="M1888.58,153.4794 C1636.61,182.8494 969.68,268.9694 778,377.6094 C726.38,406.8694 687.5022,458.6737 665.6122,492.4637" fill="none" id="HKG-to-Bridge" style="stroke:#495057;stroke-width:1;"/><polygon fill="#495057" points="662.35,497.4994,670.6004,492.1207,665.0685,493.303,663.8862,487.7711,662.35,497.4994" style="stroke:#495057;stroke-width:1;"/><text fill="#000000" font-family="'Segoe UI, Helvetica, Arial, sans-serif'" font-size="12" lengthAdjust="spacing" textLength="140.6895" x="1203" y="289.248">get_raw_key_material()</text></g><!--link HKG to KG--><g class="link" data-entity-1="ent0019" data-entity-2="ent0018" data-link-type="dependency" data-source-line="61" id="lnk39"><path d="M1983.88,169.7994 C1981.93,194.7594 1979.5277,225.5876 1977.5777,250.5276" fill="none" id="HKG-to-KG" style="stroke:#495057;stroke-width:1;"/><polygon fill="#495057" points="1977.11,256.5094,1981.7994,247.8486,1977.4997,251.5246,1973.8237,247.225,1977.11,256.5094" style="stroke:#495057;stroke-width:1;"/><text fill="#000000" font-family="'Segoe UI, Helvetica, Arial, sans-serif'" font-size="12" lengthAdjust="spacing" textLength="46.7637" x="1988" y="217.748">fallback</text></g><!--link AV to Socket--><g class="link" data-entity-1="ent0022" data-entity-2="ent0024" data-link-type="dependency" data-source-line="64" id="lnk40"><path d="M2157.18,560.8194 C2099.07,599.9294 2009.5076,660.2092 1951.5176,699.2392" fill="none" id="AV-to-Socket" style="stroke:#495057;stroke-width:1;"/><polygon fill="#495057" points="1946.54,702.5894,1956.2398,700.8825,1950.688,699.7976,1951.773,694.2457,1946.54,702.5894" style="stroke:#495057;stroke-width:1;"/><text fill="#000000" font-family="'Segoe UI, Helvetica, Arial, sans-serif'" font-size="12" lengthAdjust="spacing" textLength="118.4941" x="2114" y="617.748">qber event callback</text></g><!--link Monitor to Admin--><g class="link" data-entity-1="ent0013" data-entity-2="ent0025" data-link-type="dependency" data-source-line="65" id="lnk41"><path d="M1494.22,553.6494 C1485.03,577.5194 1477.24,611.8094 1496,633.6094 C1503.77,642.6394 1537.77,637.6394 1549,641.6094 C1590.19,656.1794 1627.6558,678.189 1658.7658,699.039" fill="none" id="Monitor-to-Admin" style="stroke:#495057;stroke-width:1;"/><polygon fill="#495057" points="1663.75,702.3794,1658.5007,694.046,1659.5965,699.5957,1654.0468,700.6916,1663.75,702.3794" style="stroke:#495057;stroke-width:1;"/><text fill="#000000" font-family="'Segoe UI, Helvetica, Arial, sans-serif'" font-size="12" lengthAdjust="spacing" textLength="91.6934" x="1503" y="617.748">get_summary()</text></g><!--link Monitor to Admin--><g class="link" data-entity-1="ent0013" data-entity-2="ent0025" data-link-type="dependency" data-source-line="66" id="lnk42"><path d="M1554.33,553.7994 C1571.27,564.7094 1589.9,578.1294 1605,592.6094 C1639.73,625.9094 1668.0625,666.6024 1687.5425,697.5324" fill="none" id="Monitor-to-Admin-1" style="stroke:#495057;stroke-width:1;"/><polygon fill="#495057" points="1690.74,702.6094,1689.3284,692.8622,1688.0754,698.3786,1682.559,697.1256,1690.74,702.6094" style="stroke:#495057;stroke-width:1;"/><text fill="#000000" font-family="'Segoe UI, Helvetica, Arial, sans-serif'" font-size="12" lengthAdjust="spacing" textLength="76.3418" x="1648" y="617.748">get_history()</text></g><!--link Qiskit to Proto--><g class="link" data-entity-1="ent0016" data-entity-2="ent0007" data-link-type="dependency" data-source-line="69" id="lnk43"><path d="M1335.36,553.6294 C1335.0275,567.5894 1334.5944,585.76 1334.1303,605.2234 C1333.8983,614.9552 1333.6585,625.0101 1333.4197,635.0235 C1333.3003,640.0302 1333.1812,645.0265 1333.0634,649.9668 C1333.0045,652.437 1333.0889,648.8949 1333.0308,651.3314" fill="none" id="Qiskit-to-Proto" style="stroke:#495057;stroke-width:1;stroke-dasharray:7,7;"/><polygon fill="#495057" points="1332.8878,657.3297,1337.1012,648.4276,1333.007,652.3311,1329.1035,648.2369,1332.8878,657.3297" style="stroke:#495057;stroke-width:1;"/><text fill="#000000" font-family="'Segoe UI, Helvetica, Arial, sans-serif'" font-size="12" lengthAdjust="spacing" textLength="101.209" x="1341" y="610.748">validate protocol</text><text fill="#000000" font-family="'Segoe UI, Helvetica, Arial, sans-serif'" font-size="12" lengthAdjust="spacing" textLength="69.9844" x="1356.6123" y="624.7168">correctness</text></g><!--link PLS to GMN44--><g class="link" data-entity-1="ent0003" data-entity-2="ent0045" data-link-type="association" data-source-line="72" id="lnk46"><path d="M767.9554,591.2148 C766.8203,591.219 765.6836,591.2232 764.5454,591.2273 C762.269,591.2354 759.9865,591.2432 757.6984,591.2506 C753.1223,591.2654 748.5239,591.2788 743.9076,591.2908 C725.4425,591.3387 706.6913,591.365 687.9325,591.3769 C537.8625,591.4719 387.315,590.6444 379,592.6094 C307.66,609.4894 236.77,655.7694 190.13,691.3494" fill="none" id="PLS-GMN44" style="stroke:#495057;stroke-width:1;stroke-dasharray:7,7;"/></g><!--link Monitor to GMN47--><g class="link" data-entity-1="ent0013" data-entity-2="ent0048" data-link-type="association" data-source-line="80" id="lnk49"><path d="M1477.48,553.7694 C1462.6,565.6594 1443.58,578.3094 1424,584.6094 C1389.83,595.5994 813.7,588.8894 778,592.6094 C666.25,604.2394 632.47,595.5394 530,641.6094 C502.53,653.9594 475.48,673.3494 453.62,691.3994" fill="none" id="Monitor-GMN47" style="stroke:#495057;stroke-width:1;stroke-dasharray:7,7;"/></g><?plantuml-src TLLTRXit47xVKqm359Q0IBQB10YC8C1ALct3ig9eNVUXBWngToInuf9RaYj3JGBaiNtl2NgEd267y4aw_5cbbJP-iSJvPkRZpFTHtt6PYxf0C7Ohi5_LfKWIowr060nUlO1tDPEsBc7CjgZXwTFVC5HbfIHA2-USBJKhawHY-Pej4PwP5TDO7C_dhruSFuFt2T1VliF_Cbrj3S-PyCKoNjQ2MQL_1MPWEiuY_Y17MIKpLUiS0p9hWqMUmnMJ4eK7lXks0JCkbm93rNEqc3SCikcvntzCzccxGKmr9UGgLFPVskbcV66fGwX8drkv3aOp61dBIsQvae4idRLXXypahC1xET9QQHg-raIvoOhHjiHRXPNWzezxETLym_8jf2KTB6Z-k_Hf-eqRZzW6JQ5LLUtlQRJ1fEKwDqho1X8_xyFIkR6QvVQIwUAHP3BGl5Y6bOQF-matwUqu7Vm75WuEsdEpvlQE2LxiM8QpvEEXD5jKwTPxZTiBbAXt5Qulzc4DxmFevI5s97EzhToSOOPBJXVVUYXz-Jyfr1lKnxNbmhHHI-_kPOSQmanPlxQkBvFUjLLfoSzKlaQRJg-epEzprBsweY5Xg1A21osBaikPgYqQbnJjNwBLF3UnlOCu1aVGE1g4VnyMGZqcqmnwlJTaFpY3oliCgbeOD0aTkGWvZKAcrXk-8Qz4a4b8Mz3lnqmkBPBbAzlJQ50MH4RvYJBHzPsZ8MFFSMWQd7a6XNUscpzkw5ecSLuCj9pHl0FTjyP0yN-eaRhwRkhBPiz9gEkYrnTKtac6PYIB6PfQs8GENOpMIq7jDuwwS-HWHzqc6dr1Y3XDeC69EMsnGQHt55nJu_cMnkzODAA3YjbL4hm0hp_qUeqPBcDg39qHP_kWsUC3bNcWzmKrPwBJtU4y_KNJbpfaNZpmo3Mj8Y46VaDU6eHqeWaZ_4gskOTdxAGGkvgwB9dUKhDl8LOq5-KHr3Xu53R1kBIg99uu2JHxZ56wVrptlSp34oZHq8IaejXSMQjAK0ltAq9wlb452aDxe6HwPNDmmd4YpLUCopD2F7tw1wQA6-Eq6IHgdC4Ssa3dosTu-kjFEEcVTYFuH-u6mQn5MNkoq3df_m35u7XTDfZcrmHmGQyiHqblRkVqvFjTdEarEQqcEJu7jg3LE5lGr9_3RvmgwuHa3kv61_Vw-gGE1JE6Nd4qW2nVWNOgRAuqUJkxISVGyV9-3IzthNzEPvEhoGLqNlPEJtUdLvFRsK_PrTi9TDv0FB_LVBb4xQRN8mavUz9boOowDcv7Euh_0W00?></g></svg>