<?plantuml 1.2026.2?><svg xmlns="http://www.w3.org/2000/svg" xmlns:xlink="http://www.w3.org/1999/xlink" contentStyleType="text/css" data-diagram-type="STATE" height="530px" preserveAspectRatio="none" style="width:1384px;height:530px;" version="1.1" viewBox="0 0 1384 530" width="1384px" zoomAndPan="magnify"><title>State Machines</title><defs/><g><g class="title" data-source-line="16"><text fill="#000000" font-family="'Helvetica, Arial, sans-serif'" font-size="22" font-weight="bold" lengthAdjust="spacing" textLength="160.166" x="604.4135" y="31.9404">State Machines</text></g><path d="M24.5,155 L228.4144,155 A12.5,12.5 0 0 1 240.9144,167.5 L240.9144,177 L12,177 L12,167.5 A12.5,12.5 0 0 1 24.5,155" fill="#F8F9FA"/><path d="M12,177 L240.9144,177 L240.9144,404.5 A12.5,12.5 0 0 1 228.4144,417 L24.5,417 A12.5,12.5 0 0 1 12,404.5 L12,177" fill="#FFFFFF"/><rect fill="none" height="262" rx="12.5" ry="12.5" style="stroke:#ADB5BD;stroke-width:1;" width="228.9144" x="12" y="155"/><line style="stroke:#ADB5BD;stroke-width:1;" x1="12" x2="240.9144" y1="177" y2="177"/><text fill="#212529" font-family="'Helvetica, Arial, sans-serif'" font-size="12" lengthAdjust="spacing" textLength="96.0117" x="78.4514" y="169.2402">User (server-side)</text><g class="entity" data-qualified-name="user_pkg.u_idle" id="ent0003"><rect fill="#F8F9FA" height="50" rx="12.5" ry="12.5" style="stroke:#ADB5BD;stroke-width:1;" width="50" x="58.5258" y="245"/><line style="stroke:#ADB5BD;stroke-width:1;" x1="58.5258" x2="108.5258" y1="267" y2="267"/><text fill="#212529" font-family="'Helvetica, Arial, sans-serif'" font-size="12" lengthAdjust="spacing" textLength="26.6777" x="70.1869" y="259.2402">IDLE</text></g><g class="entity" data-qualified-name="user_pkg.u_conn" id="ent0004"><rect fill="#F8F9FA" height="50" rx="12.5" ry="12.5" style="stroke:#ADB5BD;stroke-width:1;" width="111.0664" x="27.9958" y="357"/><line style="stroke:#ADB5BD;stroke-width:1;" x1="27.9958" x2="139.0622" y1="391" y2="391"/><text fill="#212529" font-family="'Helvetica, Arial, sans-serif'" font-size="12" lengthAdjust="spacing" textLength="76.002" x="37.9958" y="371.2402">CONNECTED</text><text fill="#212529" font-family="'Helvetica, Arial, sans-serif'" font-size="12" lengthAdjust="spacing" textLength="91.0664" x="37.9958" y="383.2402">peer = &lt;user_id&gt;</text></g><g class="start_entity" data-qualified-name="user_pkg..start.user_pkg" data-source-line="22" id="ent0002"><ellipse cx="83.5258" cy="198" fill="#FFFFFF" rx="10" ry="10" style="stroke:#000000;stroke-width:1;"/></g><!--link *start*user_pkg to u_idle--><g class="link" data-entity-1="ent0002" data-entity-2="ent0003" data-link-type="dependency" data-source-line="22" id="lnk3"><path d="M83.5258,208.44 C83.5258,217.7 83.5258,226.19 83.5258,238.68" fill="none" id="*start*user_pkg-to-u_idle" style="stroke:#495057;stroke-width:1;"/><polygon fill="#495057" points="83.5258,244.68,87.5258,235.68,83.5258,239.68,79.5258,235.68,83.5258,244.68" style="stroke:#495057;stroke-width:1;"/></g><!--link u_idle to u_conn--><g class="link" data-entity-1="ent0003" data-entity-2="ent0004" data-link-type="dependency" data-source-line="23" id="lnk4"><path d="M58.2958,283.38 C46.9858,290.38 34.8158,300.29 28.5258,313 C23.4058,323.36 23.4058,328.64 28.5258,339 C31.8258,345.68 32.3348,347.5235 37.9148,352.6435" fill="none" id="u_idle-to-u_conn" style="stroke:#495057;stroke-width:1;"/><polygon fill="#495057" points="42.3358,356.7,38.4087,347.6679,38.6516,353.3196,33,353.5626,42.3358,356.7" style="stroke:#495057;stroke-width:1;"/><text fill="#000000" font-family="'Helvetica, Arial, sans-serif'" font-size="12" lengthAdjust="spacing" textLength="88.7344" x="29.5258" y="323.2402">peer_connection</text><text fill="#000000" font-family="'Helvetica, Arial, sans-serif'" font-size="12" lengthAdjust="spacing" textLength="48.7031" x="49.5414" y="335.2402">accepted</text></g><!--link u_conn to u_idle--><g class="link" data-entity-1="ent0004" data-entity-2="ent0003" data-link-type="dependency" data-source-line="24" id="lnk5"><path d="M108.5258,356.6 C112.6258,351.22 116.2658,345.25 118.5258,339 C122.4658,328.13 122.4658,323.87 118.5258,313 C116.2658,306.75 116.2626,305.5522 112.1626,300.1722" fill="none" id="u_conn-to-u_idle" style="stroke:#495057;stroke-width:1;"/><polygon fill="#495057" points="108.5258,295.4,110.7995,304.9828,111.5564,299.3768,117.1624,300.1337,108.5258,295.4" style="stroke:#495057;stroke-width:1;"/><text fill="#000000" font-family="'Helvetica, Arial, sans-serif'" font-size="12" lengthAdjust="spacing" textLength="88.0605" x="132.1898" y="323.2402">disconnect_peer</text><text fill="#000000" font-family="'Helvetica, Arial, sans-serif'" font-size="12" lengthAdjust="spacing" textLength="109.3887" x="121.5258" y="335.2402">or socket disconnect</text></g><path d="M288.32,55 L616.5933,55 A12.5,12.5 0 0 1 629.0933,67.5 L629.0933,77 L275.82,77 L275.82,67.5 A12.5,12.5 0 0 1 288.32,55" fill="#F8F9FA"/><path d="M275.82,77 L629.0933,77 L629.0933,504.5 A12.5,12.5 0 0 1 616.5933,517 L288.32,517 A12.5,12.5 0 0 1 275.82,504.5 L275.82,77" fill="#FFFFFF"/><rect fill="none" height="462" rx="12.5" ry="12.5" style="stroke:#ADB5BD;stroke-width:1;" width="353.2733" x="275.82" y="55"/><line style="stroke:#ADB5BD;stroke-width:1;" x1="275.82" x2="629.0933" y1="77" y2="77"/><text fill="#212529" font-family="'Helvetica, Arial, sans-serif'" font-size="12" lengthAdjust="spacing" textLength="103.3652" x="400.774" y="69.2402">Client (middleware)</text><g class="entity" data-qualified-name="client_pkg.c_new" id="ent0006"><rect fill="#F8F9FA" height="50" rx="12.5" ry="12.5" style="stroke:#ADB5BD;stroke-width:1;" width="50" x="355.98" y="145"/><line style="stroke:#ADB5BD;stroke-width:1;" x1="355.98" x2="405.98" y1="167" y2="167"/><text fill="#212529" font-family="'Helvetica, Arial, sans-serif'" font-size="12" lengthAdjust="spacing" textLength="27.9961" x="366.982" y="159.2402">NEW</text></g><g class="entity" data-qualified-name="client_pkg.c_init" id="ent0007"><rect fill="#F8F9FA" height="50" rx="12.5" ry="12.5" style="stroke:#ADB5BD;stroke-width:1;" width="50" x="355.98" y="245"/><line style="stroke:#ADB5BD;stroke-width:1;" x1="355.98" x2="405.98" y1="267" y2="267"/><text fill="#212529" font-family="'Helvetica, Arial, sans-serif'" font-size="12" lengthAdjust="spacing" textLength="22.6641" x="369.648" y="259.2402">INIT</text></g><g class="entity" data-qualified-name="client_pkg.c_live" id="ent0008"><rect fill="#F8F9FA" height="50" rx="12.5" ry="12.5" style="stroke:#ADB5BD;stroke-width:1;" width="50" x="355.98" y="345"/><line style="stroke:#ADB5BD;stroke-width:1;" x1="355.98" x2="405.98" y1="367" y2="367"/><text fill="#212529" font-family="'Helvetica, Arial, sans-serif'" font-size="12" lengthAdjust="spacing" textLength="26.0156" x="367.9722" y="359.2402">LIVE</text></g><g class="entity" data-qualified-name="client_pkg.c_conn" id="ent0009"><rect fill="#F8F9FA" height="50" rx="12.5" ry="12.5" style="stroke:#ADB5BD;stroke-width:1;" width="96.002" x="332.98" y="457"/><line style="stroke:#ADB5BD;stroke-width:1;" x1="332.98" x2="428.982" y1="479" y2="479"/><text fill="#212529" font-family="'Helvetica, Arial, sans-serif'" font-size="12" lengthAdjust="spacing" textLength="76.002" x="342.98" y="471.2402">CONNECTED</text></g><g class="start_entity" data-qualified-name="client_pkg..start.client_pkg" data-source-line="33" id="ent0006"><ellipse cx="380.98" cy="98" fill="#FFFFFF" rx="10" ry="10" style="stroke:#000000;stroke-width:1;"/></g><!--link *start*client_pkg to c_new--><g class="link" data-entity-1="ent0006" data-entity-2="ent0006" data-link-type="dependency" data-source-line="33" id="lnk7"><path d="M380.98,108.44 C380.98,117.7 380.98,126.19 380.98,138.68" fill="none" id="*start*client_pkg-to-c_new" style="stroke:#495057;stroke-width:1;"/><polygon fill="#495057" points="380.98,144.68,384.98,135.68,380.98,139.68,376.98,135.68,380.98,144.68" style="stroke:#495057;stroke-width:1;"/></g><!--link c_new to c_init--><g class="link" data-entity-1="ent0006" data-entity-2="ent0007" data-link-type="dependency" data-source-line="34" id="lnk8"><path d="M380.98,195.48 C380.98,210.56 380.98,223.81 380.98,238.84" fill="none" id="c_new-to-c_init" style="stroke:#495057;stroke-width:1;"/><polygon fill="#495057" points="380.98,244.84,384.98,235.84,380.98,239.84,376.98,235.84,380.98,244.84" style="stroke:#495057;stroke-width:1;"/><text fill="#000000" font-family="'Helvetica, Arial, sans-serif'" font-size="12" lengthAdjust="spacing" textLength="76.6875" x="381.98" y="223.2402">ClientAPI.init()</text></g><!--link c_init to c_live--><g class="link" data-entity-1="ent0007" data-entity-2="ent0008" data-link-type="dependency" data-source-line="35" id="lnk9"><path d="M380.98,295.48 C380.98,310.56 380.98,323.81 380.98,338.84" fill="none" id="c_init-to-c_live" style="stroke:#495057;stroke-width:1;"/><polygon fill="#495057" points="380.98,344.84,384.98,335.84,380.98,339.84,376.98,335.84,380.98,344.84" style="stroke:#495057;stroke-width:1;"/><text fill="#000000" font-family="'Helvetica, Arial, sans-serif'" font-size="12" lengthAdjust="spacing" textLength="100.0371" x="381.98" y="323.2402">connect() to server</text></g><!--link c_live to c_conn--><g class="link" data-entity-1="ent0008" data-entity-2="ent0009" data-link-type="dependency" data-source-line="36" id="lnk10"><path d="M355.6,375.49 C334.79,380.65 306.62,391.38 292.98,413 C286.82,422.77 286.82,429.23 292.98,439 C302.02,453.32 311.8669,460.5876 327.2869,466.8976" fill="none" id="c_live-to-c_conn" style="stroke:#495057;stroke-width:1;"/><polygon fill="#495057" points="332.84,469.17,326.0253,462.0594,328.2125,467.2764,322.9955,469.4635,332.84,469.17" style="stroke:#495057;stroke-width:1;"/><text fill="#000000" font-family="'Helvetica, Arial, sans-serif'" font-size="12" lengthAdjust="spacing" textLength="97.3945" x="322.0025" y="423.2402">connect_to_peer()</text><text fill="#000000" font-family="'Helvetica, Arial, sans-serif'" font-size="12" lengthAdjust="spacing" textLength="153.4395" x="293.98" y="435.2402">or handle_peer_connection()</text></g><!--link c_conn to c_live--><g class="link" data-entity-1="ent0009" data-entity-2="ent0008" data-link-type="dependency" data-source-line="37" id="lnk11"><path d="M429.34,459.28 C436.82,453.76 443.53,447.05 447.98,439 C453.58,428.89 453.58,423.11 447.98,413 C439.14,397.02 426.8919,388.7264 411.8919,382.1264" fill="none" id="c_conn-to-c_live" style="stroke:#495057;stroke-width:1;"/><polygon fill="#495057" points="406.4,379.71,413.0269,386.9959,410.9766,381.7237,416.2488,379.6734,406.4,379.71" style="stroke:#495057;stroke-width:1;"/><text fill="#000000" font-family="'Helvetica, Arial, sans-serif'" font-size="12" lengthAdjust="spacing" textLength="126.7266" x="472.6734" y="423.2402">disconnect_from_peer()</text><text fill="#000000" font-family="'Helvetica, Arial, sans-serif'" font-size="12" lengthAdjust="spacing" textLength="166.1133" x="452.98" y="435.2402">or handle_peer_disconnected()</text></g><path d="M676.44,161 L882.4796,161 A12.5,12.5 0 0 1 894.9796,173.5 L894.9796,183 L663.94,183 L663.94,173.5 A12.5,12.5 0 0 1 676.44,161" fill="#F8F9FA"/><path d="M663.94,183 L894.9796,183 L894.9796,398.5 A12.5,12.5 0 0 1 882.4796,411 L676.44,411 A12.5,12.5 0 0 1 663.94,398.5 L663.94,183" fill="#FFFFFF"/><rect fill="none" height="250" rx="12.5" ry="12.5" style="stroke:#ADB5BD;stroke-width:1;" width="231.0396" x="663.94" y="161"/><line style="stroke:#ADB5BD;stroke-width:1;" x1="663.94" x2="894.9796" y1="183" y2="183"/><text fill="#212529" font-family="'Helvetica, Arial, sans-serif'" font-size="12" lengthAdjust="spacing" textLength="139.3945" x="709.7625" y="175.2402">Frontend &#8212; Server Status</text><g class="entity" data-qualified-name="fe_server.s_conn" id="ent0011"><rect fill="#F8F9FA" height="50" rx="12.5" ry="12.5" style="stroke:#ADB5BD;stroke-width:1;" width="78.043" x="734.61" y="251"/><line style="stroke:#ADB5BD;stroke-width:1;" x1="734.61" x2="812.653" y1="273" y2="273"/><text fill="#212529" font-family="'Helvetica, Arial, sans-serif'" font-size="12" lengthAdjust="spacing" textLength="58.043" x="744.61" y="265.2402">connecting</text></g><g class="entity" data-qualified-name="fe_server.s_ok" id="ent0012"><rect fill="#F8F9FA" height="50" rx="12.5" ry="12.5" style="stroke:#ADB5BD;stroke-width:1;" width="75.377" x="675.94" y="351"/><line style="stroke:#ADB5BD;stroke-width:1;" x1="675.94" x2="751.317" y1="373" y2="373"/><text fill="#212529" font-family="'Helvetica, Arial, sans-serif'" font-size="12" lengthAdjust="spacing" textLength="55.377" x="685.94" y="365.2402">connected</text></g><g class="entity" data-qualified-name="fe_server.s_err" id="ent0013"><rect fill="#F8F9FA" height="50" rx="12.5" ry="12.5" style="stroke:#ADB5BD;stroke-width:1;" width="50" x="808.63" y="351"/><line style="stroke:#ADB5BD;stroke-width:1;" x1="808.63" x2="858.63" y1="373" y2="373"/><text fill="#212529" font-family="'Helvetica, Arial, sans-serif'" font-size="12" lengthAdjust="spacing" textLength="25.3359" x="820.962" y="365.2402">error</text></g><g class="start_entity" data-qualified-name="fe_server..start.fe_server" data-source-line="45" id="ent0012"><ellipse cx="773.63" cy="204" fill="#FFFFFF" rx="10" ry="10" style="stroke:#000000;stroke-width:1;"/></g><!--link *start*fe_server to s_conn--><g class="link" data-entity-1="ent0012" data-entity-2="ent0011" data-link-type="dependency" data-source-line="45" id="lnk13"><path d="M773.63,214.44 C773.63,223.7 773.63,232.19 773.63,244.68" fill="none" id="*start*fe_server-to-s_conn" style="stroke:#495057;stroke-width:1;"/><polygon fill="#495057" points="773.63,250.68,777.63,241.68,773.63,245.68,769.63,241.68,773.63,250.68" style="stroke:#495057;stroke-width:1;"/></g><!--link s_conn to s_ok--><g class="link" data-entity-1="ent0011" data-entity-2="ent0012" data-link-type="dependency" data-source-line="46" id="lnk14"><path d="M734.35,297.1 C726.46,303.04 719.2,310.32 714.63,319 C709.6,328.55 708.3675,334.3616 709.0075,344.6516" fill="none" id="s_conn-to-s_ok" style="stroke:#495057;stroke-width:1;"/><polygon fill="#495057" points="709.38,350.64,712.8136,341.4091,709.0696,345.6496,704.829,341.9057,709.38,350.64" style="stroke:#495057;stroke-width:1;"/><text fill="#000000" font-family="'Helvetica, Arial, sans-serif'" font-size="12" lengthAdjust="spacing" textLength="95.3906" x="715.63" y="329.2402">server_connected</text></g><!--link s_conn to s_err--><g class="link" data-entity-1="ent0011" data-entity-2="ent0013" data-link-type="dependency" data-source-line="47" id="lnk15"><path d="M798.13,301.12 C803,306.7 807.79,312.82 811.63,319 C817.68,328.77 820.5848,334.8285 824.2148,345.0085" fill="none" id="s_conn-to-s_err" style="stroke:#495057;stroke-width:1;"/><polygon fill="#495057" points="826.23,350.66,826.9748,340.8393,824.5507,345.9505,819.4396,343.5263,826.23,350.66" style="stroke:#495057;stroke-width:1;"/><text fill="#000000" font-family="'Helvetica, Arial, sans-serif'" font-size="12" lengthAdjust="spacing" textLength="65.3496" x="819.63" y="329.2402">server_error</text></g><path d="M942.43,61 L1358.493,61 A12.5,12.5 0 0 1 1370.993,73.5 L1370.993,83 L929.93,83 L929.93,73.5 A12.5,12.5 0 0 1 942.43,61" fill="#F8F9FA"/><path d="M929.93,83 L1370.993,83 L1370.993,498.5 A12.5,12.5 0 0 1 1358.493,511 L942.43,511 A12.5,12.5 0 0 1 929.93,498.5 L929.93,83" fill="#FFFFFF"/><rect fill="none" height="450" rx="12.5" ry="12.5" style="stroke:#ADB5BD;stroke-width:1;" width="441.063" x="929.93" y="61"/><line style="stroke:#ADB5BD;stroke-width:1;" x1="929.93" x2="1370.993" y1="83" y2="83"/><text fill="#212529" font-family="'Helvetica, Arial, sans-serif'" font-size="12" lengthAdjust="spacing" textLength="129.3984" x="1085.7623" y="75.2402">Frontend &#8212; Peer Status</text><g class="entity" data-qualified-name="fe_peer.p_idle" id="ent0015"><rect fill="#F8F9FA" height="50" rx="12.5" ry="12.5" style="stroke:#ADB5BD;stroke-width:1;" width="50" x="1062.95" y="151"/><line style="stroke:#ADB5BD;stroke-width:1;" x1="1062.95" x2="1112.95" y1="173" y2="173"/><text fill="#212529" font-family="'Helvetica, Arial, sans-serif'" font-size="12" lengthAdjust="spacing" textLength="18.6797" x="1078.6102" y="165.2402">idle</text></g><g class="entity" data-qualified-name="fe_peer.p_out" id="ent0016"><rect fill="#F8F9FA" height="50" rx="12.5" ry="12.5" style="stroke:#ADB5BD;stroke-width:1;" width="66.043" x="941.93" y="251"/><line style="stroke:#ADB5BD;stroke-width:1;" x1="941.93" x2="1007.973" y1="273" y2="273"/><text fill="#212529" font-family="'Helvetica, Arial, sans-serif'" font-size="12" lengthAdjust="spacing" textLength="46.043" x="951.93" y="265.2402">outgoing</text></g><g class="entity" data-qualified-name="fe_peer.p_in" id="ent0017"><rect fill="#F8F9FA" height="50" rx="12.5" ry="12.5" style="stroke:#ADB5BD;stroke-width:1;" width="68.0234" x="1053.94" y="251"/><line style="stroke:#ADB5BD;stroke-width:1;" x1="1053.94" x2="1121.9634" y1="273" y2="273"/><text fill="#212529" font-family="'Helvetica, Arial, sans-serif'" font-size="12" lengthAdjust="spacing" textLength="48.0234" x="1063.94" y="265.2402">incoming</text></g><g class="entity" data-qualified-name="fe_peer.p_conn" id="ent0018"><rect fill="#F8F9FA" height="50" rx="12.5" ry="12.5" style="stroke:#ADB5BD;stroke-width:1;" width="75.377" x="1050.26" y="351"/><line style="stroke:#ADB5BD;stroke-width:1;" x1="1050.26" x2="1125.637" y1="373" y2="373"/><text fill="#212529" font-family="'Helvetica, Arial, sans-serif'" font-size="12" lengthAdjust="spacing" textLength="55.377" x="1060.26" y="365.2402">connected</text></g><g class="entity" data-qualified-name="fe_peer.p_disc" id="ent0019"><rect fill="#F8F9FA" height="50" rx="12.5" ry="12.5" style="stroke:#ADB5BD;stroke-width:1;" width="90.7168" x="1119.59" y="451"/><line style="stroke:#ADB5BD;stroke-width:1;" x1="1119.59" x2="1210.3068" y1="473" y2="473"/><text fill="#212529" font-family="'Helvetica, Arial, sans-serif'" font-size="12" lengthAdjust="spacing" textLength="70.7168" x="1129.59" y="465.2402">disconnected</text></g><g class="start_entity" data-qualified-name="fe_peer..start.fe_peer" data-source-line="57" id="ent0016"><ellipse cx="1087.95" cy="104" fill="#FFFFFF" rx="10" ry="10" style="stroke:#000000;stroke-width:1;"/></g><!--link *start*fe_peer to p_idle--><g class="link" data-entity-1="ent0016" data-entity-2="ent0015" data-link-type="dependency" data-source-line="57" id="lnk17"><path d="M1087.95,114.44 C1087.95,123.7 1087.95,132.19 1087.95,144.68" fill="none" id="*start*fe_peer-to-p_idle" style="stroke:#495057;stroke-width:1;"/><polygon fill="#495057" points="1087.95,150.68,1091.95,141.68,1087.95,145.68,1083.95,141.68,1087.95,150.68" style="stroke:#495057;stroke-width:1;"/></g><!--link p_idle to p_out--><g class="link" data-entity-1="ent0015" data-entity-2="ent0016" data-link-type="dependency" data-source-line="58" id="lnk18"><path d="M1062.73,182.08 C1041.34,187.64 1011.29,198.63 992.95,219 C985.1,227.73 982.0267,234.0754 979.5267,244.8454" fill="none" id="p_idle-to-p_out" style="stroke:#495057;stroke-width:1;"/><polygon fill="#495057" points="978.17,250.69,984.1014,242.8276,979.3006,245.8195,976.3086,241.0186,978.17,250.69" style="stroke:#495057;stroke-width:1;"/><text fill="#000000" font-family="'Helvetica, Arial, sans-serif'" font-size="12" lengthAdjust="spacing" textLength="89.4023" x="993.95" y="229.2402">connect_to_peer</text></g><!--link p_idle to p_in--><g class="link" data-entity-1="ent0015" data-entity-2="ent0017" data-link-type="dependency" data-source-line="59" id="lnk19"><path d="M1087.95,201.48 C1087.95,216.56 1087.95,229.81 1087.95,244.84" fill="none" id="p_idle-to-p_in" style="stroke:#495057;stroke-width:1;"/><polygon fill="#495057" points="1087.95,250.84,1091.95,241.84,1087.95,245.84,1083.95,241.84,1087.95,250.84" style="stroke:#495057;stroke-width:1;"/><text fill="#000000" font-family="'Helvetica, Arial, sans-serif'" font-size="12" lengthAdjust="spacing" textLength="137.4258" x="1088.95" y="229.2402">peer_connection received</text></g><!--link p_out to p_conn--><g class="link" data-entity-1="ent0016" data-entity-2="ent0018" data-link-type="dependency" data-source-line="60" id="lnk20"><path d="M979.63,301.3 C982.74,312.08 987.81,324.27 995.95,333 C1010.32,348.41 1025.7817,356.604 1044.1517,363.084" fill="none" id="p_out-to-p_conn" style="stroke:#495057;stroke-width:1;"/><polygon fill="#495057" points="1049.81,365.08,1042.6532,358.3139,1045.0948,363.4167,1039.9919,365.8583,1049.81,365.08" style="stroke:#495057;stroke-width:1;"/><text fill="#000000" font-family="'Helvetica, Arial, sans-serif'" font-size="12" lengthAdjust="spacing" textLength="86.0684" x="996.95" y="329.2402">peer_connected</text></g><!--link p_in to p_conn--><g class="link" data-entity-1="ent0017" data-entity-2="ent0018" data-link-type="dependency" data-source-line="61" id="lnk21"><path d="M1087.95,301.48 C1087.95,316.56 1087.95,329.81 1087.95,344.84" fill="none" id="p_in-to-p_conn" style="stroke:#495057;stroke-width:1;"/><polygon fill="#495057" points="1087.95,350.84,1091.95,341.84,1087.95,345.84,1083.95,341.84,1087.95,350.84" style="stroke:#495057;stroke-width:1;"/><text fill="#000000" font-family="'Helvetica, Arial, sans-serif'" font-size="12" lengthAdjust="spacing" textLength="86.0684" x="1088.95" y="329.2402">peer_connected</text></g><!--link p_conn to p_disc--><g class="link" data-entity-1="ent0018" data-entity-2="ent0019" data-link-type="dependency" data-source-line="62" id="lnk22"><path d="M1102.71,401.36 C1109.16,411.44 1117.04,423.06 1124.95,433 C1129.72,438.99 1131.0746,440.7445 1136.3946,446.4145" fill="none" id="p_conn-to-p_disc" style="stroke:#495057;stroke-width:1;"/><polygon fill="#495057" points="1140.5,450.79,1137.2589,441.4897,1137.0788,447.1437,1131.4248,446.9637,1140.5,450.79" style="stroke:#495057;stroke-width:1;"/><text fill="#000000" font-family="'Helvetica, Arial, sans-serif'" font-size="12" lengthAdjust="spacing" textLength="101.4082" x="1125.95" y="429.2402">peer_disconnected</text></g><!--link p_disc to p_idle--><g class="link" data-entity-1="ent0019" data-entity-2="ent0015" data-link-type="dependency" data-source-line="63" id="lnk23"><path d="M1210.78,452.58 C1217.69,447.15 1223.86,440.65 1227.95,433 C1272.83,349.14 1284.73,295.31 1227.95,219 C1201.52,183.47 1152.069,176.9822 1119.449,176.3722" fill="none" id="p_disc-to-p_idle" style="stroke:#495057;stroke-width:1;"/><polygon fill="#495057" points="1113.45,176.26,1122.3736,180.4276,1118.4491,176.3535,1122.5232,172.429,1113.45,176.26" style="stroke:#495057;stroke-width:1;"/><text fill="#000000" font-family="'Helvetica, Arial, sans-serif'" font-size="12" lengthAdjust="spacing" textLength="94.043" x="1266.95" y="329.2402">ready for new call</text></g><?plantuml-src ZLHTZn8n57tdLrHy0RCObqWKevl00f5anKrOzK7Cf4ulq32qaxP0r9Zu8_o5_X9lFsQciyCQUI3bddDFxpstbqTc2tiWUKQvQEaT5pbLT4--qdItKV8WsBNCf296KQ4H0c4Y5eCrFMHc9eLPK5HfluNi28Qdz8AC5AVP1T6OrzEW-BfzFd79lmEvx4UWtb8cJrnio9fc6benPAW1ygD5y3E-L-BZsSlPS3Roc5GCL8YF9kF1UEBYzi8GxL_s1_sXYouDLKNu-N3mRF32XQUbSXGSAILFzV3FLijmau7LmUhUqNJB1MYis_rkVy3sIGU_Zg1wcZFejWdLv82H9DzjGZk1F9_SJ3sSS9P135s_NoocrtVJoKhaW99lo6kdmTbLo4Yb42sNyld95zBhNSKg_XYYbabU4QlZpf0QBiLAq3I5t00B6OvMwM06uphm4vky4cY4bkaEJ0HPIugYCuvlXdJsdA702L-GxpvryMR_Y-adZoS2JZLZ5lExW731JGpTp3zE0vJnutdF0jvqgBh8dKBCNe7T-kf7j_EdDj3f1fv3FT5UYCJGUATBZ2H-r87h29uRJ2_yCz9PsEaw4xTKe479lOcKLvQJAA-C9h5MSl-GLaK3XchLP6OAbm448tz-_IPBLx9xmGVjl5f3ulkepwSeJMmSItj7cmHW0PUx60LS7nKGFDT74OjL3Li9RDSNavJoJHhgLJntqKFTtaAZLxTHjKxjWtTetjX4UJ0RMLYG9_YpbYXIkQzG_WzxyePzyRW2nORgHaKLvTLMkqAQxwj9usTMdoX80HyM2tGhvTbd_YfA5XV_GIf7v5ifQ76dWUdWga5aAg3i6rdZcxQxcT8imvd-1G00?></g></svg>