<?plantuml 1.2026.2?><svg xmlns="http://www.w3.org/2000/svg" xmlns:xlink="http://www.w3.org/1999/xlink" contentStyleType="text/css" data-diagram-type="STATE" height="626px" preserveAspectRatio="none" style="width:1658px;height:626px;" version="1.1" viewBox="0 0 1658 626" width="1658px" zoomAndPan="magnify"><title>State Machines</title><defs/><g><g class="title" data-source-line="3"><text fill="#000000" font-family="'Segoe UI, Helvetica, Arial, sans-serif'" font-size="22" font-weight="bold" lengthAdjust="spacing" textLength="190.9639" x="729.395" y="41.4209">State Machines</text></g><path d="M16,184.6094 L292.6619,184.6094 A4,4 0 0 1 296.6619,188.6094 L296.6619,220.5781 L12,220.5781 L12,188.6094 A4,4 0 0 1 16,184.6094" fill="#F8F9FA"/><path d="M12,220.5781 L296.6619,220.5781 L296.6619,501.5156 A4,4 0 0 1 292.6619,505.5156 L16,505.5156 A4,4 0 0 1 12,501.5156 L12,220.5781" fill="#FFFFFF"/><rect fill="none" height="320.9063" rx="4" ry="4" style="stroke:#ADB5BD;stroke-width:1;" width="284.6619" x="12" y="184.6094"/><line style="stroke:#ADB5BD;stroke-width:1;" x1="12" x2="296.6619" y1="220.5781" y2="220.5781"/><text fill="#212529" font-family="'Segoe UI, Helvetica, Arial, sans-serif'" font-size="12" lengthAdjust="spacing" textLength="107.4316" x="100.6151" y="206.748">User (server-side)</text><g class="entity" data-qualified-name="user_pkg.u_idle" id="ent0003"><rect fill="#F8F9FA" height="57.9688" rx="4" ry="4" style="stroke:#ADB5BD;stroke-width:1;" width="59.0469" x="68.99" y="288.5781"/><line style="stroke:#ADB5BD;stroke-width:1;" x1="68.99" x2="128.0369" y1="324.5469" y2="324.5469"/><text fill="#212529" font-family="'Segoe UI, Helvetica, Arial, sans-serif'" font-size="12" lengthAdjust="spacing" textLength="27.0469" x="84.99" y="310.7168">IDLE</text></g><g class="entity" data-qualified-name="user_pkg.u_conn" id="ent0004"><rect fill="#F8F9FA" height="71.9375" rx="4" ry="4" style="stroke:#ADB5BD;stroke-width:1;" width="140.2344" x="28.49" y="423.5781"/><line style="stroke:#ADB5BD;stroke-width:1;" x1="28.49" x2="168.7244" y1="473.5156" y2="473.5156"/><text fill="#212529" font-family="'Segoe UI, Helvetica, Arial, sans-serif'" font-size="12" lengthAdjust="spacing" textLength="75.8906" x="44.49" y="445.7168">CONNECTED</text><text fill="#212529" font-family="'Segoe UI, Helvetica, Arial, sans-serif'" font-size="12" lengthAdjust="spacing" textLength="108.2344" x="44.49" y="459.6855">peer = &lt;user_id&gt;</text></g><g class="start_entity" data-qualified-name="user_pkg..start.user_pkg" data-source-line="9" id="ent0002"><ellipse cx="98.49" cy="241.5781" fill="#FFFFFF" rx="10" ry="10" style="stroke:#000000;stroke-width:1;"/></g><!--link *start*user_pkg to u_idle--><g class="link" data-entity-1="ent0002" data-entity-2="ent0003" data-link-type="dependency" data-source-line="9" id="lnk3"><path d="M98.49,251.6481 C98.49,260.7581 98.49,269.2681 98.49,282.2581" fill="none" id="*start*user_pkg-to-u_idle" style="stroke:#495057;stroke-width:1;"/><polygon fill="#495057" points="98.49,288.2581,102.49,279.2581,98.49,283.2581,94.49,279.2581,98.49,288.2581" style="stroke:#495057;stroke-width:1;"/></g><!--link u_idle to u_conn--><g class="link" data-entity-1="ent0003" data-entity-2="ent0004" data-link-type="dependency" data-source-line="10" id="lnk4"><path d="M68.88,330.8581 C54.84,338.3681 39.44,349.4681 31.49,364.5781 C23,380.6981 23.55,389.1781 31.49,405.5781 C34.65,412.1181 34.9534,413.7237 40.0134,419.1137" fill="none" id="u_idle-to-u_conn" style="stroke:#495057;stroke-width:1;"/><polygon fill="#495057" points="44.12,423.4881,40.8764,414.1887,40.6978,419.8428,35.0438,419.6642,44.12,423.4881" style="stroke:#495057;stroke-width:1;"/><text fill="#000000" font-family="'Segoe UI, Helvetica, Arial, sans-serif'" font-size="12" lengthAdjust="spacing" textLength="99.4336" x="38.49" y="382.7168">peer_connection</text><text fill="#000000" font-family="'Segoe UI, Helvetica, Arial, sans-serif'" font-size="12" lengthAdjust="spacing" textLength="55.2539" x="60.5798" y="396.6855">accepted</text></g><!--link u_conn to u_idle--><g class="link" data-entity-1="ent0004" data-entity-2="ent0003" data-link-type="dependency" data-source-line="11" id="lnk5"><path d="M134.7,423.4781 C138.68,417.8781 142.14,411.8581 144.49,405.5781 C150.86,388.5081 151.46,381.4181 144.49,364.5781 C140.94,356.0181 139.1505,352.5125 132.6405,345.8725" fill="none" id="u_conn-to-u_idle" style="stroke:#495057;stroke-width:1;"/><polygon fill="#495057" points="128.44,341.5881,131.8845,350.815,131.9404,345.1584,137.597,345.2144,128.44,341.5881" style="stroke:#495057;stroke-width:1;"/><text fill="#000000" font-family="'Segoe UI, Helvetica, Arial, sans-serif'" font-size="12" lengthAdjust="spacing" textLength="98.3555" x="169.3982" y="382.7168">disconnect_peer</text><text fill="#000000" font-family="'Segoe UI, Helvetica, Arial, sans-serif'" font-size="12" lengthAdjust="spacing" textLength="124.1719" x="156.49" y="396.6855">or socket disconnect</text></g><path d="M336,70.6094 L748.627,70.6094 A4,4 0 0 1 752.627,74.6094 L752.627,106.5781 L332,106.5781 L332,74.6094 A4,4 0 0 1 336,70.6094" fill="#F8F9FA"/><path d="M332,106.5781 L752.627,106.5781 L752.627,615.5469 A4,4 0 0 1 748.627,619.5469 L336,619.5469 A4,4 0 0 1 332,615.5469 L332,106.5781" fill="#FFFFFF"/><rect fill="none" height="548.9375" rx="4" ry="4" style="stroke:#ADB5BD;stroke-width:1;" width="420.627" x="332" y="70.6094"/><line style="stroke:#ADB5BD;stroke-width:1;" x1="332" x2="752.627" y1="106.5781" y2="106.5781"/><text fill="#212529" font-family="'Segoe UI, Helvetica, Arial, sans-serif'" font-size="12" lengthAdjust="spacing" textLength="118.377" x="483.125" y="92.748">Client (middleware)</text><g class="entity" data-qualified-name="client_pkg.c_new" id="ent0006"><rect fill="#F8F9FA" height="57.9688" rx="4" ry="4" style="stroke:#ADB5BD;stroke-width:1;" width="60.4238" x="425.92" y="174.5781"/><line style="stroke:#ADB5BD;stroke-width:1;" x1="425.92" x2="486.3438" y1="210.5469" y2="210.5469"/><text fill="#212529" font-family="'Segoe UI, Helvetica, Arial, sans-serif'" font-size="12" lengthAdjust="spacing" textLength="28.4238" x="441.92" y="196.7168">NEW</text></g><g class="entity" data-qualified-name="client_pkg.c_init" id="ent0007"><rect fill="#F8F9FA" height="57.9688" rx="4" ry="4" style="stroke:#ADB5BD;stroke-width:1;" width="55.3848" x="428.42" y="295.5781"/><line style="stroke:#ADB5BD;stroke-width:1;" x1="428.42" x2="483.8048" y1="331.5469" y2="331.5469"/><text fill="#212529" font-family="'Segoe UI, Helvetica, Arial, sans-serif'" font-size="12" lengthAdjust="spacing" textLength="23.3848" x="444.42" y="317.7168">INIT</text></g><g class="entity" data-qualified-name="client_pkg.c_live" id="ent0008"><rect fill="#F8F9FA" height="57.9688" rx="4" ry="4" style="stroke:#ADB5BD;stroke-width:1;" width="58.0156" x="426.92" y="416.5781"/><line style="stroke:#ADB5BD;stroke-width:1;" x1="426.92" x2="484.9356" y1="452.5469" y2="452.5469"/><text fill="#212529" font-family="'Segoe UI, Helvetica, Arial, sans-serif'" font-size="12" lengthAdjust="spacing" textLength="26.0156" x="442.92" y="438.7168">LIVE</text></g><g class="entity" data-qualified-name="client_pkg.c_conn" id="ent0009"><rect fill="#F8F9FA" height="57.9688" rx="4" ry="4" style="stroke:#ADB5BD;stroke-width:1;" width="107.8906" x="401.92" y="551.5781"/><line style="stroke:#ADB5BD;stroke-width:1;" x1="401.92" x2="509.8106" y1="587.5469" y2="587.5469"/><text fill="#212529" font-family="'Segoe UI, Helvetica, Arial, sans-serif'" font-size="12" lengthAdjust="spacing" textLength="75.8906" x="417.92" y="573.7168">CONNECTED</text></g><g class="start_entity" data-qualified-name="client_pkg..start.client_pkg" data-source-line="20" id="ent0006"><ellipse cx="455.92" cy="127.5781" fill="#FFFFFF" rx="10" ry="10" style="stroke:#000000;stroke-width:1;"/></g><!--link *start*client_pkg to c_new--><g class="link" data-entity-1="ent0006" data-entity-2="ent0006" data-link-type="dependency" data-source-line="20" id="lnk7"><path d="M455.92,137.6481 C455.92,146.7581 455.92,155.2681 455.92,168.2581" fill="none" id="*start*client_pkg-to-c_new" style="stroke:#495057;stroke-width:1;"/><polygon fill="#495057" points="455.92,174.2581,459.92,165.2581,455.92,169.2581,451.92,165.2581,455.92,174.2581" style="stroke:#495057;stroke-width:1;"/></g><!--link c_new to c_init--><g class="link" data-entity-1="ent0006" data-entity-2="ent0007" data-link-type="dependency" data-source-line="21" id="lnk8"><path d="M455.92,232.7781 C455.92,251.6081 455.92,270.2881 455.92,289.1681" fill="none" id="c_new-to-c_init" style="stroke:#495057;stroke-width:1;"/><polygon fill="#495057" points="455.92,295.1681,459.92,286.1681,455.92,290.1681,451.92,286.1681,455.92,295.1681" style="stroke:#495057;stroke-width:1;"/><text fill="#000000" font-family="'Segoe UI, Helvetica, Arial, sans-serif'" font-size="12" lengthAdjust="spacing" textLength="85.8809" x="462.92" y="268.7168">ClientAPI.init()</text></g><!--link c_init to c_live--><g class="link" data-entity-1="ent0007" data-entity-2="ent0008" data-link-type="dependency" data-source-line="22" id="lnk9"><path d="M455.92,353.7781 C455.92,372.6081 455.92,391.2881 455.92,410.1681" fill="none" id="c_init-to-c_live" style="stroke:#495057;stroke-width:1;"/><polygon fill="#495057" points="455.92,416.1681,459.92,407.1681,455.92,411.1681,451.92,407.1681,455.92,416.1681" style="stroke:#495057;stroke-width:1;"/><text fill="#000000" font-family="'Segoe UI, Helvetica, Arial, sans-serif'" font-size="12" lengthAdjust="spacing" textLength="114.8613" x="462.92" y="389.7168">connect() to server</text></g><!--link c_live to c_conn--><g class="link" data-entity-1="ent0008" data-entity-2="ent0009" data-link-type="dependency" data-source-line="23" id="lnk10"><path d="M426.75,450.8181 C402.39,456.0681 369.12,467.6081 352.92,492.5781 C343,507.8681 343,518.2881 352.92,533.5781 C364,550.6681 377.4398,559.4115 396.1798,566.2115" fill="none" id="c_live-to-c_conn" style="stroke:#495057;stroke-width:1;"/><polygon fill="#495057" points="401.82,568.2581,394.7241,561.4281,397.1199,566.5526,391.9954,568.9483,401.82,568.2581" style="stroke:#495057;stroke-width:1;"/><text fill="#000000" font-family="'Segoe UI, Helvetica, Arial, sans-serif'" font-size="12" lengthAdjust="spacing" textLength="108.5625" x="391.5313" y="510.7168">connect_to_peer()</text><text fill="#000000" font-family="'Segoe UI, Helvetica, Arial, sans-serif'" font-size="12" lengthAdjust="spacing" textLength="171.7852" x="359.92" y="524.6855">or handle_peer_connection()</text></g><!--link c_conn to c_live--><g class="link" data-entity-1="ent0009" data-entity-2="ent0008" data-link-type="dependency" data-source-line="24" id="lnk11"><path d="M509.96,559.9781 C521.1,553.3481 531.4,544.7081 537.92,533.5781 C547.13,517.8581 547.13,508.2981 537.92,492.5781 C526.62,473.2781 509.5654,463.5278 490.9054,456.7078" fill="none" id="c_conn-to-c_live" style="stroke:#495057;stroke-width:1;"/><polygon fill="#495057" points="485.27,454.6481,492.35,461.4946,489.9662,456.3645,495.0962,453.9807,485.27,454.6481" style="stroke:#495057;stroke-width:1;"/><text fill="#000000" font-family="'Segoe UI, Helvetica, Arial, sans-serif'" font-size="12" lengthAdjust="spacing" textLength="141.9082" x="572.8194" y="510.7168">disconnect_from_peer()</text><text fill="#000000" font-family="'Segoe UI, Helvetica, Arial, sans-serif'" font-size="12" lengthAdjust="spacing" textLength="185.707" x="550.92" y="524.6855">or handle_peer_disconnected()</text></g><path d="M792.5,198.6094 L1074.5117,198.6094 A4,4 0 0 1 1078.5117,202.6094 L1078.5117,234.5781 L788.5,234.5781 L788.5,202.6094 A4,4 0 0 1 792.5,198.6094" fill="#F8F9FA"/><path d="M788.5,234.5781 L1078.5117,234.5781 L1078.5117,487.5469 A4,4 0 0 1 1074.5117,491.5469 L792.5,491.5469 A4,4 0 0 1 788.5,487.5469 L788.5,234.5781" fill="#FFFFFF"/><rect fill="none" height="292.9375" rx="4" ry="4" style="stroke:#ADB5BD;stroke-width:1;" width="290.0117" x="788.5" y="198.6094"/><line style="stroke:#ADB5BD;stroke-width:1;" x1="788.5" x2="1078.5117" y1="234.5781" y2="234.5781"/><text fill="#212529" font-family="'Segoe UI, Helvetica, Arial, sans-serif'" font-size="12" lengthAdjust="spacing" textLength="155.127" x="855.9424" y="220.748">Frontend &#8212; Server Status</text><g class="entity" data-qualified-name="fe_server.s_conn" id="ent0011"><rect fill="#F8F9FA" height="57.9688" rx="4" ry="4" style="stroke:#ADB5BD;stroke-width:1;" width="98.3926" x="870" y="302.5781"/><line style="stroke:#ADB5BD;stroke-width:1;" x1="870" x2="968.3926" y1="338.5469" y2="338.5469"/><text fill="#212529" font-family="'Segoe UI, Helvetica, Arial, sans-serif'" font-size="12" lengthAdjust="spacing" textLength="66.3926" x="886" y="324.7168">connecting</text></g><g class="entity" data-qualified-name="fe_server.s_ok" id="ent0012"><rect fill="#F8F9FA" height="57.9688" rx="4" ry="4" style="stroke:#ADB5BD;stroke-width:1;" width="94.8359" x="800.5" y="423.5781"/><line style="stroke:#ADB5BD;stroke-width:1;" x1="800.5" x2="895.3359" y1="459.5469" y2="459.5469"/><text fill="#212529" font-family="'Segoe UI, Helvetica, Arial, sans-serif'" font-size="12" lengthAdjust="spacing" textLength="62.8359" x="816.5" y="445.7168">connected</text></g><g class="entity" data-qualified-name="fe_server.s_err" id="ent0013"><rect fill="#F8F9FA" height="57.9688" rx="4" ry="4" style="stroke:#ADB5BD;stroke-width:1;" width="61.5254" x="960" y="423.5781"/><line style="stroke:#ADB5BD;stroke-width:1;" x1="960" x2="1021.5254" y1="459.5469" y2="459.5469"/><text fill="#212529" font-family="'Segoe UI, Helvetica, Arial, sans-serif'" font-size="12" lengthAdjust="spacing" textLength="29.5254" x="976" y="445.7168">error</text></g><g class="start_entity" data-qualified-name="fe_server..start.fe_server" data-source-line="32" id="ent0012"><ellipse cx="919" cy="255.5781" fill="#FFFFFF" rx="10" ry="10" style="stroke:#000000;stroke-width:1;"/></g><!--link *start*fe_server to s_conn--><g class="link" data-entity-1="ent0012" data-entity-2="ent0011" data-link-type="dependency" data-source-line="32" id="lnk13"><path d="M919,265.6481 C919,274.7581 919,283.2681 919,296.2581" fill="none" id="*start*fe_server-to-s_conn" style="stroke:#495057;stroke-width:1;"/><polygon fill="#495057" points="919,302.2581,923,293.2581,919,297.2581,915,293.2581,919,302.2581" style="stroke:#495057;stroke-width:1;"/></g><!--link s_conn to s_ok--><g class="link" data-entity-1="ent0011" data-entity-2="ent0012" data-link-type="dependency" data-source-line="33" id="lnk14"><path d="M869.94,355.7381 C861.56,361.9581 853.96,369.5281 849,378.5781 C841.63,392.0281 840.4171,403.0965 841.8071,417.3365" fill="none" id="s_conn-to-s_ok" style="stroke:#495057;stroke-width:1;"/><polygon fill="#495057" points="842.39,423.3081,845.4967,413.9621,841.9042,418.3318,837.5346,414.7393,842.39,423.3081" style="stroke:#495057;stroke-width:1;"/><text fill="#000000" font-family="'Segoe UI, Helvetica, Arial, sans-serif'" font-size="12" lengthAdjust="spacing" textLength="106.8223" x="856" y="396.7168">server_connected</text></g><!--link s_conn to s_err--><g class="link" data-entity-1="ent0011" data-entity-2="ent0013" data-link-type="dependency" data-source-line="34" id="lnk15"><path d="M954.42,360.5981 C959.86,366.1081 964.99,372.1781 969,378.5781 C977.51,392.1481 981.5327,403.3537 984.8327,417.5637" fill="none" id="s_conn-to-s_err" style="stroke:#495057;stroke-width:1;"/><polygon fill="#495057" points="986.19,423.4081,988.0504,413.7366,985.0589,418.5377,980.2578,415.5463,986.19,423.4081" style="stroke:#495057;stroke-width:1;"/><text fill="#000000" font-family="'Segoe UI, Helvetica, Arial, sans-serif'" font-size="12" lengthAdjust="spacing" textLength="73.5117" x="989" y="396.7168">server_error</text></g><path d="M1117.5,77.6094 L1647.7539,77.6094 A4,4 0 0 1 1651.7539,81.6094 L1651.7539,113.5781 L1113.5,113.5781 L1113.5,81.6094 A4,4 0 0 1 1117.5,77.6094" fill="#F8F9FA"/><path d="M1113.5,113.5781 L1651.7539,113.5781 L1651.7539,608.5469 A4,4 0 0 1 1647.7539,612.5469 L1117.5,612.5469 A4,4 0 0 1 1113.5,608.5469 L1113.5,113.5781" fill="#FFFFFF"/><rect fill="none" height="534.9375" rx="4" ry="4" style="stroke:#ADB5BD;stroke-width:1;" width="538.2539" x="1113.5" y="77.6094"/><line style="stroke:#ADB5BD;stroke-width:1;" x1="1113.5" x2="1651.7539" y1="113.5781" y2="113.5781"/><text fill="#212529" font-family="'Segoe UI, Helvetica, Arial, sans-serif'" font-size="12" lengthAdjust="spacing" textLength="142.7109" x="1311.2715" y="99.748">Frontend &#8212; Peer Status</text><g class="entity" data-qualified-name="fe_peer.p_idle" id="ent0015"><rect fill="#F8F9FA" height="57.9688" rx="4" ry="4" style="stroke:#ADB5BD;stroke-width:1;" width="53.668" x="1276" y="181.5781"/><line style="stroke:#ADB5BD;stroke-width:1;" x1="1276" x2="1329.668" y1="217.5469" y2="217.5469"/><text fill="#212529" font-family="'Segoe UI, Helvetica, Arial, sans-serif'" font-size="12" lengthAdjust="spacing" textLength="21.668" x="1292" y="203.7168">idle</text></g><g class="entity" data-qualified-name="fe_peer.p_out" id="ent0016"><rect fill="#F8F9FA" height="57.9688" rx="4" ry="4" style="stroke:#ADB5BD;stroke-width:1;" width="85.168" x="1125.5" y="302.5781"/><line style="stroke:#ADB5BD;stroke-width:1;" x1="1125.5" x2="1210.668" y1="338.5469" y2="338.5469"/><text fill="#212529" font-family="'Segoe UI, Helvetica, Arial, sans-serif'" font-size="12" lengthAdjust="spacing" textLength="53.168" x="1141.5" y="324.7168">outgoing</text></g><g class="entity" data-qualified-name="fe_peer.p_in" id="ent0017"><rect fill="#F8F9FA" height="57.9688" rx="4" ry="4" style="stroke:#ADB5BD;stroke-width:1;" width="87.125" x="1259.5" y="302.5781"/><line style="stroke:#ADB5BD;stroke-width:1;" x1="1259.5" x2="1346.625" y1="338.5469" y2="338.5469"/><text fill="#212529" font-family="'Segoe UI, Helvetica, Arial, sans-serif'" font-size="12" lengthAdjust="spacing" textLength="55.125" x="1275.5" y="324.7168">incoming</text></g><g class="entity" data-qualified-name="fe_peer.p_conn" id="ent0018"><rect fill="#F8F9FA" height="57.9688" rx="4" ry="4" style="stroke:#ADB5BD;stroke-width:1;" width="94.8359" x="1255.5" y="423.5781"/><line style="stroke:#ADB5BD;stroke-width:1;" x1="1255.5" x2="1350.3359" y1="459.5469" y2="459.5469"/><text fill="#212529" font-family="'Segoe UI, Helvetica, Arial, sans-serif'" font-size="12" lengthAdjust="spacing" textLength="62.8359" x="1271.5" y="445.7168">connected</text></g><g class="entity" data-qualified-name="fe_peer.p_disc" id="ent0019"><rect fill="#F8F9FA" height="57.9688" rx="4" ry="4" style="stroke:#ADB5BD;stroke-width:1;" width="112.0391" x="1339" y="544.5781"/><line style="stroke:#ADB5BD;stroke-width:1;" x1="1339" x2="1451.0391" y1="580.5469" y2="580.5469"/><text fill="#212529" font-family="'Segoe UI, Helvetica, Arial, sans-serif'" font-size="12" lengthAdjust="spacing" textLength="80.0391" x="1355" y="566.7168">disconnected</text></g><g class="start_entity" data-qualified-name="fe_peer..start.fe_peer" data-source-line="44" id="ent0016"><ellipse cx="1303" cy="134.5781" fill="#FFFFFF" rx="10" ry="10" style="stroke:#000000;stroke-width:1;"/></g><!--link *start*fe_peer to p_idle--><g class="link" data-entity-1="ent0016" data-entity-2="ent0015" data-link-type="dependency" data-source-line="44" id="lnk17"><path d="M1303,144.6481 C1303,153.7581 1303,162.2681 1303,175.2581" fill="none" id="*start*fe_peer-to-p_idle" style="stroke:#495057;stroke-width:1;"/><polygon fill="#495057" points="1303,181.2581,1307,172.2581,1303,176.2581,1299,172.2581,1303,181.2581" style="stroke:#495057;stroke-width:1;"/></g><!--link p_idle to p_out--><g class="link" data-entity-1="ent0015" data-entity-2="ent0016" data-link-type="dependency" data-source-line="45" id="lnk18"><path d="M1275.68,215.0481 C1248.95,219.8981 1209,231.2981 1186,257.5781 C1175.25,269.8581 1171.4458,281.5934 1169.6058,296.4834" fill="none" id="p_idle-to-p_out" style="stroke:#495057;stroke-width:1;"/><polygon fill="#495057" points="1168.87,302.4381,1173.9436,293.9966,1169.4832,297.4759,1166.004,293.0155,1168.87,302.4381" style="stroke:#495057;stroke-width:1;"/><text fill="#000000" font-family="'Segoe UI, Helvetica, Arial, sans-serif'" font-size="12" lengthAdjust="spacing" textLength="99.1992" x="1193" y="275.7168">connect_to_peer</text></g><!--link p_idle to p_in--><g class="link" data-entity-1="ent0015" data-entity-2="ent0017" data-link-type="dependency" data-source-line="46" id="lnk19"><path d="M1303,239.7781 C1303,258.6081 1303,277.2881 1303,296.1681" fill="none" id="p_idle-to-p_in" style="stroke:#495057;stroke-width:1;"/><polygon fill="#495057" points="1303,302.1681,1307,293.1681,1303,297.1681,1299,293.1681,1303,302.1681" style="stroke:#495057;stroke-width:1;"/><text fill="#000000" font-family="'Segoe UI, Helvetica, Arial, sans-serif'" font-size="12" lengthAdjust="spacing" textLength="154.9805" x="1310" y="275.7168">peer_connection received</text></g><!--link p_out to p_conn--><g class="link" data-entity-1="ent0016" data-entity-2="ent0018" data-link-type="dependency" data-source-line="47" id="lnk20"><path d="M1170.2,360.7481 C1172.7,375.6481 1177.96,393.3381 1189,405.5781 C1206.22,424.6781 1226.7245,434.3272 1249.7045,440.9472" fill="none" id="p_out-to-p_conn" style="stroke:#495057;stroke-width:1;"/><polygon fill="#495057" points="1255.47,442.6081,1247.929,436.2731,1250.6654,441.224,1245.7144,443.9604,1255.47,442.6081" style="stroke:#495057;stroke-width:1;"/><text fill="#000000" font-family="'Segoe UI, Helvetica, Arial, sans-serif'" font-size="12" lengthAdjust="spacing" textLength="96.1523" x="1196" y="396.7168">peer_connected</text></g><!--link p_in to p_conn--><g class="link" data-entity-1="ent0017" data-entity-2="ent0018" data-link-type="dependency" data-source-line="48" id="lnk21"><path d="M1303,360.7781 C1303,379.6081 1303,398.2881 1303,417.1681" fill="none" id="p_in-to-p_conn" style="stroke:#495057;stroke-width:1;"/><polygon fill="#495057" points="1303,423.1681,1307,414.1681,1303,418.1681,1299,414.1681,1303,423.1681" style="stroke:#495057;stroke-width:1;"/><text fill="#000000" font-family="'Segoe UI, Helvetica, Arial, sans-serif'" font-size="12" lengthAdjust="spacing" textLength="96.1523" x="1310" y="396.7168">peer_connected</text></g><!--link p_conn to p_disc--><g class="link" data-entity-1="ent0018" data-entity-2="ent0019" data-link-type="dependency" data-source-line="49" id="lnk22"><path d="M1316.69,481.8981 C1324.13,495.9781 1334.04,512.8781 1345,526.5781 C1349.94,532.7481 1351.3941,534.67 1357.2341,540.31" fill="none" id="p_conn-to-p_disc" style="stroke:#495057;stroke-width:1;"/><polygon fill="#495057" points="1361.55,544.4781,1357.8549,535.3487,1357.9534,541.0047,1352.2974,541.1032,1361.55,544.4781" style="stroke:#495057;stroke-width:1;"/><text fill="#000000" font-family="'Segoe UI, Helvetica, Arial, sans-serif'" font-size="12" lengthAdjust="spacing" textLength="113.3555" x="1352" y="517.7168">peer_disconnected</text></g><!--link p_disc to p_idle--><g class="link" data-entity-1="ent0019" data-entity-2="ent0015" data-link-type="dependency" data-source-line="50" id="lnk23"><path d="M1451.29,548.6681 C1459.58,542.6781 1467,535.3781 1472,526.5781 C1531,422.5981 1544.59,352.5681 1472,257.5781 C1454.83,235.1081 1379.3425,221.8366 1336.0925,215.8066" fill="none" id="p_disc-to-p_idle" style="stroke:#495057;stroke-width:1;"/><polygon fill="#495057" points="1330.15,214.9781,1338.5114,220.1826,1335.1021,215.6686,1339.6161,212.2592,1330.15,214.9781" style="stroke:#495057;stroke-width:1;"/><text fill="#000000" font-family="'Segoe UI, Helvetica, Arial, sans-serif'" font-size="12" lengthAdjust="spacing" textLength="107.7539" x="1528" y="396.7168">ready for new call</text></g><?plantuml-src ZLJHQXin47o_hzZcwLnmFg2qWU9Sm92wWQJjGnsEGrexmcVfaEI4K0hzY7vXlwJIQdsdwpabVZ3opcYqColvZTAYFKW4vvzRFEyE-xOelF8jmgrlFCAdHZmeZQue7Fq---BGGXc-7j7EdP8uEuF6mI5KwcwtXHy5X0-JbvVNLO9h9LlCeSNdrQfQt5MNQzrXaFm0xqb3oGlU8OpM1Mtv_lOUvlEBN2KjkHgPy0wY3grHU6NqMZT2OETHyWwY3JfXXrIE-NNSlDR6WZDYXpw3Yf-z-KMhK7iezqe6WQV6idj1zQd_LVKjuRN6fr4mg-KT8qehdqFNowyLGwrwF9qPuzE4XeDenRLuH72RklzuipoFXNB6F48JCHuOY6oyd84ta4RDN28aBeT-pCyRYh2SKOWFZGu1rVzCf3-odqH_P3Q9ZJNxbxG66igWDapcoXhjKKluy-itt5BBT8CFZhBQO9ryZETpR4rlYULIebC2IiRDBaVHMcCP2UlnA7AnmN2K27PJCtKlFwK5lO571xtazWOdNkb5ZPp62qzeDtc9vk2tvXX1LuUVeurQcFs0gl_4qqtYoyV5b5WQ1vLrr0slcXgPtgyfJPru-c1HOBXOakbHAh5F_5NqBALVGUf7bAmSQRbJPX8y60nCYuryXasuq_5jYgPjmqp_0W00?></g></svg>