<?plantuml 1.2026.2?><svg xmlns="http://www.w3.org/2000/svg" xmlns:xlink="http://www.w3.org/1999/xlink" contentStyleType="text/css" data-diagram-type="ACTIVITY" height="860px" preserveAspectRatio="none" style="width:666px;height:860px;" version="1.1" viewBox="0 0 666 860" width="666px" zoomAndPan="magnify"><title>Video Frame Pipeline</title><defs/><g><g class="title" data-source-line="18"><text fill="#000000" font-family="'Segoe UI, Helvetica, Arial, sans-serif'" font-size="22" font-weight="bold" lengthAdjust="spacing" textLength="264.2363" x="199.8374" y="35.4209">Video Frame Pipeline</text></g><rect fill="#FFFFFF" height="13.9688" style="stroke:#FFFFFF;stroke-width:1;" width="643.9111" x="10" y="52.9395"/><rect fill="#E8F4FD" height="800.3438" style="stroke:#E8F4FD;stroke-width:1;" width="214.2949" x="10" y="52.9395"/><ellipse cx="118.1475" cy="81.9082" fill="#FFFFFF" rx="10" ry="10" style="stroke:#000000;stroke-width:1;"/><rect fill="#F8F9FA" height="47.9375" rx="12.5" ry="12.5" style="stroke:#ADB5BD;stroke-width:1;" width="173.0469" x="31.624" y="111.9082"/><text fill="#212529" font-family="'Segoe UI, Helvetica, Arial, sans-serif'" font-size="12" lengthAdjust="spacing" textLength="98.6484" x="41.624" y="133.0469">OpenCV capture</text><text fill="#212529" font-family="'Segoe UI, Helvetica, Arial, sans-serif'" font-size="12" lengthAdjust="spacing" textLength="153.0469" x="41.624" y="147.0156">(or debug random frame)</text><rect fill="#F8F9FA" height="47.9375" rx="12.5" ry="12.5" style="stroke:#ADB5BD;stroke-width:1;" width="204.2949" x="16" y="179.8457"/><text fill="#212529" font-family="'Segoe UI, Helvetica, Arial, sans-serif'" font-size="12" lengthAdjust="spacing" textLength="83.4844" x="26" y="200.9844">H.264 encode</text><text fill="#212529" font-family="'Segoe UI, Helvetica, Arial, sans-serif'" font-size="12" lengthAdjust="spacing" textLength="184.2949" x="26" y="214.9531">(ffmpeg, ultrafast/zerolatency)</text><rect fill="#F8F9FA" height="47.9375" rx="12.5" ry="12.5" style="stroke:#ADB5BD;stroke-width:1;" width="186.3945" x="24.9502" y="247.7832"/><text fill="#212529" font-family="'Segoe UI, Helvetica, Arial, sans-serif'" font-size="12" lengthAdjust="spacing" textLength="100.4004" x="34.9502" y="268.9219">AES-128 encrypt</text><text fill="#212529" font-family="'Segoe UI, Helvetica, Arial, sans-serif'" font-size="12" lengthAdjust="spacing" textLength="166.3945" x="34.9502" y="282.8906">(prepend 4-byte key_index)</text><line style="stroke:#000000;stroke-width:1;" x1="10" x2="10" y1="52.9395" y2="853.2832"/><rect fill="#F0FFF0" height="800.3438" style="stroke:#F0FFF0;stroke-width:1;" width="138.5156" x="224.2949" y="52.9395"/><rect fill="#F8F9FA" height="47.9375" rx="12.5" ry="12.5" style="stroke:#ADB5BD;stroke-width:1;" width="128.5156" x="230.2949" y="315.7207"/><text fill="#212529" font-family="'Segoe UI, Helvetica, Arial, sans-serif'" font-size="12" lengthAdjust="spacing" textLength="108.0938" x="240.2949" y="336.8594">WebSocket /video</text><text fill="#212529" font-family="'Segoe UI, Helvetica, Arial, sans-serif'" font-size="12" lengthAdjust="spacing" textLength="108.5156" x="240.2949" y="350.8281">(Socket.IO binary)</text><rect fill="#F8F9FA" height="47.9375" rx="12.5" ry="12.5" style="stroke:#ADB5BD;stroke-width:1;" width="122.9375" x="233.084" y="383.6582"/><text fill="#212529" font-family="'Segoe UI, Helvetica, Arial, sans-serif'" font-size="12" lengthAdjust="spacing" textLength="102.9375" x="243.084" y="404.7969">Server broadcast</text><text fill="#212529" font-family="'Segoe UI, Helvetica, Arial, sans-serif'" font-size="12" lengthAdjust="spacing" textLength="101.373" x="243.084" y="418.7656">(exclude sender)</text><line style="stroke:#000000;stroke-width:1;" x1="224.2949" x2="224.2949" y1="52.9395" y2="853.2832"/><rect fill="#FFF0F0" height="800.3438" style="stroke:#FFF0F0;stroke-width:1;" width="290.1934" x="362.8105" y="52.9395"/><rect fill="#F8F9FA" height="33.9688" rx="12.5" ry="12.5" style="stroke:#ADB5BD;stroke-width:1;" width="157.5664" x="446.0176" y="451.5957"/><text fill="#212529" font-family="'Segoe UI, Helvetica, Arial, sans-serif'" font-size="12" lengthAdjust="spacing" textLength="137.5664" x="456.0176" y="472.7344">Read 4-byte key_index</text><polygon fill="#FFF3CD" points="466.8633,505.5645,582.7383,505.5645,594.7383,519.5332,582.7383,533.502,466.8633,533.502,454.8633,519.5332,466.8633,505.5645" style="stroke:#FFECB5;stroke-width:1;"/><text fill="#212529" font-family="'Segoe UI, Helvetica, Arial, sans-serif'" font-size="12" lengthAdjust="spacing" textLength="115.875" x="466.8633" y="516.7031">key_index matches</text><text fill="#212529" font-family="'Segoe UI, Helvetica, Arial, sans-serif'" font-size="12" lengthAdjust="spacing" textLength="75.3809" x="466.8633" y="530.6719">current key?</text><text fill="#000000" font-family="'Segoe UI, Helvetica, Arial, sans-serif'" font-size="12" lengthAdjust="spacing" textLength="20.7363" x="434.127" y="516.7031">yes</text><text fill="#000000" font-family="'Segoe UI, Helvetica, Arial, sans-serif'" font-size="12" lengthAdjust="spacing" textLength="14.9473" x="594.7383" y="516.7031">no</text><rect fill="#F8F9FA" height="33.9688" rx="12.5" ry="12.5" style="stroke:#ADB5BD;stroke-width:1;" width="120.4121" x="384.6572" y="543.502"/><text fill="#212529" font-family="'Segoe UI, Helvetica, Arial, sans-serif'" font-size="12" lengthAdjust="spacing" textLength="100.4121" x="394.6572" y="564.6406">AES-128 decrypt</text><rect fill="#F8F9FA" height="47.9375" rx="12.5" ry="12.5" style="stroke:#ADB5BD;stroke-width:1;" width="130.8125" x="379.457" y="611.4395"/><text fill="#212529" font-family="'Segoe UI, Helvetica, Arial, sans-serif'" font-size="12" lengthAdjust="spacing" textLength="83.4961" x="389.457" y="632.5781">H.264 decode</text><text fill="#212529" font-family="'Segoe UI, Helvetica, Arial, sans-serif'" font-size="12" lengthAdjust="spacing" textLength="110.8125" x="389.457" y="646.5469">(ffmpeg rawvideo)</text><rect fill="#F8F9FA" height="47.9375" rx="12.5" ry="12.5" style="stroke:#ADB5BD;stroke-width:1;" width="152.1055" x="368.8105" y="679.377"/><text fill="#212529" font-family="'Segoe UI, Helvetica, Arial, sans-serif'" font-size="12" lengthAdjust="spacing" textLength="103.1426" x="378.8105" y="700.5156">IPC 'frame' event</text><text fill="#212529" font-family="'Segoe UI, Helvetica, Arial, sans-serif'" font-size="12" lengthAdjust="spacing" textLength="132.1055" x="378.8105" y="714.4844">(Electron &#8594; Renderer)</text><rect fill="#F8F9FA" height="33.9688" rx="12.5" ry="12.5" style="stroke:#ADB5BD;stroke-width:1;" width="144.5234" x="372.6016" y="747.3145"/><text fill="#212529" font-family="'Segoe UI, Helvetica, Arial, sans-serif'" font-size="12" lengthAdjust="spacing" textLength="124.5234" x="382.6016" y="768.4531">Canvas drawImage()</text><rect fill="#F8F9FA" height="47.9375" rx="12.5" ry="12.5" style="stroke:#ADB5BD;stroke-width:1;" width="88.5313" x="560.4727" y="543.502"/><text fill="#212529" font-family="'Segoe UI, Helvetica, Arial, sans-serif'" font-size="12" lengthAdjust="spacing" textLength="68.5313" x="570.4727" y="564.6406">Drop frame</text><text fill="#212529" font-family="'Segoe UI, Helvetica, Arial, sans-serif'" font-size="12" lengthAdjust="spacing" textLength="63.6387" x="570.4727" y="578.6094">(stale key)</text><polygon fill="#FFF3CD" points="524.8008,787.2832,536.8008,799.2832,524.8008,811.2832,512.8008,799.2832,524.8008,787.2832" style="stroke:#FFECB5;stroke-width:1;"/><ellipse cx="524.8008" cy="842.2832" fill="none" rx="11" ry="11" style="stroke:#000000;stroke-width:1;"/><ellipse cx="524.8008" cy="842.2832" fill="#FFFFFF" rx="6" ry="6" style="stroke:#000000;stroke-width:1;"/><line style="stroke:#000000;stroke-width:1;" x1="362.8105" x2="362.8105" y1="52.9395" y2="853.2832"/><line style="stroke:#000000;stroke-width:1;" x1="653.0039" x2="653.0039" y1="52.9395" y2="853.2832"/><line style="stroke:#000000;stroke-width:1;" x1="118.1475" x2="118.1475" y1="91.9082" y2="111.9082"/><polygon fill="#000000" points="114.1475,101.9082,118.1475,111.9082,122.1475,101.9082,118.1475,105.9082" style="stroke:#000000;stroke-width:1;"/><line style="stroke:#000000;stroke-width:1;" x1="118.1475" x2="118.1475" y1="159.8457" y2="179.8457"/><polygon fill="#000000" points="114.1475,169.8457,118.1475,179.8457,122.1475,169.8457,118.1475,173.8457" style="stroke:#000000;stroke-width:1;"/><line style="stroke:#000000;stroke-width:1;" x1="118.1475" x2="118.1475" y1="227.7832" y2="247.7832"/><polygon fill="#000000" points="114.1475,237.7832,118.1475,247.7832,122.1475,237.7832,118.1475,241.7832" style="stroke:#000000;stroke-width:1;"/><line style="stroke:#000000;stroke-width:1;" x1="294.5527" x2="294.5527" y1="363.6582" y2="383.6582"/><polygon fill="#000000" points="290.5527,373.6582,294.5527,383.6582,298.5527,373.6582,294.5527,377.6582" style="stroke:#000000;stroke-width:1;"/><line style="stroke:#000000;stroke-width:1;" x1="444.8633" x2="444.8633" y1="577.4707" y2="611.4395"/><polygon fill="#000000" points="440.8633,601.4395,444.8633,611.4395,448.8633,601.4395,444.8633,605.4395" style="stroke:#000000;stroke-width:1;"/><line style="stroke:#000000;stroke-width:1;" x1="444.8633" x2="444.8633" y1="659.377" y2="679.377"/><polygon fill="#000000" points="440.8633,669.377,444.8633,679.377,448.8633,669.377,444.8633,673.377" style="stroke:#000000;stroke-width:1;"/><line style="stroke:#000000;stroke-width:1;" x1="444.8633" x2="444.8633" y1="727.3145" y2="747.3145"/><polygon fill="#000000" points="440.8633,737.3145,444.8633,747.3145,448.8633,737.3145,444.8633,741.3145" style="stroke:#000000;stroke-width:1;"/><line style="stroke:#000000;stroke-width:1;" x1="454.8633" x2="444.8633" y1="519.5332" y2="519.5332"/><line style="stroke:#000000;stroke-width:1;" x1="444.8633" x2="444.8633" y1="519.5332" y2="543.502"/><polygon fill="#000000" points="440.8633,533.502,444.8633,543.502,448.8633,533.502,444.8633,537.502" style="stroke:#000000;stroke-width:1;"/><line style="stroke:#000000;stroke-width:1;" x1="594.7383" x2="604.7383" y1="519.5332" y2="519.5332"/><line style="stroke:#000000;stroke-width:1;" x1="604.7383" x2="604.7383" y1="519.5332" y2="543.502"/><polygon fill="#000000" points="600.7383,533.502,604.7383,543.502,608.7383,533.502,604.7383,537.502" style="stroke:#000000;stroke-width:1;"/><line style="stroke:#000000;stroke-width:1;" x1="444.8633" x2="444.8633" y1="781.2832" y2="799.2832"/><line style="stroke:#000000;stroke-width:1;" x1="444.8633" x2="512.8008" y1="799.2832" y2="799.2832"/><polygon fill="#000000" points="502.8008,795.2832,512.8008,799.2832,502.8008,803.2832,506.8008,799.2832" style="stroke:#000000;stroke-width:1;"/><line style="stroke:#000000;stroke-width:1;" x1="604.7383" x2="604.7383" y1="591.4395" y2="799.2832"/><line style="stroke:#000000;stroke-width:1;" x1="604.7383" x2="536.8008" y1="799.2832" y2="799.2832"/><polygon fill="#000000" points="546.8008,795.2832,536.8008,799.2832,546.8008,803.2832,542.8008,799.2832" style="stroke:#000000;stroke-width:1;"/><line style="stroke:#000000;stroke-width:1;" x1="524.8008" x2="524.8008" y1="485.5645" y2="505.5645"/><polygon fill="#000000" points="520.8008,495.5645,524.8008,505.5645,528.8008,495.5645,524.8008,499.5645" style="stroke:#000000;stroke-width:1;"/><line style="stroke:#000000;stroke-width:1;" x1="524.8008" x2="524.8008" y1="811.2832" y2="831.2832"/><polygon fill="#000000" points="520.8008,821.2832,524.8008,831.2832,528.8008,821.2832,524.8008,825.2832" style="stroke:#000000;stroke-width:1;"/><line style="stroke:#000000;stroke-width:1;" x1="118.1475" x2="118.1475" y1="295.7207" y2="300.7207"/><line style="stroke:#000000;stroke-width:1;" x1="118.1475" x2="294.5527" y1="300.7207" y2="300.7207"/><line style="stroke:#000000;stroke-width:1;" x1="294.5527" x2="294.5527" y1="300.7207" y2="315.7207"/><polygon fill="#000000" points="290.5527,305.7207,294.5527,315.7207,298.5527,305.7207,294.5527,309.7207" style="stroke:#000000;stroke-width:1;"/><line style="stroke:#000000;stroke-width:1;" x1="294.5527" x2="294.5527" y1="431.5957" y2="436.5957"/><line style="stroke:#000000;stroke-width:1;" x1="294.5527" x2="524.8008" y1="436.5957" y2="436.5957"/><line style="stroke:#000000;stroke-width:1;" x1="524.8008" x2="524.8008" y1="436.5957" y2="451.5957"/><polygon fill="#000000" points="520.8008,441.5957,524.8008,451.5957,528.8008,441.5957,524.8008,445.5957" style="stroke:#000000;stroke-width:1;"/><text fill="#000000" font-family="'Segoe UI, Helvetica, Arial, sans-serif'" font-size="12" lengthAdjust="spacing" textLength="42.5391" x="95.8779" y="64.0781">Sender</text><text fill="#000000" font-family="'Segoe UI, Helvetica, Arial, sans-serif'" font-size="12" lengthAdjust="spacing" textLength="50.1035" x="268.501" y="64.0781">Network</text><text fill="#000000" font-family="'Segoe UI, Helvetica, Arial, sans-serif'" font-size="12" lengthAdjust="spacing" textLength="52.4531" x="481.6807" y="64.0781">Receiver</text><?plantuml-src TPFDRjf04CVl-nJJS0X8a10ABH-7YYyhN988g-abKZLunsQ5lMkj5nEdzDe7w2FsIJesD28AzMrdVlFV-SzuFxWr9GHfZ4gBRADqYXOJM66mYQpPQZariR7WBEgCKwJT2IKfn6tiFAFT7RBAXK-H8VYwQC8jnJav5M0JnbPXt8IC5LePMHLUd9VmrGl1JUSacQrHcftI4OGOPtII6GTEvSeL4xI71clTGQ_T-tmECLRIFseyc_GcixD2RmtNlButyCRY1CKZ2Zy4yFU_YYftviuoNjeyHZitdLvdK4Ld2XEZvNj1p_iudRr1JdKzRpwTzCHF8PnoCS6ZacJ0i-Kc7bHAiT8anBusxtjTRxRtINFjNcGEhHF3-vJqz142JDtMqfEkiwIarJO2NhKq2OIbK6CaXhTNdKzT81qOMN9XcAGKDO6tPZ74p5s_a3KnEYQAaX_F_TPDfrzMs29rN99QujiaT5khmX5igFYkk9bdfha_hyr6s_ixSZjZDtin_4OhtmGRSd2TbvvOuN2-Mjp3IccqrJq-sPmihAn16N0VZD5p46ybGLPvFSgpECilAI2LbmCOBWdVzp8IAeJwwn4ITC6QiYSTR6tvsvVabmRmSz5GBoXhL7jvDIkfCZiwH0yZuzZfo7YmkyfFuqWj7gPmMOtv4YZdEnYTnnGuQpJy-VKRbfMDoaXLC4MTOmQIXHO9HbJd1F73WBesntvcrgI7rR4OhpgkB9QSbYhavPjK_0K0?></g></svg>