<?plantuml 1.2026.2?><svg xmlns="http://www.w3.org/2000/svg" xmlns:xlink="http://www.w3.org/1999/xlink" contentStyleType="text/css" data-diagram-type="ACTIVITY" height="863px" preserveAspectRatio="none" style="width:648px;height:863px;" version="1.1" viewBox="0 0 648 863" width="648px" zoomAndPan="magnify"><title>Video Frame Pipeline</title><defs/><g><g class="title" data-source-line="18"><text fill="#000000" font-family="'Segoe UI, Helvetica, Arial, sans-serif'" font-size="22" font-weight="bold" lengthAdjust="spacing" textLength="238.1006" x="203.7588" y="36.2695">Video Frame Pipeline</text></g><rect fill="#FFFFFF" height="14.1328" style="stroke:#FFFFFF;stroke-width:1;" width="625.6182" x="10" y="52.9414"/><rect fill="#E8F4FD" height="803.7891" style="stroke:#E8F4FD;stroke-width:1;" width="209.0039" x="10" y="52.9414"/><ellipse cx="115.502" cy="82.0742" fill="#FFFFFF" rx="10" ry="10" style="stroke:#000000;stroke-width:1;"/><rect fill="#F8F9FA" height="48.2656" rx="12.5" ry="12.5" style="stroke:#ADB5BD;stroke-width:1;" width="167.1465" x="31.9287" y="112.0742"/><text fill="#212529" font-family="'Segoe UI, Helvetica, Arial, sans-serif'" font-size="12" lengthAdjust="spacing" textLength="94.8105" x="41.9287" y="133.6758">OpenCV capture</text><text fill="#212529" font-family="'Segoe UI, Helvetica, Arial, sans-serif'" font-size="12" lengthAdjust="spacing" textLength="147.1465" x="41.9287" y="147.8086">(or debug random frame)</text><rect fill="#F8F9FA" height="48.2656" rx="12.5" ry="12.5" style="stroke:#ADB5BD;stroke-width:1;" width="199.0039" x="16" y="180.3398"/><text fill="#212529" font-family="'Segoe UI, Helvetica, Arial, sans-serif'" font-size="12" lengthAdjust="spacing" textLength="81.0645" x="26" y="201.9414">H.264 encode</text><text fill="#212529" font-family="'Segoe UI, Helvetica, Arial, sans-serif'" font-size="12" lengthAdjust="spacing" textLength="179.0039" x="26" y="216.0742">(ffmpeg, ultrafast/zerolatency)</text><rect fill="#F8F9FA" height="48.2656" rx="12.5" ry="12.5" style="stroke:#ADB5BD;stroke-width:1;" width="181.7949" x="24.6045" y="248.6055"/><text fill="#212529" font-family="'Segoe UI, Helvetica, Arial, sans-serif'" font-size="12" lengthAdjust="spacing" textLength="98.25" x="34.6045" y="270.207">AES-128 encrypt</text><text fill="#212529" font-family="'Segoe UI, Helvetica, Arial, sans-serif'" font-size="12" lengthAdjust="spacing" textLength="161.7949" x="34.6045" y="284.3398">(prepend 4-byte key_index)</text><line style="stroke:#000000;stroke-width:1;" x1="10" x2="10" y1="52.9414" y2="856.7305"/><rect fill="#F0FFF0" height="803.7891" style="stroke:#F0FFF0;stroke-width:1;" width="134.0508" x="219.0039" y="52.9414"/><rect fill="#F8F9FA" height="48.2656" rx="12.5" ry="12.5" style="stroke:#ADB5BD;stroke-width:1;" width="124.0508" x="225.0039" y="316.8711"/><text fill="#212529" font-family="'Segoe UI, Helvetica, Arial, sans-serif'" font-size="12" lengthAdjust="spacing" textLength="104.0508" x="235.0039" y="338.4727">WebSocket /video</text><text fill="#212529" font-family="'Segoe UI, Helvetica, Arial, sans-serif'" font-size="12" lengthAdjust="spacing" textLength="102.6211" x="235.0039" y="352.6055">(Socket.IO binary)</text><rect fill="#F8F9FA" height="48.2656" rx="12.5" ry="12.5" style="stroke:#ADB5BD;stroke-width:1;" width="117.0547" x="228.502" y="385.1367"/><text fill="#212529" font-family="'Segoe UI, Helvetica, Arial, sans-serif'" font-size="12" lengthAdjust="spacing" textLength="97.0547" x="238.502" y="406.7383">Server broadcast</text><text fill="#212529" font-family="'Segoe UI, Helvetica, Arial, sans-serif'" font-size="12" lengthAdjust="spacing" textLength="96.3457" x="238.502" y="420.8711">(exclude sender)</text><line style="stroke:#000000;stroke-width:1;" x1="219.0039" x2="219.0039" y1="52.9414" y2="856.7305"/><rect fill="#FFF0F0" height="803.7891" style="stroke:#FFF0F0;stroke-width:1;" width="281.665" x="353.0547" y="52.9414"/><rect fill="#F8F9FA" height="34.1328" rx="12.5" ry="12.5" style="stroke:#ADB5BD;stroke-width:1;" width="154.0566" x="432.9658" y="453.4023"/><text fill="#212529" font-family="'Segoe UI, Helvetica, Arial, sans-serif'" font-size="12" lengthAdjust="spacing" textLength="134.0566" x="442.9658" y="475.0039">Read 4-byte key_index</text><polygon fill="#FFF3CD" points="454.4971,507.5352,565.4912,507.5352,577.4912,521.668,565.4912,535.8008,454.4971,535.8008,442.4971,521.668,454.4971,507.5352" style="stroke:#FFECB5;stroke-width:1;"/><text fill="#212529" font-family="'Segoe UI, Helvetica, Arial, sans-serif'" font-size="12" lengthAdjust="spacing" textLength="110.9941" x="454.4971" y="519.1367">key_index matches</text><text fill="#212529" font-family="'Segoe UI, Helvetica, Arial, sans-serif'" font-size="12" lengthAdjust="spacing" textLength="70.8633" x="454.4971" y="533.2695">current key?</text><text fill="#000000" font-family="'Segoe UI, Helvetica, Arial, sans-serif'" font-size="12" lengthAdjust="spacing" textLength="19.0723" x="423.4248" y="519.1367">yes</text><text fill="#000000" font-family="'Segoe UI, Helvetica, Arial, sans-serif'" font-size="12" lengthAdjust="spacing" textLength="14.8184" x="577.4912" y="519.1367">no</text><rect fill="#F8F9FA" height="34.1328" rx="12.5" ry="12.5" style="stroke:#ADB5BD;stroke-width:1;" width="118.3555" x="373.3193" y="545.8008"/><text fill="#212529" font-family="'Segoe UI, Helvetica, Arial, sans-serif'" font-size="12" lengthAdjust="spacing" textLength="98.3555" x="383.3193" y="567.4023">AES-128 decrypt</text><rect fill="#F8F9FA" height="48.2656" rx="12.5" ry="12.5" style="stroke:#ADB5BD;stroke-width:1;" width="125.4219" x="369.7861" y="614.0664"/><text fill="#212529" font-family="'Segoe UI, Helvetica, Arial, sans-serif'" font-size="12" lengthAdjust="spacing" textLength="81.1699" x="379.7861" y="635.668">H.264 decode</text><text fill="#212529" font-family="'Segoe UI, Helvetica, Arial, sans-serif'" font-size="12" lengthAdjust="spacing" textLength="105.4219" x="379.7861" y="649.8008">(ffmpeg rawvideo)</text><rect fill="#F8F9FA" height="48.2656" rx="12.5" ry="12.5" style="stroke:#ADB5BD;stroke-width:1;" width="146.8848" x="359.0547" y="682.332"/><text fill="#212529" font-family="'Segoe UI, Helvetica, Arial, sans-serif'" font-size="12" lengthAdjust="spacing" textLength="96.8379" x="369.0547" y="703.9336">IPC 'frame' event</text><text fill="#212529" font-family="'Segoe UI, Helvetica, Arial, sans-serif'" font-size="12" lengthAdjust="spacing" textLength="126.8848" x="369.0547" y="718.0664">(Browser &#8594; Renderer)</text><rect fill="#F8F9FA" height="34.1328" rx="12.5" ry="12.5" style="stroke:#ADB5BD;stroke-width:1;" width="136.7246" x="364.1348" y="750.5977"/><text fill="#212529" font-family="'Segoe UI, Helvetica, Arial, sans-serif'" font-size="12" lengthAdjust="spacing" textLength="116.7246" x="374.1348" y="772.1992">Canvas drawImage()</text><rect fill="#F8F9FA" height="48.2656" rx="12.5" ry="12.5" style="stroke:#ADB5BD;stroke-width:1;" width="86.457" x="544.2627" y="545.8008"/><text fill="#212529" font-family="'Segoe UI, Helvetica, Arial, sans-serif'" font-size="12" lengthAdjust="spacing" textLength="66.457" x="554.2627" y="567.4023">Drop frame</text><text fill="#212529" font-family="'Segoe UI, Helvetica, Arial, sans-serif'" font-size="12" lengthAdjust="spacing" textLength="58.957" x="554.2627" y="581.5352">(stale key)</text><polygon fill="#FFF3CD" points="509.9941,790.7305,521.9941,802.7305,509.9941,814.7305,497.9941,802.7305,509.9941,790.7305" style="stroke:#FFECB5;stroke-width:1;"/><ellipse cx="509.9941" cy="845.7305" fill="none" rx="11" ry="11" style="stroke:#000000;stroke-width:1;"/><ellipse cx="509.9941" cy="845.7305" fill="#FFFFFF" rx="6" ry="6" style="stroke:#000000;stroke-width:1;"/><line style="stroke:#000000;stroke-width:1;" x1="353.0547" x2="353.0547" y1="52.9414" y2="856.7305"/><line style="stroke:#000000;stroke-width:1;" x1="634.7197" x2="634.7197" y1="52.9414" y2="856.7305"/><line style="stroke:#000000;stroke-width:1;" x1="115.502" x2="115.502" y1="92.0742" y2="112.0742"/><polygon fill="#000000" points="111.502,102.0742,115.502,112.0742,119.502,102.0742,115.502,106.0742" style="stroke:#000000;stroke-width:1;"/><line style="stroke:#000000;stroke-width:1;" x1="115.502" x2="115.502" y1="160.3398" y2="180.3398"/><polygon fill="#000000" points="111.502,170.3398,115.502,180.3398,119.502,170.3398,115.502,174.3398" style="stroke:#000000;stroke-width:1;"/><line style="stroke:#000000;stroke-width:1;" x1="115.502" x2="115.502" y1="228.6055" y2="248.6055"/><polygon fill="#000000" points="111.502,238.6055,115.502,248.6055,119.502,238.6055,115.502,242.6055" style="stroke:#000000;stroke-width:1;"/><line style="stroke:#000000;stroke-width:1;" x1="287.0293" x2="287.0293" y1="365.1367" y2="385.1367"/><polygon fill="#000000" points="283.0293,375.1367,287.0293,385.1367,291.0293,375.1367,287.0293,379.1367" style="stroke:#000000;stroke-width:1;"/><line style="stroke:#000000;stroke-width:1;" x1="432.4971" x2="432.4971" y1="579.9336" y2="614.0664"/><polygon fill="#000000" points="428.4971,604.0664,432.4971,614.0664,436.4971,604.0664,432.4971,608.0664" style="stroke:#000000;stroke-width:1;"/><line style="stroke:#000000;stroke-width:1;" x1="432.4971" x2="432.4971" y1="662.332" y2="682.332"/><polygon fill="#000000" points="428.4971,672.332,432.4971,682.332,436.4971,672.332,432.4971,676.332" style="stroke:#000000;stroke-width:1;"/><line style="stroke:#000000;stroke-width:1;" x1="432.4971" x2="432.4971" y1="730.5977" y2="750.5977"/><polygon fill="#000000" points="428.4971,740.5977,432.4971,750.5977,436.4971,740.5977,432.4971,744.5977" style="stroke:#000000;stroke-width:1;"/><line style="stroke:#000000;stroke-width:1;" x1="442.4971" x2="432.4971" y1="521.668" y2="521.668"/><line style="stroke:#000000;stroke-width:1;" x1="432.4971" x2="432.4971" y1="521.668" y2="545.8008"/><polygon fill="#000000" points="428.4971,535.8008,432.4971,545.8008,436.4971,535.8008,432.4971,539.8008" style="stroke:#000000;stroke-width:1;"/><line style="stroke:#000000;stroke-width:1;" x1="577.4912" x2="587.4912" y1="521.668" y2="521.668"/><line style="stroke:#000000;stroke-width:1;" x1="587.4912" x2="587.4912" y1="521.668" y2="545.8008"/><polygon fill="#000000" points="583.4912,535.8008,587.4912,545.8008,591.4912,535.8008,587.4912,539.8008" style="stroke:#000000;stroke-width:1;"/><line style="stroke:#000000;stroke-width:1;" x1="432.4971" x2="432.4971" y1="784.7305" y2="802.7305"/><line style="stroke:#000000;stroke-width:1;" x1="432.4971" x2="497.9941" y1="802.7305" y2="802.7305"/><polygon fill="#000000" points="487.9941,798.7305,497.9941,802.7305,487.9941,806.7305,491.9941,802.7305" style="stroke:#000000;stroke-width:1;"/><line style="stroke:#000000;stroke-width:1;" x1="587.4912" x2="587.4912" y1="594.0664" y2="802.7305"/><line style="stroke:#000000;stroke-width:1;" x1="587.4912" x2="521.9941" y1="802.7305" y2="802.7305"/><polygon fill="#000000" points="531.9941,798.7305,521.9941,802.7305,531.9941,806.7305,527.9941,802.7305" style="stroke:#000000;stroke-width:1;"/><line style="stroke:#000000;stroke-width:1;" x1="509.9941" x2="509.9941" y1="487.5352" y2="507.5352"/><polygon fill="#000000" points="505.9941,497.5352,509.9941,507.5352,513.9941,497.5352,509.9941,501.5352" style="stroke:#000000;stroke-width:1;"/><line style="stroke:#000000;stroke-width:1;" x1="509.9941" x2="509.9941" y1="814.7305" y2="834.7305"/><polygon fill="#000000" points="505.9941,824.7305,509.9941,834.7305,513.9941,824.7305,509.9941,828.7305" style="stroke:#000000;stroke-width:1;"/><line style="stroke:#000000;stroke-width:1;" x1="115.502" x2="115.502" y1="296.8711" y2="301.8711"/><line style="stroke:#000000;stroke-width:1;" x1="115.502" x2="287.0293" y1="301.8711" y2="301.8711"/><line style="stroke:#000000;stroke-width:1;" x1="287.0293" x2="287.0293" y1="301.8711" y2="316.8711"/><polygon fill="#000000" points="283.0293,306.8711,287.0293,316.8711,291.0293,306.8711,287.0293,310.8711" style="stroke:#000000;stroke-width:1;"/><line style="stroke:#000000;stroke-width:1;" x1="287.0293" x2="287.0293" y1="433.4023" y2="438.4023"/><line style="stroke:#000000;stroke-width:1;" x1="287.0293" x2="509.9941" y1="438.4023" y2="438.4023"/><line style="stroke:#000000;stroke-width:1;" x1="509.9941" x2="509.9941" y1="438.4023" y2="453.4023"/><polygon fill="#000000" points="505.9941,443.4023,509.9941,453.4023,513.9941,443.4023,509.9941,447.4023" style="stroke:#000000;stroke-width:1;"/><text fill="#000000" font-family="'Segoe UI, Helvetica, Arial, sans-serif'" font-size="12" lengthAdjust="spacing" textLength="39.7441" x="94.6299" y="64.543">Sender</text><text fill="#000000" font-family="'Segoe UI, Helvetica, Arial, sans-serif'" font-size="12" lengthAdjust="spacing" textLength="48.5801" x="261.7393" y="64.543">Network</text><text fill="#000000" font-family="'Segoe UI, Helvetica, Arial, sans-serif'" font-size="12" lengthAdjust="spacing" textLength="48.3809" x="469.6968" y="64.543">Receiver</text><?plantuml-src TPFDRjf04CVl-nJJS0X8a10ABH-7YYyhN988g-abKZLunsQ5lMkj5nEdzDe7w2FsIJesD28AzMrdVlFV-SzuFxWr9GHfZ4gBRADqYXOJM66mYQpPQZariR7WBEgCKwJT2IKfn6tiFAFT7RBAXK-H8VYwQC8jnJav5M0JnbPXt8IC5LePMHLUd9VmrGl1JUSacQrHcftI4OGOPtII6GTEvSeL4xI71clTGQ_T-tmECLRIFseyc_GcixD2RmtNlButyCRY1CKZ2Zy4yFU_YYftviuoNjeyHZitdLvdK4Ld2XEZvNj1p_iudRr1JdKzRpwTzCHF8PnoCS6ZacJ0i-Kc7bHAiT8anBusxtjTRxRtINFjNcGEhHF3-vJqz142JDtMqfEkiwIarJO2NhKq2OIbK6CaXhTNdKzT81qOMN9XcAGKDO6tPZ74p5s_a3KnEYQAaX_F_TPDfrzMs29rN99QujiaT5khmX5igFYkk9bdfha_hyr6s_ixSZjZDtin_4OhtmGRSd2TbvvOuN2-Mjp3IccqrJq-sPmihAn16N0VZD5p46ybGLPvFSgpECilAI2LbmCOBWdVzp8IAeJwwn4ITC6QiYSTR6tvsvVabmRmSz5GBoXhL7jvDIkfCZiwH0yZuzZfo7YmkyfFuqWj7gPmMOtv4YZdEnYTnnGuQpJy-VKRbfMDoaXLC4MTOmQIXHO9HbJd1F73WBesntvcrgI7rR4OhpgkB9QSbYhavPjK_0K0?></g></svg>