<?plantuml 1.2026.2?><svg xmlns="http://www.w3.org/2000/svg" xmlns:xlink="http://www.w3.org/1999/xlink" contentStyleType="text/css" data-diagram-type="ACTIVITY" height="1019px" preserveAspectRatio="none" style="width:727px;height:1019px;" version="1.1" viewBox="0 0 727 1019" width="727px" zoomAndPan="magnify"><title>Video Frame Pipeline</title><defs/><g><g class="title" data-source-line="3"><text fill="#000000" font-family="'Segoe UI, Helvetica, Arial, sans-serif'" font-size="22" font-weight="bold" lengthAdjust="spacing" textLength="264.2363" x="230.0762" y="41.4209">Video Frame Pipeline</text></g><rect fill="#FFFFFF" height="25.9688" style="stroke:#FFFFFF;stroke-width:1;" width="704.3887" x="10" y="64.6094"/><rect fill="#E8F4FD" height="948.3438" style="stroke:#E8F4FD;stroke-width:1;" width="226.2949" x="10" y="64.6094"/><ellipse cx="124.1475" cy="105.5781" fill="#FFFFFF" rx="10" ry="10" style="stroke:#000000;stroke-width:1;"/><rect fill="#F8F9FA" height="59.9375" rx="4" ry="4" style="stroke:#ADB5BD;stroke-width:1;" width="185.0469" x="31.624" y="135.5781"/><text fill="#212529" font-family="'Segoe UI, Helvetica, Arial, sans-serif'" font-size="12" lengthAdjust="spacing" textLength="98.6484" x="47.624" y="162.7168">OpenCV capture</text><text fill="#212529" font-family="'Segoe UI, Helvetica, Arial, sans-serif'" font-size="12" lengthAdjust="spacing" textLength="153.0469" x="47.624" y="176.6855">(or debug random frame)</text><rect fill="#F8F9FA" height="59.9375" rx="4" ry="4" style="stroke:#ADB5BD;stroke-width:1;" width="216.2949" x="16" y="215.5156"/><text fill="#212529" font-family="'Segoe UI, Helvetica, Arial, sans-serif'" font-size="12" lengthAdjust="spacing" textLength="83.4844" x="32" y="242.6543">H.264 encode</text><text fill="#212529" font-family="'Segoe UI, Helvetica, Arial, sans-serif'" font-size="12" lengthAdjust="spacing" textLength="184.2949" x="32" y="256.623">(ffmpeg, ultrafast/zerolatency)</text><rect fill="#F8F9FA" height="59.9375" rx="4" ry="4" style="stroke:#ADB5BD;stroke-width:1;" width="198.3945" x="24.9502" y="295.4531"/><text fill="#212529" font-family="'Segoe UI, Helvetica, Arial, sans-serif'" font-size="12" lengthAdjust="spacing" textLength="100.4004" x="40.9502" y="322.5918">AES-128 encrypt</text><text fill="#212529" font-family="'Segoe UI, Helvetica, Arial, sans-serif'" font-size="12" lengthAdjust="spacing" textLength="166.3945" x="40.9502" y="336.5605">(prepend 4-byte key_index)</text><line style="stroke:#000000;stroke-width:1;" x1="10" x2="10" y1="64.6094" y2="1012.9531"/><rect fill="#ECFDF5" height="948.3438" style="stroke:#ECFDF5;stroke-width:1;" width="150.5156" x="236.2949" y="64.6094"/><rect fill="#F8F9FA" height="59.9375" rx="4" ry="4" style="stroke:#ADB5BD;stroke-width:1;" width="140.5156" x="242.2949" y="375.3906"/><text fill="#212529" font-family="'Segoe UI, Helvetica, Arial, sans-serif'" font-size="12" lengthAdjust="spacing" textLength="108.0938" x="258.2949" y="402.5293">WebSocket /video</text><text fill="#212529" font-family="'Segoe UI, Helvetica, Arial, sans-serif'" font-size="12" lengthAdjust="spacing" textLength="108.5156" x="258.2949" y="416.498">(Socket.IO binary)</text><rect fill="#F8F9FA" height="59.9375" rx="4" ry="4" style="stroke:#ADB5BD;stroke-width:1;" width="134.9375" x="245.084" y="455.3281"/><text fill="#212529" font-family="'Segoe UI, Helvetica, Arial, sans-serif'" font-size="12" lengthAdjust="spacing" textLength="102.9375" x="261.084" y="482.4668">Server broadcast</text><text fill="#212529" font-family="'Segoe UI, Helvetica, Arial, sans-serif'" font-size="12" lengthAdjust="spacing" textLength="101.373" x="261.084" y="496.4355">(exclude sender)</text><line style="stroke:#000000;stroke-width:1;" x1="236.2949" x2="236.2949" y1="64.6094" y2="1012.9531"/><rect fill="#FEF2F2" height="948.3438" style="stroke:#FEF2F2;stroke-width:1;" width="320.6709" x="386.8105" y="64.6094"/><rect fill="#F8F9FA" height="45.9688" rx="4" ry="4" style="stroke:#ADB5BD;stroke-width:1;" width="169.5664" x="482.4951" y="535.2656"/><text fill="#212529" font-family="'Segoe UI, Helvetica, Arial, sans-serif'" font-size="12" lengthAdjust="spacing" textLength="137.5664" x="498.4951" y="562.4043">Read 4-byte key_index</text><polygon fill="#F8F9FA" points="503.3408,601.2344,631.2158,601.2344,643.2158,621.2031,631.2158,641.1719,503.3408,641.1719,491.3408,621.2031,503.3408,601.2344" style="stroke:#ADB5BD;stroke-width:1;"/><text fill="#212529" font-family="'Segoe UI, Helvetica, Arial, sans-serif'" font-size="12" lengthAdjust="spacing" textLength="115.875" x="509.3408" y="618.373">key_index matches</text><text fill="#212529" font-family="'Segoe UI, Helvetica, Arial, sans-serif'" font-size="12" lengthAdjust="spacing" textLength="75.3809" x="509.3408" y="632.3418">current key?</text><text fill="#000000" font-family="'Segoe UI, Helvetica, Arial, sans-serif'" font-size="12" lengthAdjust="spacing" textLength="20.7363" x="464.6045" y="612.373">yes</text><text fill="#000000" font-family="'Segoe UI, Helvetica, Arial, sans-serif'" font-size="12" lengthAdjust="spacing" textLength="14.9473" x="649.2158" y="612.373">no</text><rect fill="#F8F9FA" height="45.9688" rx="4" ry="4" style="stroke:#ADB5BD;stroke-width:1;" width="132.4121" x="415.1348" y="651.1719"/><text fill="#212529" font-family="'Segoe UI, Helvetica, Arial, sans-serif'" font-size="12" lengthAdjust="spacing" textLength="100.4121" x="431.1348" y="678.3105">AES-128 decrypt</text><rect fill="#F8F9FA" height="59.9375" rx="4" ry="4" style="stroke:#ADB5BD;stroke-width:1;" width="142.8125" x="409.9346" y="731.1094"/><text fill="#212529" font-family="'Segoe UI, Helvetica, Arial, sans-serif'" font-size="12" lengthAdjust="spacing" textLength="83.4961" x="425.9346" y="758.248">H.264 decode</text><text fill="#212529" font-family="'Segoe UI, Helvetica, Arial, sans-serif'" font-size="12" lengthAdjust="spacing" textLength="110.8125" x="425.9346" y="772.2168">(ffmpeg rawvideo)</text><rect fill="#F8F9FA" height="59.9375" rx="4" ry="4" style="stroke:#ADB5BD;stroke-width:1;" width="177.0605" x="392.8105" y="811.0469"/><text fill="#212529" font-family="'Segoe UI, Helvetica, Arial, sans-serif'" font-size="12" lengthAdjust="spacing" textLength="141.3809" x="408.8105" y="838.1855">Socket.IO 'frame' event</text><text fill="#212529" font-family="'Segoe UI, Helvetica, Arial, sans-serif'" font-size="12" lengthAdjust="spacing" textLength="145.0605" x="408.8105" y="852.1543">(Middleware &#8594; Browser)</text><rect fill="#F8F9FA" height="45.9688" rx="4" ry="4" style="stroke:#ADB5BD;stroke-width:1;" width="156.5234" x="403.0791" y="890.9844"/><text fill="#212529" font-family="'Segoe UI, Helvetica, Arial, sans-serif'" font-size="12" lengthAdjust="spacing" textLength="124.5234" x="419.0791" y="918.123">Canvas drawImage()</text><rect fill="#F8F9FA" height="59.9375" rx="4" ry="4" style="stroke:#ADB5BD;stroke-width:1;" width="100.5313" x="602.9502" y="651.1719"/><text fill="#212529" font-family="'Segoe UI, Helvetica, Arial, sans-serif'" font-size="12" lengthAdjust="spacing" textLength="68.5313" x="618.9502" y="678.3105">Drop frame</text><text fill="#212529" font-family="'Segoe UI, Helvetica, Arial, sans-serif'" font-size="12" lengthAdjust="spacing" textLength="63.6387" x="618.9502" y="692.2793">(stale key)</text><polygon fill="#F8F9FA" points="567.2783,946.9531,579.2783,958.9531,567.2783,970.9531,555.2783,958.9531,567.2783,946.9531" style="stroke:#ADB5BD;stroke-width:1;"/><ellipse cx="567.2783" cy="1001.9531" fill="none" rx="11" ry="11" style="stroke:#000000;stroke-width:1;"/><ellipse cx="567.2783" cy="1001.9531" fill="#FFFFFF" rx="6" ry="6" style="stroke:#000000;stroke-width:1;"/><line style="stroke:#000000;stroke-width:1;" x1="386.8105" x2="386.8105" y1="64.6094" y2="1012.9531"/><line style="stroke:#000000;stroke-width:1;" x1="707.4814" x2="707.4814" y1="64.6094" y2="1012.9531"/><line style="stroke:#495057;stroke-width:1;" x1="124.1475" x2="124.1475" y1="115.5781" y2="135.5781"/><polygon fill="#495057" points="120.1475,125.5781,124.1475,135.5781,128.1475,125.5781,124.1475,129.5781" style="stroke:#495057;stroke-width:1;"/><line style="stroke:#495057;stroke-width:1;" x1="124.1475" x2="124.1475" y1="195.5156" y2="215.5156"/><polygon fill="#495057" points="120.1475,205.5156,124.1475,215.5156,128.1475,205.5156,124.1475,209.5156" style="stroke:#495057;stroke-width:1;"/><line style="stroke:#495057;stroke-width:1;" x1="124.1475" x2="124.1475" y1="275.4531" y2="295.4531"/><polygon fill="#495057" points="120.1475,285.4531,124.1475,295.4531,128.1475,285.4531,124.1475,289.4531" style="stroke:#495057;stroke-width:1;"/><line style="stroke:#495057;stroke-width:1;" x1="312.5527" x2="312.5527" y1="435.3281" y2="455.3281"/><polygon fill="#495057" points="308.5527,445.3281,312.5527,455.3281,316.5527,445.3281,312.5527,449.3281" style="stroke:#495057;stroke-width:1;"/><line style="stroke:#495057;stroke-width:1;" x1="481.3408" x2="481.3408" y1="697.1406" y2="731.1094"/><polygon fill="#495057" points="477.3408,721.1094,481.3408,731.1094,485.3408,721.1094,481.3408,725.1094" style="stroke:#495057;stroke-width:1;"/><line style="stroke:#495057;stroke-width:1;" x1="481.3408" x2="481.3408" y1="791.0469" y2="811.0469"/><polygon fill="#495057" points="477.3408,801.0469,481.3408,811.0469,485.3408,801.0469,481.3408,805.0469" style="stroke:#495057;stroke-width:1;"/><line style="stroke:#495057;stroke-width:1;" x1="481.3408" x2="481.3408" y1="870.9844" y2="890.9844"/><polygon fill="#495057" points="477.3408,880.9844,481.3408,890.9844,485.3408,880.9844,481.3408,884.9844" style="stroke:#495057;stroke-width:1;"/><line style="stroke:#495057;stroke-width:1;" x1="491.3408" x2="481.3408" y1="621.2031" y2="621.2031"/><line style="stroke:#495057;stroke-width:1;" x1="481.3408" x2="481.3408" y1="621.2031" y2="651.1719"/><polygon fill="#495057" points="477.3408,641.1719,481.3408,651.1719,485.3408,641.1719,481.3408,645.1719" style="stroke:#495057;stroke-width:1;"/><line style="stroke:#495057;stroke-width:1;" x1="643.2158" x2="653.2158" y1="621.2031" y2="621.2031"/><line style="stroke:#495057;stroke-width:1;" x1="653.2158" x2="653.2158" y1="621.2031" y2="651.1719"/><polygon fill="#495057" points="649.2158,641.1719,653.2158,651.1719,657.2158,641.1719,653.2158,645.1719" style="stroke:#495057;stroke-width:1;"/><line style="stroke:#495057;stroke-width:1;" x1="481.3408" x2="481.3408" y1="936.9531" y2="958.9531"/><line style="stroke:#495057;stroke-width:1;" x1="481.3408" x2="555.2783" y1="958.9531" y2="958.9531"/><polygon fill="#495057" points="545.2783,954.9531,555.2783,958.9531,545.2783,962.9531,549.2783,958.9531" style="stroke:#495057;stroke-width:1;"/><line style="stroke:#495057;stroke-width:1;" x1="653.2158" x2="653.2158" y1="711.1094" y2="958.9531"/><line style="stroke:#495057;stroke-width:1;" x1="653.2158" x2="579.2783" y1="958.9531" y2="958.9531"/><polygon fill="#495057" points="589.2783,954.9531,579.2783,958.9531,589.2783,962.9531,585.2783,958.9531" style="stroke:#495057;stroke-width:1;"/><line style="stroke:#495057;stroke-width:1;" x1="567.2783" x2="567.2783" y1="581.2344" y2="601.2344"/><polygon fill="#495057" points="563.2783,591.2344,567.2783,601.2344,571.2783,591.2344,567.2783,595.2344" style="stroke:#495057;stroke-width:1;"/><line style="stroke:#495057;stroke-width:1;" x1="567.2783" x2="567.2783" y1="970.9531" y2="990.9531"/><polygon fill="#495057" points="563.2783,980.9531,567.2783,990.9531,571.2783,980.9531,567.2783,984.9531" style="stroke:#495057;stroke-width:1;"/><line style="stroke:#495057;stroke-width:1;" x1="124.1475" x2="124.1475" y1="355.3906" y2="360.3906"/><line style="stroke:#495057;stroke-width:1;" x1="124.1475" x2="312.5527" y1="360.3906" y2="360.3906"/><line style="stroke:#495057;stroke-width:1;" x1="312.5527" x2="312.5527" y1="360.3906" y2="375.3906"/><polygon fill="#495057" points="308.5527,365.3906,312.5527,375.3906,316.5527,365.3906,312.5527,369.3906" style="stroke:#495057;stroke-width:1;"/><line style="stroke:#495057;stroke-width:1;" x1="312.5527" x2="312.5527" y1="515.2656" y2="520.2656"/><line style="stroke:#495057;stroke-width:1;" x1="312.5527" x2="567.2783" y1="520.2656" y2="520.2656"/><line style="stroke:#495057;stroke-width:1;" x1="567.2783" x2="567.2783" y1="520.2656" y2="535.2656"/><polygon fill="#495057" points="563.2783,525.2656,567.2783,535.2656,571.2783,525.2656,567.2783,529.2656" style="stroke:#495057;stroke-width:1;"/><text fill="#000000" font-family="'Segoe UI, Helvetica, Arial, sans-serif'" font-size="12" lengthAdjust="spacing" textLength="42.5391" x="101.8779" y="81.748">Sender</text><text fill="#000000" font-family="'Segoe UI, Helvetica, Arial, sans-serif'" font-size="12" lengthAdjust="spacing" textLength="50.1035" x="286.501" y="81.748">Network</text><text fill="#000000" font-family="'Segoe UI, Helvetica, Arial, sans-serif'" font-size="12" lengthAdjust="spacing" textLength="52.4531" x="520.9194" y="81.748">Receiver</text><?plantuml-src PL7HQjmm47pNLsmX41yq5nf2ANSFeKdSDj0cvOwcBu4YM-EBE5aoQzaN1p_d0_A9-PAixICjL6-xcfsTcNrdVUuQ0wfZvp2lcj8f5Mrqe5jh4EWBwnBqqrPmraEf_k3y-w-qNyCRSA_gg3cgnKq5Vt5BkQvYmxZpIM0oo9eDiVOcb5GCDBEbMdoRdtmy9VWyc05N56M5pNjgN6HTw3eUFuA3qr4GtO3_dAwFFfny6YQugwACL0pPPkZqAEiYQ8lkZnKn3u8MTLzNQNhTNoFk0czxjVYDR1toBI8TjuCX8PZg-TKDPTPh7jUimIsOCWxQv293O7ZO9pDQdTXNwMM_GWxR3kONA-Z_TIoLBIXvAwdKCRz7VUVpXXa-3iYp6SLxU4ewr3D5yjwC6en6brDtYajw_yObeUv6CxCzwg-Zmp7eGq8hcsJWXpN6OQSPzFBqJESSTlLePfoxqBxLDHdXkohr1ebymDMWn8Uzh4iErNGzOPDhkz7fWFF65dB_KAbN?></g></svg>