<?plantuml 1.2026.2?><svg xmlns="http://www.w3.org/2000/svg" xmlns:xlink="http://www.w3.org/1999/xlink" contentStyleType="text/css" data-diagram-type="ACTIVITY" height="860px" preserveAspectRatio="none" style="width:673px;height:860px;" version="1.1" viewBox="0 0 673 860" width="673px" zoomAndPan="magnify"><title>Video Frame Pipeline</title><defs/><g><g class="title" data-source-line="18"><text fill="#000000" font-family="'Segoe UI, Helvetica, Arial, sans-serif'" font-size="22" font-weight="bold" lengthAdjust="spacing" textLength="264.2363" x="203.0762" y="35.4209">Video Frame Pipeline</text></g><rect fill="#FFFFFF" height="13.9688" style="stroke:#FFFFFF;stroke-width:1;" width="650.3887" x="10" y="52.9395"/><rect fill="#E8F4FD" height="800.3438" style="stroke:#E8F4FD;stroke-width:1;" width="214.2949" x="10" y="52.9395"/><ellipse cx="118.1475" cy="81.9082" fill="#FFFFFF" rx="10" ry="10" style="stroke:#000000;stroke-width:1;"/><rect fill="#F8F9FA" height="47.9375" rx="12.5" ry="12.5" style="stroke:#ADB5BD;stroke-width:1;" width="173.0469" x="31.624" y="111.9082"/><text fill="#212529" font-family="'Segoe UI, Helvetica, Arial, sans-serif'" font-size="12" lengthAdjust="spacing" textLength="98.6484" x="41.624" y="133.0469">OpenCV capture</text><text fill="#212529" font-family="'Segoe UI, Helvetica, Arial, sans-serif'" font-size="12" lengthAdjust="spacing" textLength="153.0469" x="41.624" y="147.0156">(or debug random frame)</text><rect fill="#F8F9FA" height="47.9375" rx="12.5" ry="12.5" style="stroke:#ADB5BD;stroke-width:1;" width="204.2949" x="16" y="179.8457"/><text fill="#212529" font-family="'Segoe UI, Helvetica, Arial, sans-serif'" font-size="12" lengthAdjust="spacing" textLength="83.4844" x="26" y="200.9844">H.264 encode</text><text fill="#212529" font-family="'Segoe UI, Helvetica, Arial, sans-serif'" font-size="12" lengthAdjust="spacing" textLength="184.2949" x="26" y="214.9531">(ffmpeg, ultrafast/zerolatency)</text><rect fill="#F8F9FA" height="47.9375" rx="12.5" ry="12.5" style="stroke:#ADB5BD;stroke-width:1;" width="186.3945" x="24.9502" y="247.7832"/><text fill="#212529" font-family="'Segoe UI, Helvetica, Arial, sans-serif'" font-size="12" lengthAdjust="spacing" textLength="100.4004" x="34.9502" y="268.9219">AES-128 encrypt</text><text fill="#212529" font-family="'Segoe UI, Helvetica, Arial, sans-serif'" font-size="12" lengthAdjust="spacing" textLength="166.3945" x="34.9502" y="282.8906">(prepend 4-byte key_index)</text><line style="stroke:#000000;stroke-width:1;" x1="10" x2="10" y1="52.9395" y2="853.2832"/><rect fill="#F0FFF0" height="800.3438" style="stroke:#F0FFF0;stroke-width:1;" width="138.5156" x="224.2949" y="52.9395"/><rect fill="#F8F9FA" height="47.9375" rx="12.5" ry="12.5" style="stroke:#ADB5BD;stroke-width:1;" width="128.5156" x="230.2949" y="315.7207"/><text fill="#212529" font-family="'Segoe UI, Helvetica, Arial, sans-serif'" font-size="12" lengthAdjust="spacing" textLength="108.0938" x="240.2949" y="336.8594">WebSocket /video</text><text fill="#212529" font-family="'Segoe UI, Helvetica, Arial, sans-serif'" font-size="12" lengthAdjust="spacing" textLength="108.5156" x="240.2949" y="350.8281">(Socket.IO binary)</text><rect fill="#F8F9FA" height="47.9375" rx="12.5" ry="12.5" style="stroke:#ADB5BD;stroke-width:1;" width="122.9375" x="233.084" y="383.6582"/><text fill="#212529" font-family="'Segoe UI, Helvetica, Arial, sans-serif'" font-size="12" lengthAdjust="spacing" textLength="102.9375" x="243.084" y="404.7969">Server broadcast</text><text fill="#212529" font-family="'Segoe UI, Helvetica, Arial, sans-serif'" font-size="12" lengthAdjust="spacing" textLength="101.373" x="243.084" y="418.7656">(exclude sender)</text><line style="stroke:#000000;stroke-width:1;" x1="224.2949" x2="224.2949" y1="52.9395" y2="853.2832"/><rect fill="#FFF0F0" height="800.3438" style="stroke:#FFF0F0;stroke-width:1;" width="296.6709" x="362.8105" y="52.9395"/><rect fill="#F8F9FA" height="33.9688" rx="12.5" ry="12.5" style="stroke:#ADB5BD;stroke-width:1;" width="157.5664" x="452.4951" y="451.5957"/><text fill="#212529" font-family="'Segoe UI, Helvetica, Arial, sans-serif'" font-size="12" lengthAdjust="spacing" textLength="137.5664" x="462.4951" y="472.7344">Read 4-byte key_index</text><polygon fill="#FFF3CD" points="473.3408,505.5645,589.2158,505.5645,601.2158,519.5332,589.2158,533.502,473.3408,533.502,461.3408,519.5332,473.3408,505.5645" style="stroke:#FFECB5;stroke-width:1;"/><text fill="#212529" font-family="'Segoe UI, Helvetica, Arial, sans-serif'" font-size="12" lengthAdjust="spacing" textLength="115.875" x="473.3408" y="516.7031">key_index matches</text><text fill="#212529" font-family="'Segoe UI, Helvetica, Arial, sans-serif'" font-size="12" lengthAdjust="spacing" textLength="75.3809" x="473.3408" y="530.6719">current key?</text><text fill="#000000" font-family="'Segoe UI, Helvetica, Arial, sans-serif'" font-size="12" lengthAdjust="spacing" textLength="20.7363" x="440.6045" y="516.7031">yes</text><text fill="#000000" font-family="'Segoe UI, Helvetica, Arial, sans-serif'" font-size="12" lengthAdjust="spacing" textLength="14.9473" x="601.2158" y="516.7031">no</text><rect fill="#F8F9FA" height="33.9688" rx="12.5" ry="12.5" style="stroke:#ADB5BD;stroke-width:1;" width="120.4121" x="391.1348" y="543.502"/><text fill="#212529" font-family="'Segoe UI, Helvetica, Arial, sans-serif'" font-size="12" lengthAdjust="spacing" textLength="100.4121" x="401.1348" y="564.6406">AES-128 decrypt</text><rect fill="#F8F9FA" height="47.9375" rx="12.5" ry="12.5" style="stroke:#ADB5BD;stroke-width:1;" width="130.8125" x="385.9346" y="611.4395"/><text fill="#212529" font-family="'Segoe UI, Helvetica, Arial, sans-serif'" font-size="12" lengthAdjust="spacing" textLength="83.4961" x="395.9346" y="632.5781">H.264 decode</text><text fill="#212529" font-family="'Segoe UI, Helvetica, Arial, sans-serif'" font-size="12" lengthAdjust="spacing" textLength="110.8125" x="395.9346" y="646.5469">(ffmpeg rawvideo)</text><rect fill="#F8F9FA" height="47.9375" rx="12.5" ry="12.5" style="stroke:#ADB5BD;stroke-width:1;" width="165.0605" x="368.8105" y="679.377"/><text fill="#212529" font-family="'Segoe UI, Helvetica, Arial, sans-serif'" font-size="12" lengthAdjust="spacing" textLength="141.3809" x="378.8105" y="700.5156">Socket.IO 'frame' event</text><text fill="#212529" font-family="'Segoe UI, Helvetica, Arial, sans-serif'" font-size="12" lengthAdjust="spacing" textLength="145.0605" x="378.8105" y="714.4844">(Middleware &#8594; Browser)</text><rect fill="#F8F9FA" height="33.9688" rx="12.5" ry="12.5" style="stroke:#ADB5BD;stroke-width:1;" width="144.5234" x="379.0791" y="747.3145"/><text fill="#212529" font-family="'Segoe UI, Helvetica, Arial, sans-serif'" font-size="12" lengthAdjust="spacing" textLength="124.5234" x="389.0791" y="768.4531">Canvas drawImage()</text><rect fill="#F8F9FA" height="47.9375" rx="12.5" ry="12.5" style="stroke:#ADB5BD;stroke-width:1;" width="88.5313" x="566.9502" y="543.502"/><text fill="#212529" font-family="'Segoe UI, Helvetica, Arial, sans-serif'" font-size="12" lengthAdjust="spacing" textLength="68.5313" x="576.9502" y="564.6406">Drop frame</text><text fill="#212529" font-family="'Segoe UI, Helvetica, Arial, sans-serif'" font-size="12" lengthAdjust="spacing" textLength="63.6387" x="576.9502" y="578.6094">(stale key)</text><polygon fill="#FFF3CD" points="531.2783,787.2832,543.2783,799.2832,531.2783,811.2832,519.2783,799.2832,531.2783,787.2832" style="stroke:#FFECB5;stroke-width:1;"/><ellipse cx="531.2783" cy="842.2832" fill="none" rx="11" ry="11" style="stroke:#000000;stroke-width:1;"/><ellipse cx="531.2783" cy="842.2832" fill="#FFFFFF" rx="6" ry="6" style="stroke:#000000;stroke-width:1;"/><line style="stroke:#000000;stroke-width:1;" x1="362.8105" x2="362.8105" y1="52.9395" y2="853.2832"/><line style="stroke:#000000;stroke-width:1;" x1="659.4814" x2="659.4814" y1="52.9395" y2="853.2832"/><line style="stroke:#000000;stroke-width:1;" x1="118.1475" x2="118.1475" y1="91.9082" y2="111.9082"/><polygon fill="#000000" points="114.1475,101.9082,118.1475,111.9082,122.1475,101.9082,118.1475,105.9082" style="stroke:#000000;stroke-width:1;"/><line style="stroke:#000000;stroke-width:1;" x1="118.1475" x2="118.1475" y1="159.8457" y2="179.8457"/><polygon fill="#000000" points="114.1475,169.8457,118.1475,179.8457,122.1475,169.8457,118.1475,173.8457" style="stroke:#000000;stroke-width:1;"/><line style="stroke:#000000;stroke-width:1;" x1="118.1475" x2="118.1475" y1="227.7832" y2="247.7832"/><polygon fill="#000000" points="114.1475,237.7832,118.1475,247.7832,122.1475,237.7832,118.1475,241.7832" style="stroke:#000000;stroke-width:1;"/><line style="stroke:#000000;stroke-width:1;" x1="294.5527" x2="294.5527" y1="363.6582" y2="383.6582"/><polygon fill="#000000" points="290.5527,373.6582,294.5527,383.6582,298.5527,373.6582,294.5527,377.6582" style="stroke:#000000;stroke-width:1;"/><line style="stroke:#000000;stroke-width:1;" x1="451.3408" x2="451.3408" y1="577.4707" y2="611.4395"/><polygon fill="#000000" points="447.3408,601.4395,451.3408,611.4395,455.3408,601.4395,451.3408,605.4395" style="stroke:#000000;stroke-width:1;"/><line style="stroke:#000000;stroke-width:1;" x1="451.3408" x2="451.3408" y1="659.377" y2="679.377"/><polygon fill="#000000" points="447.3408,669.377,451.3408,679.377,455.3408,669.377,451.3408,673.377" style="stroke:#000000;stroke-width:1;"/><line style="stroke:#000000;stroke-width:1;" x1="451.3408" x2="451.3408" y1="727.3145" y2="747.3145"/><polygon fill="#000000" points="447.3408,737.3145,451.3408,747.3145,455.3408,737.3145,451.3408,741.3145" style="stroke:#000000;stroke-width:1;"/><line style="stroke:#000000;stroke-width:1;" x1="461.3408" x2="451.3408" y1="519.5332" y2="519.5332"/><line style="stroke:#000000;stroke-width:1;" x1="451.3408" x2="451.3408" y1="519.5332" y2="543.502"/><polygon fill="#000000" points="447.3408,533.502,451.3408,543.502,455.3408,533.502,451.3408,537.502" style="stroke:#000000;stroke-width:1;"/><line style="stroke:#000000;stroke-width:1;" x1="601.2158" x2="611.2158" y1="519.5332" y2="519.5332"/><line style="stroke:#000000;stroke-width:1;" x1="611.2158" x2="611.2158" y1="519.5332" y2="543.502"/><polygon fill="#000000" points="607.2158,533.502,611.2158,543.502,615.2158,533.502,611.2158,537.502" style="stroke:#000000;stroke-width:1;"/><line style="stroke:#000000;stroke-width:1;" x1="451.3408" x2="451.3408" y1="781.2832" y2="799.2832"/><line style="stroke:#000000;stroke-width:1;" x1="451.3408" x2="519.2783" y1="799.2832" y2="799.2832"/><polygon fill="#000000" points="509.2783,795.2832,519.2783,799.2832,509.2783,803.2832,513.2783,799.2832" style="stroke:#000000;stroke-width:1;"/><line style="stroke:#000000;stroke-width:1;" x1="611.2158" x2="611.2158" y1="591.4395" y2="799.2832"/><line style="stroke:#000000;stroke-width:1;" x1="611.2158" x2="543.2783" y1="799.2832" y2="799.2832"/><polygon fill="#000000" points="553.2783,795.2832,543.2783,799.2832,553.2783,803.2832,549.2783,799.2832" style="stroke:#000000;stroke-width:1;"/><line style="stroke:#000000;stroke-width:1;" x1="531.2783" x2="531.2783" y1="485.5645" y2="505.5645"/><polygon fill="#000000" points="527.2783,495.5645,531.2783,505.5645,535.2783,495.5645,531.2783,499.5645" style="stroke:#000000;stroke-width:1;"/><line style="stroke:#000000;stroke-width:1;" x1="531.2783" x2="531.2783" y1="811.2832" y2="831.2832"/><polygon fill="#000000" points="527.2783,821.2832,531.2783,831.2832,535.2783,821.2832,531.2783,825.2832" style="stroke:#000000;stroke-width:1;"/><line style="stroke:#000000;stroke-width:1;" x1="118.1475" x2="118.1475" y1="295.7207" y2="300.7207"/><line style="stroke:#000000;stroke-width:1;" x1="118.1475" x2="294.5527" y1="300.7207" y2="300.7207"/><line style="stroke:#000000;stroke-width:1;" x1="294.5527" x2="294.5527" y1="300.7207" y2="315.7207"/><polygon fill="#000000" points="290.5527,305.7207,294.5527,315.7207,298.5527,305.7207,294.5527,309.7207" style="stroke:#000000;stroke-width:1;"/><line style="stroke:#000000;stroke-width:1;" x1="294.5527" x2="294.5527" y1="431.5957" y2="436.5957"/><line style="stroke:#000000;stroke-width:1;" x1="294.5527" x2="531.2783" y1="436.5957" y2="436.5957"/><line style="stroke:#000000;stroke-width:1;" x1="531.2783" x2="531.2783" y1="436.5957" y2="451.5957"/><polygon fill="#000000" points="527.2783,441.5957,531.2783,451.5957,535.2783,441.5957,531.2783,445.5957" style="stroke:#000000;stroke-width:1;"/><text fill="#000000" font-family="'Segoe UI, Helvetica, Arial, sans-serif'" font-size="12" lengthAdjust="spacing" textLength="42.5391" x="95.8779" y="64.0781">Sender</text><text fill="#000000" font-family="'Segoe UI, Helvetica, Arial, sans-serif'" font-size="12" lengthAdjust="spacing" textLength="50.1035" x="268.501" y="64.0781">Network</text><text fill="#000000" font-family="'Segoe UI, Helvetica, Arial, sans-serif'" font-size="12" lengthAdjust="spacing" textLength="52.4531" x="484.9194" y="64.0781">Receiver</text><?plantuml-src TPFDRjf04CVl-nJJS0X8a021bez3nKUiS6XI1JMzHAe6xnXMsBlMxc92IgzzW3vYdwHZGrD7eRxjp6_-E_yPxpk_eeGWZL5fuTPAfsWnWGM6wwKr6oqd9ZOMl4NjE4NQboX94MvY7nZjRv5LpkQqD0HVPdMueJWZhqAimyWgZElWMA7XoAhexBJ4N3qJjDgbf5kXD5kbbn1XxAYK6OLUPShlncWF3LOw_Mwp--4KOgoalzHeEkwEfoU5NXkk1BsW7un42SKZ2jy5yFU_YY9tuiuydjiyHjkjThVTBw9JXOdHygrW45nDfg-GicuGN4_6NV532AzyJF2W91a8RBw9pogbM6aIOb-vxWMTOBgVa-RQlN0UhHU3kvJqv052JFt6qgEkigIanMO9l6ff4eXoeTfG36ukskyxG3eqCkUYA4bfMGVUciK8dRzy9cjYz4piSdvqFM-qshsymkvIpoMf9RvDGgUns7c2DUs-AMxcYMdkBsYoqUR-blpMsFLU3BxIOcx2DNcup79Fh70uNypkOA4qskAUETcCB2oiGHbo7upHKnXl984hl1xbMPpbxoaabUK36DmJlkrbA5G4rPSZ9EZ35Rb77Mvi_jldvCSQy7FHKDsHgnLxUJ4hgJ0xF4GF8-DOUMGys6tXftQa_fawBuPz3fJnJLpmIKaPqvRV6_p--Gl6rcnTuQUecw3Eq85alLc2IwfoWlXzG5MROrjJQzB31bcDDnuNJdDEInNnFs1IyGS0?></g></svg>